<mxfile host="app.diagrams.net" modified="2024-04-21T15:53:57.820Z" agent="Mozilla/5.0 (Windows NT 10.0; Win64; x64) AppleWebKit/537.36 (KHTML, like Gecko) Chrome/123.0.0.0 Safari/537.36" etag="EAdIO8nDhe6uuZ0Zf1g8" version="24.2.5" type="github" pages="2">
  <diagram name="Trang-1" id="fNsR1TVzgB-xpxvdMZEM">
    <mxGraphModel dx="1823" dy="940" grid="1" gridSize="10" guides="1" tooltips="1" connect="1" arrows="1" fold="1" page="1" pageScale="1" pageWidth="827" pageHeight="583" math="0" shadow="0">
      <root>
        <mxCell id="0" />
        <mxCell id="1" parent="0" />
        <mxCell id="GIJtF38X3H_XDyXdE6d2-2" value="&lt;b&gt;VPC Default&lt;/b&gt;" style="points=[[0,0],[0.25,0],[0.5,0],[0.75,0],[1,0],[1,0.25],[1,0.5],[1,0.75],[1,1],[0.75,1],[0.5,1],[0.25,1],[0,1],[0,0.75],[0,0.5],[0,0.25]];outlineConnect=0;gradientColor=none;html=1;whiteSpace=wrap;fontSize=12;fontStyle=0;container=1;pointerEvents=0;collapsible=0;recursiveResize=0;shape=mxgraph.aws4.group;grIcon=mxgraph.aws4.group_vpc2;strokeColor=#8C4FFF;fillColor=none;verticalAlign=top;align=left;spacingLeft=30;fontColor=#AAB7B8;dashed=0;strokeWidth=1;" vertex="1" parent="1">
          <mxGeometry x="550" y="240" width="890" height="370" as="geometry" />
        </mxCell>
        <mxCell id="GIJtF38X3H_XDyXdE6d2-3" value="&lt;b&gt;Region us-east-1&lt;/b&gt;" style="points=[[0,0],[0.25,0],[0.5,0],[0.75,0],[1,0],[1,0.25],[1,0.5],[1,0.75],[1,1],[0.75,1],[0.5,1],[0.25,1],[0,1],[0,0.75],[0,0.5],[0,0.25]];outlineConnect=0;gradientColor=none;html=1;whiteSpace=wrap;fontSize=12;fontStyle=0;container=1;pointerEvents=0;collapsible=0;recursiveResize=0;shape=mxgraph.aws4.group;grIcon=mxgraph.aws4.group_region;strokeColor=#00A4A6;fillColor=none;verticalAlign=top;align=left;spacingLeft=30;fontColor=#147EBA;strokeWidth=1;" vertex="1" parent="1">
          <mxGeometry x="500" y="180" width="980" height="610" as="geometry" />
        </mxCell>
        <mxCell id="GIJtF38X3H_XDyXdE6d2-8" value="Availability Zone" style="fillColor=none;strokeColor=#147EBA;dashed=1;verticalAlign=top;fontStyle=0;fontColor=#147EBA;whiteSpace=wrap;html=1;strokeWidth=1;" vertex="1" parent="GIJtF38X3H_XDyXdE6d2-3">
          <mxGeometry x="110" y="112" width="330" height="288" as="geometry" />
        </mxCell>
        <mxCell id="GIJtF38X3H_XDyXdE6d2-4" value="&lt;b&gt;&amp;nbsp;Subnet Private A&lt;/b&gt;" style="points=[[0,0],[0.25,0],[0.5,0],[0.75,0],[1,0],[1,0.25],[1,0.5],[1,0.75],[1,1],[0.75,1],[0.5,1],[0.25,1],[0,1],[0,0.75],[0,0.5],[0,0.25]];outlineConnect=0;gradientColor=none;html=1;whiteSpace=wrap;fontSize=12;fontStyle=0;container=1;pointerEvents=0;collapsible=0;recursiveResize=0;shape=mxgraph.aws4.group;grIcon=mxgraph.aws4.group_security_group;grStroke=0;strokeColor=#00A4A6;fillColor=#E6F6F7;verticalAlign=top;align=left;spacingLeft=30;fontColor=#147EBA;dashed=0;" vertex="1" parent="GIJtF38X3H_XDyXdE6d2-3">
          <mxGeometry x="130" y="150" width="290" height="230" as="geometry" />
        </mxCell>
        <mxCell id="GIJtF38X3H_XDyXdE6d2-9" value="Availability Zone" style="fillColor=none;strokeColor=#147EBA;dashed=1;verticalAlign=top;fontStyle=0;fontColor=#147EBA;whiteSpace=wrap;html=1;strokeWidth=1;" vertex="1" parent="GIJtF38X3H_XDyXdE6d2-3">
          <mxGeometry x="550" y="111" width="330" height="288" as="geometry" />
        </mxCell>
        <mxCell id="GIJtF38X3H_XDyXdE6d2-10" value="&lt;b&gt;&amp;nbsp;Subnet Private B&amp;nbsp;&lt;/b&gt;" style="points=[[0,0],[0.25,0],[0.5,0],[0.75,0],[1,0],[1,0.25],[1,0.5],[1,0.75],[1,1],[0.75,1],[0.5,1],[0.25,1],[0,1],[0,0.75],[0,0.5],[0,0.25]];outlineConnect=0;gradientColor=none;html=1;whiteSpace=wrap;fontSize=12;fontStyle=0;container=1;pointerEvents=0;collapsible=0;recursiveResize=0;shape=mxgraph.aws4.group;grIcon=mxgraph.aws4.group_security_group;grStroke=0;strokeColor=#00A4A6;fillColor=#E6F6F7;verticalAlign=top;align=left;spacingLeft=30;fontColor=#147EBA;dashed=0;" vertex="1" parent="GIJtF38X3H_XDyXdE6d2-3">
          <mxGeometry x="570" y="150" width="290" height="230" as="geometry" />
        </mxCell>
        <mxCell id="GIJtF38X3H_XDyXdE6d2-28" value="" style="sketch=0;outlineConnect=0;fontColor=#232F3E;gradientColor=none;fillColor=#8C4FFF;strokeColor=none;dashed=0;verticalLabelPosition=bottom;verticalAlign=top;align=center;html=1;fontSize=12;fontStyle=0;aspect=fixed;pointerEvents=1;shape=mxgraph.aws4.application_load_balancer;" vertex="1" parent="GIJtF38X3H_XDyXdE6d2-3">
          <mxGeometry x="458" y="73" width="78" height="78" as="geometry" />
        </mxCell>
        <mxCell id="GIJtF38X3H_XDyXdE6d2-29" value="ALB" style="text;html=1;align=center;verticalAlign=middle;whiteSpace=wrap;rounded=0;fontStyle=1;fontColor=#8c4fff;" vertex="1" parent="GIJtF38X3H_XDyXdE6d2-3">
          <mxGeometry x="450" y="150" width="90" height="30" as="geometry" />
        </mxCell>
        <mxCell id="GIJtF38X3H_XDyXdE6d2-30" value="" style="sketch=0;outlineConnect=0;fontColor=#232F3E;gradientColor=none;fillColor=#ED7100;strokeColor=none;dashed=0;verticalLabelPosition=bottom;verticalAlign=top;align=center;html=1;fontSize=12;fontStyle=0;aspect=fixed;pointerEvents=1;shape=mxgraph.aws4.auto_scaling2;" vertex="1" parent="GIJtF38X3H_XDyXdE6d2-3">
          <mxGeometry x="471" y="260" width="48" height="48" as="geometry" />
        </mxCell>
        <mxCell id="GIJtF38X3H_XDyXdE6d2-34" value="" style="sketch=0;points=[[0,0,0],[0.25,0,0],[0.5,0,0],[0.75,0,0],[1,0,0],[0,1,0],[0.25,1,0],[0.5,1,0],[0.75,1,0],[1,1,0],[0,0.25,0],[0,0.5,0],[0,0.75,0],[1,0.25,0],[1,0.5,0],[1,0.75,0]];outlineConnect=0;fontColor=#232F3E;fillColor=#ED7100;strokeColor=#ffffff;dashed=0;verticalLabelPosition=bottom;verticalAlign=top;align=center;html=1;fontSize=12;fontStyle=0;aspect=fixed;shape=mxgraph.aws4.resourceIcon;resIcon=mxgraph.aws4.ecs;" vertex="1" parent="GIJtF38X3H_XDyXdE6d2-3">
          <mxGeometry x="140" y="181" width="62" height="62" as="geometry" />
        </mxCell>
        <mxCell id="GIJtF38X3H_XDyXdE6d2-35" value="" style="fillColor=none;strokeColor=#e86e00;verticalAlign=top;fontStyle=0;fontColor=#147EBA;whiteSpace=wrap;html=1;strokeWidth=1;" vertex="1" parent="GIJtF38X3H_XDyXdE6d2-3">
          <mxGeometry x="140" y="180" width="710" height="191" as="geometry" />
        </mxCell>
        <mxCell id="GIJtF38X3H_XDyXdE6d2-38" value="AWS Fargate" style="text;html=1;align=center;verticalAlign=middle;whiteSpace=wrap;rounded=0;fontStyle=1;fontColor=#000000;" vertex="1" parent="GIJtF38X3H_XDyXdE6d2-3">
          <mxGeometry x="237" y="310" width="90" height="28" as="geometry" />
        </mxCell>
        <mxCell id="GIJtF38X3H_XDyXdE6d2-37" value="" style="sketch=0;points=[[0,0,0],[0.25,0,0],[0.5,0,0],[0.75,0,0],[1,0,0],[0,1,0],[0.25,1,0],[0.5,1,0],[0.75,1,0],[1,1,0],[0,0.25,0],[0,0.5,0],[0,0.75,0],[1,0.25,0],[1,0.5,0],[1,0.75,0]];outlineConnect=0;fontColor=#232F3E;fillColor=#ED7100;strokeColor=#ffffff;dashed=0;verticalLabelPosition=bottom;verticalAlign=top;align=center;html=1;fontSize=12;fontStyle=0;aspect=fixed;shape=mxgraph.aws4.resourceIcon;resIcon=mxgraph.aws4.fargate;" vertex="1" parent="GIJtF38X3H_XDyXdE6d2-3">
          <mxGeometry x="237" y="250" width="58" height="58" as="geometry" />
        </mxCell>
        <mxCell id="GIJtF38X3H_XDyXdE6d2-36" value="" style="sketch=0;points=[[0,0,0],[0.25,0,0],[0.5,0,0],[0.75,0,0],[1,0,0],[0,1,0],[0.25,1,0],[0.5,1,0],[0.75,1,0],[1,1,0],[0,0.25,0],[0,0.5,0],[0,0.75,0],[1,0.25,0],[1,0.5,0],[1,0.75,0]];outlineConnect=0;fontColor=#232F3E;fillColor=#ED7100;strokeColor=#ffffff;dashed=0;verticalLabelPosition=bottom;verticalAlign=top;align=center;html=1;fontSize=12;fontStyle=0;aspect=fixed;shape=mxgraph.aws4.resourceIcon;resIcon=mxgraph.aws4.fargate;" vertex="1" parent="GIJtF38X3H_XDyXdE6d2-3">
          <mxGeometry x="257" y="230" width="58" height="58" as="geometry" />
        </mxCell>
        <mxCell id="GIJtF38X3H_XDyXdE6d2-39" value="" style="sketch=0;points=[[0,0,0],[0.25,0,0],[0.5,0,0],[0.75,0,0],[1,0,0],[0,1,0],[0.25,1,0],[0.5,1,0],[0.75,1,0],[1,1,0],[0,0.25,0],[0,0.5,0],[0,0.75,0],[1,0.25,0],[1,0.5,0],[1,0.75,0]];outlineConnect=0;fontColor=#232F3E;fillColor=#ED7100;strokeColor=#ffffff;dashed=0;verticalLabelPosition=bottom;verticalAlign=top;align=center;html=1;fontSize=12;fontStyle=0;aspect=fixed;shape=mxgraph.aws4.resourceIcon;resIcon=mxgraph.aws4.fargate;" vertex="1" parent="GIJtF38X3H_XDyXdE6d2-3">
          <mxGeometry x="690" y="230" width="58" height="58" as="geometry" />
        </mxCell>
        <mxCell id="GIJtF38X3H_XDyXdE6d2-40" value="" style="sketch=0;points=[[0,0,0],[0.25,0,0],[0.5,0,0],[0.75,0,0],[1,0,0],[0,1,0],[0.25,1,0],[0.5,1,0],[0.75,1,0],[1,1,0],[0,0.25,0],[0,0.5,0],[0,0.75,0],[1,0.25,0],[1,0.5,0],[1,0.75,0]];outlineConnect=0;fontColor=#232F3E;fillColor=#ED7100;strokeColor=#ffffff;dashed=0;verticalLabelPosition=bottom;verticalAlign=top;align=center;html=1;fontSize=12;fontStyle=0;aspect=fixed;shape=mxgraph.aws4.resourceIcon;resIcon=mxgraph.aws4.fargate;" vertex="1" parent="GIJtF38X3H_XDyXdE6d2-3">
          <mxGeometry x="670" y="250" width="58" height="58" as="geometry" />
        </mxCell>
        <mxCell id="GIJtF38X3H_XDyXdE6d2-41" value="AWS Fargate" style="text;html=1;align=center;verticalAlign=middle;whiteSpace=wrap;rounded=0;fontStyle=1;fontColor=#000000;" vertex="1" parent="GIJtF38X3H_XDyXdE6d2-3">
          <mxGeometry x="670" y="310" width="90" height="28" as="geometry" />
        </mxCell>
        <mxCell id="GIJtF38X3H_XDyXdE6d2-45" value="" style="sketch=0;points=[[0,0,0],[0.25,0,0],[0.5,0,0],[0.75,0,0],[1,0,0],[0,1,0],[0.25,1,0],[0.5,1,0],[0.75,1,0],[1,1,0],[0,0.25,0],[0,0.5,0],[0,0.75,0],[1,0.25,0],[1,0.5,0],[1,0.75,0]];outlineConnect=0;fontColor=#232F3E;fillColor=#ED7100;strokeColor=#ffffff;dashed=0;verticalLabelPosition=bottom;verticalAlign=top;align=center;html=1;fontSize=12;fontStyle=0;aspect=fixed;shape=mxgraph.aws4.resourceIcon;resIcon=mxgraph.aws4.ecr;" vertex="1" parent="GIJtF38X3H_XDyXdE6d2-3">
          <mxGeometry x="458.5" y="460" width="73" height="73" as="geometry" />
        </mxCell>
        <mxCell id="GIJtF38X3H_XDyXdE6d2-59" value="ECS Cluster" style="text;html=1;align=center;verticalAlign=middle;whiteSpace=wrap;rounded=0;fontStyle=1;fontColor=#ed7100;fontSize=13;" vertex="1" parent="GIJtF38X3H_XDyXdE6d2-3">
          <mxGeometry x="205" y="194" width="90" height="30" as="geometry" />
        </mxCell>
        <mxCell id="GIJtF38X3H_XDyXdE6d2-61" value="Deploy on ECS" style="text;html=1;align=center;verticalAlign=middle;whiteSpace=wrap;rounded=0;fontStyle=1;fontColor=#ed7100;" vertex="1" parent="GIJtF38X3H_XDyXdE6d2-3">
          <mxGeometry x="120" y="470" width="150" height="30" as="geometry" />
        </mxCell>
        <mxCell id="GIJtF38X3H_XDyXdE6d2-46" value="ECR" style="text;html=1;align=center;verticalAlign=middle;whiteSpace=wrap;rounded=0;fontStyle=1;fontColor=#ed7100;fontSize=16;" vertex="1" parent="GIJtF38X3H_XDyXdE6d2-3">
          <mxGeometry x="450" y="540" width="90" height="30" as="geometry" />
        </mxCell>
        <mxCell id="GIJtF38X3H_XDyXdE6d2-27" value="" style="shape=image;verticalLabelPosition=bottom;labelBackgroundColor=default;verticalAlign=top;aspect=fixed;imageAspect=0;image=data:image/png,iVBORw0KGgoAAAANSUhEUgAAARgAAAEYCAYAAACHjumMAAAydklEQVR4nOydDYgdV3bnT82IpRIEWwKz8wxGLtUYRmaGdos4WGJadDWuME9kBrUYZ2WPO0hiJm2JJFgGx6omztZ9xLNd9jpIZj1Y7jhYYtuxRBzUghn0ZrdCV6c1SCYe1O51kMKa55IwzAsYpnZXJJVFUMvtvs9qtfrj3Vv31sd75wdNHM2rW7f7X+/Uueeee84W6AFMPzUAYDf7+QYA1Og/s5+1SADgKvvvGwDwzwDQjFztao7TRpCeRyt6AjwYjrcTAB7TLXtQt2z634+wH13ibT4HgE8BIEpa4adJK/wEAD6Og0Yk8R4I0heU3sBQo2I45AQA2Bt4JHmwAACnIlc7W+AcEKRSlM7A6NbwVt2yn9Qt26Y/APAtACjTUi6my6qkFQZJK/xZ0go/Slpzd4qeFIKUkVIZGNNPDwPAJIuhVAXq2bwQuVpY9EQQpGwUamB0a3iLbtlDhkMOAcDTkmMpeXM1Dsg5AJiLg8ZC0ZNBkDJQmIFhOz/vA0C9qDko5EzkakeKngSCFM1Xirip4Xi7AeCzHjUulMOmn84ajldkUBpBCic3D4Yth75vOKTeA8uhbvkCAN5pT9k/SVpznxc9GQTJm9wMjOmn7zPD0o+0AWBf5GoYm0H6CuVLpNr47PdNP/2sj40LsF2xa2zZ9O2iJ4MgeaHUgzH99CQAHFd5jw1YeRxgNTsL3Aqn83omcrWZgu6PILmhxMAYjmcaDnlLcRA3BoBP6E8ckPaKM0VRt2n9huMZzNDQn68bDnmEGZ9B1VnDSSt8M2mFfxIHjUTlfRCkSKQbGJYs967scVewAACNPDwA00+fZx6YKmMTxQHZEweNtqLxEaRQpBoYw/G+YzikKXPMFVDDMhG5mqrx18X000MAQBQZmtORqx1TMC6CFI4UA7NiC/qUxNgGXTo0k1b406QV/m0cNGJJ4wpjON6w4ZBRVhbicYlnpGbigDQwAxjpNaQYGLaUOCVjLAZdOhwo8xfO9NM6y0Q2ZI0ZB2RXmX9nBOHlq1kupp7LQyeiPwaAVwDg32WcC/VYgjggL7anRo4lrblSxyXioPEpALxBjeGWbeZ2GZ4bOz3+i7L/7gjSLZk8GMPxDhrO0gG/rNC39kjkaoUvg0Qx/XQSAFwZY6Eng/QKwh4MC+ieBoCtGe7/OQD85/aU/cdf/M2RyhoXWPZo/g4A5nTLTthWt7BHxzyZv01ac7flzhJB8kXIg5G0FR2zLdobGccpHZJ20+jf51HcwkaqDPdRAXZCOKtxoV+aHb1oXGDZm/k5ABxgcSVRDMMhByVOC0FyR8DALGXoZmGmPWXbVY63dEPkajNJK6yzDGNRXjYcz5Y4LQTJFa4lUsazRX17Bsf002vs+IEoI1iSE6kiXXswtfHZ72cxLkkrHOtH40JpT9nfo55bhiEuGY73mMQpIUgudO3BsJILIqny1HPZg7VQMgfHZyJXOyB5SgiilE09GN0a3mL66QVR48I8l743LrAclzmTtELRXJnvmn76nOQpIYhSujAwNl0ajQqO/0x7auRvBa/tSdpTI68CwBmBS7cAwGnW3RJBKsGmSyTTT6lLf1hgbOkuPTv/89yKei0xywKeiwNypkrtXTMsOd3I1V5VMCUEkc6GHgyr/i9S6rLdnrKlpM0bjvckXaKZfvorALjEvKnOF9NgLWU9wyH/y/TT2dr47CEZ91VN0gp/JJgnc5QVykKQ0rOuB8P6Fn0mcFqYehU7ZOS5mH5KqPEQuHSBncYutUeTIeiLfZeQSrCmB6Nbw1sESxF8HgdkjwzjUhufPSloXCiDhkPmTT89UeaYReRqZwBgWuDSw1g8HKkC6xgYe0iwnu6bMtL/TT89qVt21mLhDwGAbzjkepl3X+KA/JnIdYZDfiR/NggilzUNDOsVzctCe8p+O+uEDMf7joJOBG+afnrJcLxhyeNmhi3jRgXiMXWMxSBlZ80YjOmn/8rZeZF+OR6UFHe5kGFbvBsacUD8slXzF4zHYCwGKTX3eTDsQedt6xpKPLyo+nCfZzhkUvE9uGHxGN6g9CgLxiNIKbnHwOjW8FYA4P7yxcFS4anMmH76tMwatxtw3PTT66afero1/FAO9+uKpBW+w3kJ/VtlPd2OIMpYZWDsJwVqy0Zx0LgoaT55BmN3AgCpjYfzpp8qbbLWLUkr/InAZU+zGj0IUjpWGxje5UkSB0Rmtu5uiWN1C/1yflYbn32r6C8qa81yVODSJxVMB0Eyc0+QV6BuidTjAKafprLGysDTkaudL3ICAscIzkWu9ozCKSGIEF96MCwh7Vs8Fyet8KdKZtUdYdIKxzJWjFuLadNP3zcc75BuDfMGu6WQtMIPOC8ZUjQVBMnECgNDTvB2KkxaYaEnpdtTI+9FrvYoAIywIwoy2LIc1yBnauPhBUljcpG0wp9xXvKQ6acqt/YRRIiVMRje+MtCGdq5wvIWbyh44nsz6nTZaDierHa43SJSP6d0SYQIsmRg2PKIN8A5oWZKYkSudjEOyINJKzyVsZr/agYNh/yD6acndGv4AYnjrgsz3Lw1Yw4XtaRDkPXoeDC89V4XIlfL2vdHOnHQaLenRl4AgEclx2aWzjXlvKXd4Py8oVt2aQ92Iv3JkoHRLZu34j3vw58rkatF7Sl7LwAQALgqcWj6Bb7OzjUpPc1MfwcA+ITzsm8qmg6CCNExMDxvvrgK3QGS1twXkas1IlfbQ70PiUPrywcNyWXTT4nheCqXJR9xfv4RRfNAECE6SySeB5P3rVo4katNxAEZAQDZ2+qe4ZBZw/EOsho6UokDwhXsNRzClWaAIKrpCwMDy/GZMHK17wHAEclB4N2GQ87VxsP/JnHMDh9zfr4056oQhPIVdhq3azc/Dkilm7GzU8sqtrSfZrWDZR7W5P1b572djiAb8hWB8z+Vb1gfudr5OCA74oAcFyiRsBGjAHC9Nj4rJQCctELeuaGBQUqFiIH5Z0VzyZU4aERx0HgjDsgeAJDZ97mmW/abMgZKWnMJ59x000+z9MBGEKlQA/MNzmtKXamflzhotCNXG5F8rmnQ9NO3JAV+eeeEXgxSGr7C+0CWvRWIKCvONZ2SNORR3bIflzDOP3F+voiSFwiyJl/hPCJQqjq2KmhP2X8SB6QOAKcB4HaWsXTL/l0JU8K+3khl4TUwMrNiS0nSmrsTB42fR652LA7I72Q5pc3av+TNwwXcE0HWZNPm9/1MHDSoQd2VIe4k49wSrweD5TOR0oAGZhPYuabfZueaPue8PHPAVWK3BgTJHTQwXdA518SWTDxg+QSkr5F+fqYX0a3hrbplf99wyIucl95RNCUEqQRoYDaBpf5fEGwIx7ukWuv+GFNBKssWtvXcrSvfNwWNDMczdMv+QwB4MUMzOBmJe7wGpud3+pDqsIU9kN2+nfsiS9T00+MA4GXtMhkHRMYRBN45/JuEeyKIFLiDvPTNrmYq5cD0U2pYTkpqYSsjSQ7PFiGV5St41mWZ2vjsftNPr7DtaBk0k1Y4J2Ec3sQ5mQc3ESQTWwROR9d6oWRDB+qRGQ4RDeKuRztytX2SxuL1YPBoAVIaqIFpsnhDt3y9F96SrA/1d9jWs8xatknSCkX6S9+Hbg1v5TQwtzExDykTWyJXu2r63beENhzySByUuqnApph+ehAAzikYmnoPR9pTI1K8CN2yeQ3fFzLuiyCy6AR5efI1KrtVbTjeE6af0uXQtOSh20krfDEOyJ7I1WQuUXhr9fTM0hXpDTqJdp9yFIyu5K6G6aeEcynYLU2J8ZZ7MBzC+7fuyVo9SHXpGBieB7NymaWmn54EgOMKhg7jgDyjYNwOXH/rqhdkR3qPpSVS0go/5bnI9NPnlc1IEro1/JDpp57pp9cVGJerSSscjVxthPWRVgVvdTrcQUJKxZIHk7TCT3SLa5eWfmHfUDarjLDC1xcUeFvUQ9gnOc6yJux34J0/bx8lBFFKJ8j7S87rTNNPDymYTyYMx9tp+um7AHBNsnH5AgBIe8r+7TyMC2OS8/NRr9ZLRqrLkgcTB43PDWepTSlPUJEAwFl1U+PD9NPnWB1d2URxQEby/PKyHJ0652Wl9SiR/mXlWSTeavqm4XjDkufDhW4NG4bjPWf66SUAkNKLaAVR0gr/KA7Io3l7BgLFwpM4ICryehAkE9rK/8f0019zHvI7FbnaC7ImY/pp9xl/ywHNREGbDjrmMdZithCYweTxYK5GrrZH4ZQQRIjVBaducH5hi+zBoyof53DkaucVjd0tuHuE9AT3lGtIWmHAef3jpp/yxgo2orBzNEkrPB0HZEfRxoUFqblKRUiqO4Mg0lltYH7GeT31gN43HE9WcesivigRAOxoT40cK3oXxnA86pUdFrj05wqmgyCZWW1gPhJwtw3dsp+VNJ+3JY3TDVdXbD2XYntXt2yRrX9fcbIfggijrf4H009tAJjlHGchcrVdMiZk+ulnORxH8CNXm1B8Dy5YcfFfcbY6iSJX26FwWgiSiftKZkauFgoUjh40/ZQ3MWxNklaocrt1hp14LpVxMRyvxjKPeYzLHQA4onBaCJKZr67z71t1y+YN3g4BwFzSmsu03NiyzfxH3bJ5+w9tBl1CPBO5WiNpzWVuJSKb2ng4L7Bz9Pf091E0JQSRwnpFv4VqyRoOOZhtOktZxW0Fb+bDkavNSB5TCobj2YJb7rhzhJSeNQ1MHDQWAEAk0WzMcLzvZJ1U5GpnklboZxzmRhyQw3FAHoxc7WLWOanAcDzdcIhIjZokDsh7CqaEIFK5L8i7EtNPZwWLYR+Q4TGYfjoKAO8L9HieiQPyTBw0kqxzUAnLeRHZlm5Eriar+wGCKGO9GEyHOd2yxwDgNznHHdUt+/LtX569mWFu1JO6QY2Fbtn/jxmZBzZY1n0BAP89Dsjx9tTIj5PWXKn7QtfGZ3+4ZZv5nwQu/ShyNVlpAQiilA09GFh+y04CgCsw9o3I1R4Vm9baGI5nGg6hb/zHWLYr9VA+BICFOCDNsnssHVi/6esCnhksL/sapTnFjiAbsamB0a3hh2rj4T8INlxbaE/Z3yvjzk1R1MZnv61b9geCf8+wPWXvS1pzlTCkCLKpgYG71dWuCd5jJnK1A4LX9hwZEgnbkas9qGBKCKKMrnpTsypuotuio6afigQyew4W1BXNUi7lNjuCbMRmQd6VfKpb9g/WKPHQDaO6ZSe3f3n2FwLXVh66LHrg9878fYb2tFF7yj5y59c3/4/kqSGIUrpaInVg28YXMtzvTORqfZXezgK6VwRjLsCykHdgS1ikinS1ROoQudpM0gqzlKY8bPrpZ7Xx2SczjFEZauOzP2S7RaLG5dM4ILvQuCBVhcvAwPJhxD/J2EHQ1C37p70clzEcTzf99F3dst8R2YruEAfkxaJr1CBIFnhiMEuwBLbzumVvBYDHBe+7BQBGDYc8AgDXktZcz7yhDcezDYf8Jf39MgxzGwBeak+NYL4LUmm4YjCrYY3ks3yROoyW9bxQtxiOVzMccklSreDS1atBEBG4l0griQMiq1zAuSovmUw/NQyHvC/JuMRxQLDHEdITcC+RVpK05toAcFG3bJudExKls2Q6rFu2vmWb+Y9VyFY1HG/QcMiJLdvMcwDwiIQhL8cBGWYlKxCk8mRaInVgXzTRTN/1OBq5Wp41ernIcBJ6PWLW5A2NC9IzSDEwcNfI0GXCTlljsu6KH7BuBwtFFrc2HM/ULft3dcv+Lqs+x9VaZANuA8CbdFmExgXpNaQZGLgb6Lwu8cu3mjOsFkpuW7fsHNakQK/objkeuRrGXJCeRKqBgbtG5iAAvJwxLrMRnwDAR3Gw1LD/YwBoJ60wyhK30a3hrbplPwIA3zAcMsjODO1W2OHgU5bnUundMwTZCOkGpgPLB+Ftf5KVkLW//acV/Z0WVmbCstR9k3lZ1JA8zP6vqla0axHHAdmFSXRIr6PMwMDdHkuXsmSz9iDUqJQi/Z/pY68o4LV7Ha2osW6z4l4Ra7Z/o4Ap9x1V10ipgYFlT+YxwyEEAL4reBK7V6Diz7Sn7B/nXYCL9V36tuGQx5mntlPC0i9mS9VP4oBcpQ82K3GKCNCrGik3MB1MP30OAE7ndb+SEUauNpL3Tdly8KSkbOtuoA80waB19/S6RrkZGFi20jsNh+wHgKM5tIctAx/FAXkzaYXn80ocNBxvULfsZ3XLfqrAvzF9iD+IA/JB0grnqpA0mSf9pFGuBqaD4XiG4ZCTkhPVygQV69W8W4soSP6TAXXN95Uh5lQG+k2jQgxMB8Px6JrzRyzHRLRmSlm4AwCX6XIoDsh7cdD4NI+bUmOtW/bzumUfV5h/lBVqcK8mrfD19tTIz4qeTN70s0aFGpgOKzya0RILsBERAByJXC3Xdq6mn9IH1qvY36wSTfFk0e8alcLAdDD9lIrwFgA8XfRcOCiktILpp88DwKm87yuJviidihqVzMB0MBzPBIAnDYc4ADAEAA8VPSdGwvINFuKAUG/l53mfj9Kt4a/XxsNXAOCpim/7X40DcjwOGh8WPRHZoEZ3KaWBWQ0rNj7MgmNFuJp0CfRGHJBzRR5IZB7etR7agaMGew9ri9MToEb3UgkD00G3hnXdsncCwDeZdyMzGn+b9be+QQ1KHJA281Y+LkNKf218dr9u2ad7IBi+GvoAN9tT9jFWX6iyoEb3UykDsxKWQs171ulqJ1oOAP/G/i1cfV6pbLAT3VdyOHIRrVHQvSa5BMd6VLoDKGq0Nn1lYOKA1OOg8XN1s5KLbg1vrY2Hf84SE2U9uJ04UsTSx5dOo2+WQs5S2elD/DXdsgfpD4uPbZU0L2BHKSrlyaBGG9NvBsaNg8ar6mYlF9NPTwCAL2k4+tCeiwPSkLXkY+kFxwHgeYmxsUp5MqjRxvSVgQGA05GrHVM0JamwYGGWpm0rocu/ZyJXa0oY6z7YEZC3MrTGXUllAr+o0eYaZeoqUEGcoifQDbo1nLXdbIerSSs8HAfkQVUPLix5ho0bkauNxAHZkbRCnz2AotBlxhXD8Z6QOEXpoEbdadRvHgxlJO+MW14knFdps7MlhXgB7M1+idUuEeVq5Gp7JE5LKqjREptq1G8eDOWkbg2XtgCW6aeHAGBM8PI7AHCmPWUXusSIXC1uT9nfAwDCtv9F2E2/xIbjlU4r1OhLNtWoHw3MoG7Z3yl6EmtB18mssLlo9ufLkasdSVpzheftJK25LyJXa8QBEf0iUg6zThWlATW6jw016kcDA4ZDynZcfgnDIX8qeOkXAHC8PWX/heQpZSYOGhfjgFA3ekZwiNHa+Ox+ydMSBjVak3U16scYTIddZdqpYJXNPhO5Ng7I4TholL5RfoZe5oVUBFwNarQha2rUlx4M42TRE1jFu4LXUSN5XvJclBAHRDQHaTcLShYNarQ+a2rUzwbGptZat4ZlZjkKYfqpJ5CfcAcAfOraVqW2Shw0rsYBGRUIKurUWy0yOI8abcqaGvWzgYHltWP4wyInwEpTiJTW/GnkahNVeXA7sEZzrwtcOqhb9rCCKW0KatQ192nU7waG4hqOlyUXIBO6ZYsEMOM4IC8rmE4utKfsn7ADp1wYDnlKzYw2BjXqntUaoYEBqBkOuWI4Xp6dHb9Et2yRgNqROGj8o4Lp5ELSmvsCAPYJZJMWZWBQo+65R6N+3kVazQ1WhzS3nSV2PuQa5yncZuRq+xROq2tW1Od5mP3T/05a4UdJa66r9XttfHZSt2yX87bH8+y7hBpl06jK5fxk03mQduVlZAyHnOA94h8HpBTN69iOwewaPb0jADjQTQpA0grfFnh4CQDkaGBQoywa4RJpFYZDRLciRRBxvecUzIMLVnfk2hoPLrBSkbPdLDlZSQLec2EGy6bNC9Qog0ZoYO5n0PTTX5l+6unW8AOqbsJOovLmdhzPu8j4auiDazjkbzapOWsYDnmrm3NEcUCOsVIFPORy0ho1WiaLRmhg1oZaf1IbD+cVJnjxBpXbRfd8Nv100HDIdVYlbTN2Gw7ZtP0Mq9LG9XsZDslr1w81yqgRGpiNoW7er2rjs2/J3mUyHMI7XiDz/rzUxme/z+qf8Bhcr5sPxQE5xZnY9S2OzwqDGt1FVCM0MJuj65Z91HDINdNPL0j0aLjiCHFALku6Lzf0rahb9rRAzdmuWnewJQXP75eLgUGN7iKqERoYPkYB4Nemn16vjc/+V8PxDmYIOPJ+SQppULbirSiSpt918e6kFfLs3Bmmn+YR6EWNViCiEW5Ti7FTt2z680ew7EoDO+r+MTvY1k1AjCuAnGd+TgfWikPkrdjhXLcfpA+vbnEd9amzHlYqQY1WIKJRPxmYBgDsFwjcdcuo4JZmN+T+4LJtztmMrTh4AoP/zDn2SdNPy3QiHjW6H6OfDAy0p+yna+PhOYVGRhVd5yEYjrdbt+z9rCeOzrypG3FAprtNXV+xzSkcb0pa4en21AhP1TbV3ohqUKP7eaKfjgo0IlcjkK2oTlEciFxt02pjpp8+DwCn1vmfu2o1wVzu2Yw9dBZEShSYfppmuGfRoEZr3KMvg7ztKfv3WTpz4XVRu2TTmI7pp3UAeGWDjyy1mmABwTUR3OZczQcZ6p9U2YtBje5nsC8NTNKaux25GvVodmSoQ5obm7VZYdmYl7poEarrlj3N3oD3kGGbcyX0rfj7GeqfVKZl7GpQo7XpSwOzkvaU/UwcLBUB/6TouWTg2xyfXXpLmn56slPNL+M2J7AErONVqtxWAH2pUV8Fedciac0lSWvuLACcNxwySUUoek4CPMT5efqQHq+NL710z2bc5gTWiqPQFPkK0Jca9b0H04Fa9cjVXsjYrU8JCs9DHZWwzUld7rclzqmSoEZrgwZmFZGrnY0Dso0VPn5H4BSpCjbbVv9UcFy9wGDhWnSVtl5SUKM1QAOzBnHQiOOgcTFytT+IXG0b82qKNDSbifrLAuaXNVi4FlU2MKjR/YRoYLqAejXU0MQBGYwDQl1WHwB+yra57+QwhQ3rn9AHKA7Ivhx3YWS/FSHnIlIqQI3uJ+77IC8PcdD4GAA+joPGl/9mOJ7Oal8MMlf2sS5dWp5DHfUu5naVrtcNh6jedlfxVgRWg4eHKIc8JtToXng1+hgNTEaW30yNkLesoOmn/7eLnIgvP244Xi0OGhu+/Vg/m1HDWaoJy/swbMZtAHg5DsjbirY5H+P8/JHNck+yghrdB69GIRqY4vics94IdcEvbvYh9gCDgrek0m1O3ip1qo0LAzVagYhGGIMpDt61eNfBNfYAn+Gf0rrksc3JEzzM64gHanQv3BqhgSkIzuI99O3BVYgjcrUjbKs9a1BRerBwNaw1K88J91zOLKFGdxHVCA1MQfA+vN0EEVdD35Js10sUVcHCezAc4nEmkuVSewU1uouoRmhgioO3vKJu+ulbvDdhD7DIW1L5WxHunjDetLL9SuKAfKRuRveAGmXUCA1MQbBWELyxhKPMVeW9F+9b8kzkar+n/q24dML4fYE0+F8omtI9oEbZNUIDUyy8LTlBt+wfityoy7dkm34mcrUjIvfgRbfsgwJp8DObbQVLBjXKoBEamAKJXO08r1vcKTQuAnuAR9Z5K8dxQA50tlDzQLdskdjDCwqmsi6oUTaN0MAUz1XOzxumnxLRm1G3nxXaOgAAp1nBrWPLRyEavHMRhhVU4u3QGEWuVkQVQtSoe+7RCBPtCiZphTO6ZfPWB/Zq47Pz7amRvxO9L6sfW0g1P90aNll1Ny6SVviBmhltel/UqEtWa4QeTMEkrfC8yHW6Zb8ufzb5UBsPPZE0+aQVvqdmRpveFzXqktUaoYEpGLYLcJhVlOdh0PTTC6w3TiXQreEtpp+eAIAxgcvPFNHYDFAjHu7TCA1MCYhc7SwAvCpw6ajhkOtVeYBr4+EfslIXvEvzOK9dk/VAjTZlTY3QwJSEOCC+YOFxw3DI35T5AV4uaeEdEtnyhWW3e70+QrmCGq3PehphkLckMDf8dcMhIgfghuhbEgAezTlHZFNYvZwrGbppxkkrLEVBcdRoXdbVCD2YcnExQ1lF+pbkTlNXDTvDkqVVbyMOGmWoi9wBNbqfdTVCA1MilmsBL5VVFH2AR00/vVYbn31S8tS4MRzvm6xF74uCQ9wBgOORq5ViedQBNbqHTTVCA1MyWCJVli/VoG7ZQZZEr6yYfjpqOOQy6/8tugz/oKy9llCjL9lUIzQwJaQ9Zf+FhAQrz/TTX9fGZ/9c5PAdL4bjGYbj7Tf99BIAXMjYaiNqT9kvS5yedFCj7jTSMtygUEw/tVlDqm5pRK5W2BtDBOpKZ1wbr+R05GrHJI11D6afPp/xjb6SNgA8GrlameIu64IabQwamBKjW8PfqI2HocTi0AkANOOAhOww3YciOxqG49Ev1BOGQ4YAwJE5v6QVPt2eGsntMF9WUKONQQNTclhL0lmJb8nV0Ie4yYor0f9eWPlmMv10N3s4h1kbD1XzoF+sPZGrFZKtmwXUaH3QwFQA9gBfV9DmokycYr3BKwlqtDYY5K0A9G3VnrLtvGrR5gx1/0l7yv6zoieSBdRobdDAVISkNfdPkavtKur4viJusGBhI2nN3S56MllBje4HDUzFaE/Zv0/fJgU348/KHQA4056y91Vlt4gH1OguaGAqBn2L0LdJxmzSovlR5GpHktZcEdXplIMa3QUPO1YUlk26AwD2Gw55EQC+VfScumA6DsiPWbX+ngc1QgNTadgBs7MAcN5wiAsAJwTaS+RByJrV96THshH9rhFuU/cQpp8ektzvWAaELheKnkRZ6DeNMAbTQ0SudjYOyG8krfAw28koou5IAgBXk1b4YhyQHWhc7qXfNEIPpscx/fQgK4Go+jBdvNxwi7zaLzEWWfSyRhiD6XFY47DzhuPtBIAndMsepD8s4/QhANgqMOwXrHTkjTggC8sN2Bu8fZwRRi9rhB5Mn8Oaa+1kP/9+jXMsEQDcZP83ilwtLGiqfUuVNUIPps9hB9d6Mb29Z6iyRhjkRRBEGWhgEARRBhoYBEGUgQYGQRBloIFBEEQZaGAQBFEGGhgEQZSBBgZBEGWggUEQRBloYBAEUQYeFehzqnzOpV+YaPJpNFkvj0ZoYPoEWSd1TT+FspzU7TWGxpY12j5gDz48IK7RRPNejeanlzW6PI2nqbsGT1N3Ry/XGukVJpr5ajQ/TV69PJ2PRv1kYJQ1Fi8ThuPpumUf1C17FAB2F9BpsFMtbSZphRfjoNF3dXg3Y2jM07cP2AcfHihWo5uL4cytxfDi5Wl1GlXZwBgA8GuOS8LI1UYUTqlw+q3eaxWZaJZTo8m6Go0qa2Bg+QuVcnw8jlxtm8LpFAb1WvqxYn2VoF7L3rHyazRZl6vRV2UOljeGQ45yBMCoqD9JWnP/onhauWE4nkGXQ4ZD6BvxP5Y4aG8CwHHDIY8AwPWkNfdF0RPKi6Exz6DLob1j1dBo79iyRrcW5WhUdQ/m2hpbdusSB2QPa4ZVeQzH22045BL9z6LnIsDhyNXOFj0J1QyNebv3jlVXo8l6do2qnmjH6849pmgeuaFbw1tNP/UqbFwo75h++q5uDaveNSmE7QPDWyeaqVdh40J5Z6KZvrt9IJtGVfdgJgHA5bik8jtJpp9eAIDRouchiRsAsKfXGuBPNHtPo8m6mEaV9mDigPDu5e9WNBXl6NbwN9iSsFceXGCZqddNPz1BPbOiJ5OV7QPD35ho9qZGE830BPXMeC+utAdjON6g4ZBrnJftqNpuBtuSv15AvkSenIpc7YWiJyHKRLM/NJqs82lUaQ9GIAYDVXu7MOMyq/DBpX/D0wBwBABGAGBb5Gpa54f92wH6cClunXGUnYuqHMy45KrRZF3TOj95asTORXVNpT0YWP4CXgKAOsclcXvK3pG05kq/7qfLotp4GEp8cBMAaMYBCdlD+2EcNLh7I1PPEQCeMBwyBACOzPklrfDp9tTIRUnjKYcui559Tb5G89N3Nbo8za/R0NiyRnvH5Gt0czF8+q9f6k6jXjAw1CO5wHNNHJDDcdAo/TYp7zb8JigLcJt++jx7e8qAfpkerUrgl8VcpGk0WVej0URTvkbdBH6rvkSCyNVmAIArt8VwSKmXSWwr+oKEBzdOWuErcUB2qNw9i1ztjTgg2+Jg6e/azDgcfdNe063hr0uanhLYVrQUjW4uhq/MT5MdqowLZbKuvTE/TbbNT8vTaPvA5hpV3oOBuzVNeIO9u1hLztJh+qkHAFlPfhd2epx5le9mzAE5F7naMxKnJZWJphyNJuvFaDTRlKPRZH1jjSrvwcDd3r2fcF52wXC80iV6GY63GwCOZxhiIWmFTpGlKahXGQdLa3/qXd4RHOYptvQqHUNj2TW6uRg6RRkXWPZoZuans2vEll7r0hMeDIi/9aM4II/GQSNRNC0uDMczDId8luGtMhO52gHJ08qEQDLkal6IXE1W7CAzQ2OesXcsm0aT9XJpNNHMrtFkfW2NesKDgeXArchyh3owwwqmI8r+DA9uHAekdFnKcUAaGbdOPWp4JU4pK5k0mp8un0bz09k1ooZ3rf+h0qepV3Fz628d/i7vdpxu2Y8AwHtJa07UTZQCK7lwBgD+g8Dll+OADItsOauG/V3PJq3wU92yqUv+m5xD6HSY2788O6doil3DSi4IazQ/TYZFtpxVc2txWaNbi+GnDw+Ia/Q//8f9GvXMEgmW3XHqkXwmcGnhSwvTT+nyzhO4NGbLvNI9uKvJsJ1dilo+E01xjeanyaNlNC6rybCdHU/W79eoZ5ZIsBxcjFjQipfR2vhsYQFFVonuhMClM1UxLpT2lP0Tttbn9RYN00/fVTStrmCV6IQ0qopxobz3krhGE837NeopDwaWlxq24RCeWr0dEnayN9eta7Y0+leBSxciV9ulYErKYcbiMO91cUB2xUEj99QCtjQS0miyXk2NmLHg1mh+muy6PH1Xo57yYGBpzR9eZuc2eKHryCu18dnvK5jW+je17IMi1yWt8EX5s8mH9pTdYNmgXOiW/ayaGW3M9gExjW4uVlej914S02j7wL0a9aCBmbvDslZF2jLoumVP53nojlX/56XRnhr5OwXTyYWkNUeXsvt4r9Mt+yk1M9oYVv2fl8Zfv1RdjW4timn08MC9GvWcgVnBOcHrqCczm6OR4a1RE/dCfye2FOUtX2qyQH7ecGtUZBKdLCbrYhpNNO9q1LMGhgUURdfrBgBcq43P/qnkad0Da4rGta2etMI31c0oX5JWKLKUPalgKuvCmqJxaXRzsXc0urmYTaOeNTCscv1IlgQi3bJfMf10VmGil897QdIK/0rNVPInaYXnWbdBHkYNx8uzqBO3RrcWe0ejW4tiGg2NLWvUswYGlt3wOA7IvoxZiku7UobjHdStYWn9bFivaF53/3QvdUpkRzSeYTt4PHxb0ZTugfWK5tZIZafEvLk8nU2jnjYwsPwQtyWk0A8aDjlXGw+56s5swhOcn0+qXrB8LSJXa/LGywyHPK5uRvfArZHKkgtFMVnn12jv2LJGPW9gYNnIXGW1SrImO9VNP/216acXDMfbn2Ug3bJ5g8hZa3iUFnZeiecNmUsAfvsAatSBnVfi1qgvDAwsG5mLcUBkRPaN5TgAmTH99DNW+4QbXgPDylz2JGzZx7OM3alwOl/yMKeBYWUuexK27OPWqG8MDOOs5KLIdH1+gXo0pp/ybmXyBip7Zl2/Djy/X15b1ajRvXBr1FcGJg4aSRyQPYLboxtBvZgrpp9eN/30Um18dtJwvEOG4z2+QVGrhzjv8aGEeZaWOCBc+Ramn9rqZvMlqNEK5qf5NJpopnZZG3ErY3nnonHM9FNd5KzFJlC3cKdu2XXduvv8G87Syixa9QbgaWIViR5onGimdQB4ji3tYgB4mwXtMjM05g3uHSPPr/Ao5uanyWnBg30fc36e/oGFlyTsfNFuptlqT+Vr7N+5NKrKgcYMcGvUdwamQ+RqRwzHe8NwyF8CQB67EmYG157LIGwfGN6yfcD+4d4xcniNLNTRiWZ6dX6anLm1GP4VqwXCxfaB4a8/+1r4CvPcVm7d29Tg7B0jp997yf7xrcW52xzD8n45hfqMM6NIDe5TAPCAyBjr0LMB3hVwa9RXS6TVxEFjIQ7I7yhuViUDLtd7+4D9LP2Sb5Divpv+76sPpnXLs6+FrwPA06uMSwfqKbnPvhZyZUHHQYP37Bh38iMzLtcA4Khk4wK9vjyC5UAvt0Z9bWBg+cGOI1fblbTC4wIZi3nBFTzcO0a6Kkjd7edWwlLnv9vFR492sjk54Pk9uWMwe8fIf+G9hoNeD/B24NKo7w1Mh/bUyBsAsEPgcFcedO1hsdae3W6vDvK2AmWp890srY29Y+Qo59jKvqTsAJ6javwKeMGy4NIIDcwK2NGCA1mChyrg7HLI+2bn/TxPHKlMBdWVJud10+WwH0EDs4o4aLQjVxuJA7ILAN4ROINRNLyxia4/PzTmSTuLVQCVbKxfddDArEMcNBYiV/sDAHiwYjsEvN5X159nB9943tRlikv0yxKmVKCB2QS6PIlcbR/1aJJW6LMHNVevhiepjCVDfd7lxz/nTZ7iKF+QzE+TNzjHVlaGgaXxK1vGTDRzSfwrA1waoYHpEurRtKdGJlih7QdF6oRkoOtlDPMy3uny4++wz3fNZF17tctypDMriz93Cc8ZI66xL0834gxVDruhTM3hVMKlERoYAZhXMxEH5DfigAzFwdJ27xn20KvI5uQKlr73kv0XrLfNem9s+u+n2Oe4ubkY/mgDI3OHGpf3XrJf5hlToIgU99+ZFbIWaWvTDWUKaCtBIO2g3beZvDJgBZN+QX/ioPHlv9Mvi+EspaE/wZLdjIxBRi73+9bi3O3JuvYCALww0UzfYollHU5nrVny1y+N0N/50YlmeoL10Om8vSP6/0/WtfMCw/KekOZObLu1ONeerGsH2Nb8+5JPZffDEolbIzQwClguctWY2ehtafppyjGksHFixkRJESS2XHpV0nBf4/y8cDxlsq4tDI15u9hZJH2tmNpkXQsnmvloVCG4NUIDUxxf8KSrG443WETTsbzIuwDX5elGcnm6sdkOGpdGQ2PeoEDcqTKIFODCGExxfML5ed7yjZWC08DEkauJ9L3iBTVaAWcBrniyrt1AA1McXF8QwyFD6qZSLKxrA8/vx/vFF4VLo71jvavR0JiYRmhgCiIOCK8rrfIcTaEYztIuHE/tlVwMzPw0atSBHYzl1ggNTHHwPrw100+fVzSXwmDtW7h+L97qdxng1mii2XsasfYtXL9XJ4ETDUxBxEHjQ4GdkFMKm8AVguGQtwSS1HKpvXJ5WkwjtpzoGfaOiWuEBqZYRJK+eiahi9Ur5s0fiQWKU2WhrzUaGhPTqFOcCg1MgcQBeZX3XJPhcNdYKS26ZT8ncFmuTeXnp/k1EqiDU1q2D2TTSJM7HYQX00+vbFDacj0ORK6mKuU9F0w/pS73r9Ypu7keceRq2xROa00mmmIaTdarrdFEU0yjyfpdjdCDKZikFYocwHvXcLxvKphOLujW8AMAcInzwaV8oGhKG3JzUUyjobHqarR9QI5GaGAKJmmFFwUuMwyHvKJgOrlQGw//UMAjoEvKQgzMrUUxjfaOVVejZ18T02h+mqCBKROsbapIXOG7pp9OGk61qsyxnt4vCly6kLTCOQVT2hTWNlVIo4lmOlm1SoBDY+Ia3Vq8VyOMwZQE009nBU/kLsQB2cNOdpcaw/F2Gw65InAp/d0e5KxNLJ2JprhG89NkD2/tnSIYGvN27x0T12h1bWL0YMrDEcHrBgHgoOS5KMFwyAnBS68WbVwYPa/R3jFxjdYqfI4GpiRErkbd8GmRaw2HvG766fO6NVzK0/HUczH99ALrBMlN0gpPyZ8VP5N1cY32jpHXJ5rp89sHyqkR9VwmmuIa3VxcW6OvZp4ZIpPrumX/kcB1vwkA9a2/dfhf4qDxCwXzEsZwvP2GQ4IMxZ1mPn91R0PytLJw/eEBcY0Gfufwv1yeLpdGQ2Pe/r1j2TR669DaGqEHUyJYhuphVnZShFdMP31Xt4ZFe2BLQ7eGHzD91DMcIvTGZ5yJA/KMxGllhmWoZtJoopm+u32geI22Dww/MNFMvb1j2TSan15fIwzylhBqJNhDLEobAPZFrlZI8SOWRHdJZJtzBVcjV9sjcVpSoUZChkaT9WI0Ykl0mTWarG+sEXowJaQ9tVScOst5mxoAXDP99EptfPZQXlvZhuOZtfHZSZb9meXBTVgh9dLCCohn1miimV75wWuzh/Layh4a88wfvCZHo/npzTVCD6akMC/guqReQTEAPBO5mpIGcobj7WSnomUUvk4AYE9R3hcPzAuQqtFkXY1GQ2PeTnYqWppG3Xhf6MGUFLYtK2v3hH4RLtClFzvBLGdQxzNMPyUst0VWVf1mFYwL3O1HLVUjuvRiJ5ilMDTmGRPNlLDcFmkadbu0Qw+mxOjW8NbaePjnrO2ILBc6YYWUIla46WO6KtusBALrW7QTAL6mW/Ygq6E7xFnlbDNm2lP2saQ1p6K3lBK2DwxvffY1dRqxwk1LGnVKIKwH61u0pNH2AXuQ1dCVrtF7L9nHbi12pxEamApg+kt9fK5IfIDXI1qjn3RNcv+g9ZiJXO1ADvdRAuu11PMaTdb5NEIDUxFq47P7dcs+rbJ/c0HQt3Wzap7LWvzgtdn9Dw/0rkY8nksHNDAVggV+r9H/LHoukqhMQLdbWOC35zQS3U7HIG+FiFwtbk/ZDmviLproVRauxgGxe8m4AAv8vvdS72g0P03sLLk66MFUFNZhoBRndAQ4E7ma6MHBysA6DFRWo8l6do3Qg6kokau9AQAvZOnRXBAzcUCU9MouG5P16mo0Py1HIzzsWGHioHEVAN6m6+Qt28zBHHYwRKHr+MtJKzz++as7GklrrupLh665PH1XI+Nr5dfo5mJ4/K1DOxq3FuVohEukHkLCGSYV0PX7SEnquRSOhDNMKljSaK16LllBA9NjGI43qFv2s7plP1XgTgZ9UD+IA/JB0grnktZc6Su55cnQmDe4fcB+9uGB4jWanyYf3FoM524tqtEIDUwPY/opfXhPihYREoA+tITFh5AumGgWoxGLDykHDUwfwNL8v2045HFWvnGnhDdnzBqcf8KOHHyYc8fFnoKl+X9775gajdiRgw83O24gGzQwfYzppzY7APcYO2y33mG4BVa/pNOruRm5GhqTHJhoims0WS9eo/8fAAD//7BDnqfZ2hPbAAAAAElFTkSuQmCC;" vertex="1" parent="1">
          <mxGeometry x="770" y="810" width="70" height="70" as="geometry" />
        </mxCell>
        <mxCell id="GIJtF38X3H_XDyXdE6d2-33" value="AutoScaling" style="text;html=1;align=center;verticalAlign=middle;whiteSpace=wrap;rounded=0;fontStyle=1;fontColor=#8c4fff;" vertex="1" parent="1">
          <mxGeometry x="953" y="490" width="90" height="30" as="geometry" />
        </mxCell>
        <mxCell id="GIJtF38X3H_XDyXdE6d2-51" style="edgeStyle=orthogonalEdgeStyle;rounded=0;orthogonalLoop=1;jettySize=auto;html=1;exitX=1;exitY=0.5;exitDx=0;exitDy=0;strokeWidth=2;" edge="1" parent="1" source="GIJtF38X3H_XDyXdE6d2-43" target="GIJtF38X3H_XDyXdE6d2-27">
          <mxGeometry relative="1" as="geometry" />
        </mxCell>
        <mxCell id="GIJtF38X3H_XDyXdE6d2-43" value="" style="shape=image;verticalLabelPosition=bottom;labelBackgroundColor=default;verticalAlign=top;aspect=fixed;imageAspect=0;image=data:image/png,iVBORw0KGgoAAAANSUhEUgAABLAAAASwCAQAAABBKHtEAAAABGdBTUEAALGPC/xhBQAAACBjSFJNAAB6JgAAgIQAAPoAAACA6AAAdTAAAOpgAAA6mAAAF3CculE8AAAAAmJLR0QA/4ePzL8AAHJJSURBVHja7d13nFXVofbx3wy9gw0FsVIUG0UURAULduxixy62WNI0pqg3xZKmJhprYknsXcECChZURIoNu1ioAtI7zLx/hNeIUmbm7LPPWnv/vvO5N8m9cebsZ+1zznPWXmdtkCRJkiRJkiRJkiRJkiRJkiRJkiRJkiRJkiRJkiRJkiRJkiRJkiRJkiRJkiRJkiRJkiRJkiRJkiRJkiRJkiRJkiRJkiRJkiRJkiRJkiRJkiRJkiRJkiRJkiRJkiRJkiRJkiRJkiRJkiRJkiRJkiRJkiRJkiRJkiRJkiRJkiRJkiRJkiRJkiRJkiRJkqTClBmBpBSV0wyoR0OgMXWA5lV+HVrEQgBmArCQRUAlswxVkgVLUrZeQZrTiEY0XvGvTWhGIxrSjCY0ohHNqUNjoAH1gabUKtojWcBiKpjNYhYwl6XMYjELmMdSZrKE+cxnCTNZyjxmMpvZLHPwJFmwJJVSI9ZlXdZn3e/8rM+6rEejaI9pHrOZzSxmr/jXmd/+u9nMYjqLHXZJFixJSb0itKQ1rWlDKzam1YoaVT+HScxlKtOYznS+5uvv/OsCTxJJFixJa1KL1rShNa3YhFZszMZsRF1jWaMFTGMq05nGV0xmApOYyFQqDEaSBUvKsxZsQ0e2YAu2YGsaGkgiZvIZk5nEZCbxGZOZwGxDkSxYkrJsQ9rTbsVPWxoYSEqVaxLjGc94PmM845lrJJIFS1Ls6tKOrnRkG3ZiA+MIonB9tuJnMpMYt2LDCUkWLEnBa0hnutGNrrQt4oYIKtwyJjCeT/mAcXzAF67hkixYksLTnp70YCe2obZhRGgBH/Ah7/EB7/MxSw1EsmBJKp3adKEnu9HTi4AZspTPeI8PGcf7fMB8A5EsWJLS0YjO9GRXdqOZYWTcZEYxilG8xnTDkCxYkophI3ajJ7uxveurcqeSzxjNaMYwmmnGIVmwJBVuHXqzJ3uytVEI+IoxjGY0I5liGJIFS1J1NWQX9mZvOlNuGFqFybzCcEbxBksMQ7JgSVqz+vRgT/ZkJ78TqCqZxwheZhgjWGQYkgVL0vefjZ3Yj73Yxd3WVSOLeJ1hFi3JgiXpv9ZlT/bmADY2CiVStF5hCEMYZRSSBUvKo3I6szd704s6hqHEjWcwQ3jOG09LFiwpL9anN3vTl42MQkW2jBE8yRBGU2kYkgVLyuozriuHcACdfe4pZRN4hmcZwiyjkCxYUnbUYw8OoS+tjUIltIxXeJzH+NwoJAuWFLcW7E1fDvbGNgrIOJ7kKYZ72VCyYEnx2ZR96cs+1DUKBekLnuUpnmGpUUgWLCkGnTmcg9neIBSB6TzFYwxmgVFIFiwpVF04kqNoaxCKzAKe5XEedxG8ZMGSwrINR3EMHQxCEVvMYB7kUeYahWTBkkKoVsfS3iCUEYsYwoM8zHyjkCxYktVKStICBnI3z7LEKCQLlpSWDhzP8WxhEMq4GTzMfbzEcqOQLFhSMbXkGI6nm0EoRybzIP/hDYOQLFhS8hpwEP3Z11szK6c+4H7+xRcGIVmwpGTUogcncixNjEI5V8EL3M1D7polWbCkwnTjBI6mpUFI35rJvdzpJUPJgiXVRAuO4mw6GYS0Sl4ylCxYUrWUsydncoh3EZTWwkuGkgVLqpI2HMfZbGoQUpXN5n7+xrsGIVmwpB+qT1/OZC+fF1KNjOJ67mWpQUgWLOn/60p/TmAdg5AKMpU7uJnxBiELlpR39enHRS5llxJTwQvcwqMsMwpZsKR8as+pnOG8lVQEk7ibG/nSIGTBkvKkLodyDr0MQiqiZTzBTQyh0ihkwZKyrxUnci5tDEJKxcfcwK1u5CALlpTlM34vzuQwahuFlKrZ3Mmf+MogZMGSsqYpp3IubQ1CKpGlPMi1jDQIWbCkrNicAZxJC4OQSm4U13OP3zCUBUuKXVcu4FgvCkoBmcwtXM83BiELlhSjuvTjQroahBSgedzJdXxsELJgSTFpxsn8xG8KSkGrYBC/Y4RByIIlxaAd53E6DQ1CisJwruZJY5AFSwrZrlzMgZ7ZUmTGcC3/YblByIIlhViuLmNvY5Ai9Sl/42YWGYQsWFIoyjmQy1zOLkVvCjfzF+YYhCxYUqnV42h+RTuDkDJiOjfwN2YYhCxYUqm04BzOZwODkDJmHjfxR742CFmwpLS14iIG0MQgpIyaz438kWkGIQuWlJaWXMT5NDAIKfMl63auZIpByIIlFVsbfsqZ1DcIKUcl6w9MNQhZsCTLlaQkzeOflixZsCTLlaTkS9YNXOMtomXBkpKzCT+xXEliHjdwNTMNQhYsqVCbciknU9cgJAEwiz9yLQsMQhYsqaY24tecZrmS9D2TuYLbWWYQsmBJ1dWEc/il+1xJWo3PuYy7qTQIWbCkqmrIj7iYFgYhaY1G8gueNwZZsKS1q8MpXEYrg5BUJUO4mNHGIAuWtKYz8kj+QFuDkFQNlTzEpXxiELJgSauyN9fQ2Rgk1cBS/sVl3lRHFixpZbtyFT2NQVIB5nENf3YDB1mwpP/ahN9xgmejpARM5FK/WygLltSCi7mQegYhKTEjuYjhxiALlvKqDqfwO9Y3CEkJq+QhfsYXBiELlvJnb65lG2OQVCQL+Bu/Y55ByIKl/OjKn+llDJKKzBVZsmApN1rzG06n3CAkpcIVWbJgKfMa8gt+QgODkJSiSv7NL5hoEEpPLSNQivryFAdTxyAkpaqMHTiLurzKcsNQWiedlI72XMd+xiCphD7iPAYbgyxYyopG/IxfUNcgJJXcU5zNBGNQsXmJUMUv8f15koM81yQFoT2nsZA3/Wahiv3mJxVTZ/7mHQYlBectzuFVY1Dx+FV5FU8LrmOk9UpSgHbgFe7yPhIqHi/bqFjV/Uwep7cVXlKgytiBU5nJWC8WqjgnmJS87biJXYxBUgRGcA6jjUFJcwZLSWvAr7ibzQxCUhQ25jTW4xWWGIWS5AyWkrUH/6CDMUiKzHgGuEOWkuQKGSWnJXfxgvVKUoQ25zkeYF2DUFK8RKhklNGfJ+huEJKitQ0n8TVvGYSSeVuUCueidklZ8RTn8JUxqFBeIlShGnAlo6xXkjLiIN7hTKcfVChPIRVmF25nK2OQlDGvcAYfGINqzjVYqrkG/I5b2cAgJGXOJpxOHV5luVGoZpzBUk315na2MAZJGTaak3jXGFQTzmCpJhryW25mHYOQlGkbcQa1eNmb6aj6nMFS9e3O7bQ1Bkk58Ton86ExqHqcwVL1NOV6/uZmfJJyZGNOYxmvOY+l6nAGS9WxL7fSxhgk5dBwTuYTY1BVuQ+WqqoZ/+IZ65WknOrJKE4zBlWVM1iqml24iy2NQVLOPctpTDQGrZ0zWFq7OlzOS9YrSWJf3uVMY9DaOYOltdmef7OdMUjStx7kbGYYg9bEGSytuYBfwBvWK0layVG8x37GoDVxmwat3qY8ylnUNghJ+p7GHM86vOCtdLQ6XiLU6j+h3UwLY5Ck1XqT4/jYGLQqXiLUqqzPIzxgvZKkNdqRt7jAGLQqXiLUD+3Ls3QzBklaqzrsx1YMYbFRaGXOYGlltbmcQWxoEJJURcfwNrsbg1bmDJa+a1Oe4kRX5klStTSjPw15kQqj0P/nW6n+5whudd2VJNXQCI7nU2PQf3mJUP/VkNt4yHolSTW2M6PoZwz6Ly8RCqAjz7hpniQVqD5H0YrB7o4lLxEKoD//oKExSFIiRnMUnxlD3nmJMO+acR93Wq8kKTFdGMORxpB3XiLMtx4MoacxSFKi6nEUjRnqtwrzzEuEeXYmf6OuMUhSUYykH58bgwVL+dKYWznGGCSpiKZzIs8YQz55iTCfOjCYPY1BkoqqIcfTgKFUGkX+OIOVR8dxM42NQZJS8SLHMtkY8sZvEeZNXf7Of6xXkpSaXoyilzHkjZcI82VjBnK4MUhSqppwIosZbhAWLGXTHjzHVsYgSakrZ2868DRLjSI/Q658KONihtDSICSpRI5lOJsbQ37edpUHTbibQ4xBkkpsBscwxBjywEuEedCO59nVGCSp5BpyvKuxLFjKhv15hjbGIElBcDVWbgZaWVbGxTxFc4OQpIC4GisXb8DKrvrcwonGIEkBcjVWxnmJMLs25ln2NwZJCpKrsSxYilJvhtDOGCQpWOXszRY8zXKjyCIvEWbTmfydOsYgScF7jUP52hgsWApfXW7kNGOQpEh8Rl/GGYMFS2Fbh4fYwxgkKSJzOY6njCFbXIOVLVvyPN2MQZKiUo+jmcUIg7BgKUw9GcymxiBJ0Slnf1rxLBVGkRVeIsyOY/gX9Y1BkqI1mH7MMoasdGZloyhfzr3WK0mKWh9G0N4YsvLGrPjV458cZwySlAEzOIIXjSF+rsGK33oM4kBjkKRMaMixfMlbBmHBUmltyzC2NwZJyozaHEoZwwzCgqXS2ZdnaGkMkpQpZfSmDYP8TmHcg6h49ec2b4gjSRk1mCOYawyx8luE8bqAO6xXkpRZfXjBaxTxcgYrTrW4jnONQZIybjz786ExWLCUjnrcRT9jkKQc+IaDGW4MFiwVXwseY3djkKScWMDR3go6Pn6LMDatGMzOxiBJuVGHo/maNw3CgqXi2YZh3kZBknKmnINowPMGYcFScfTgOTY0BknKoV3ZjIHujBUP12DF40ju9nbOkpRjAzmKhcZgwVKS+nM7tY1BknLtZfoy2xhi4EajcfgRd1ivJCn3duMF1jcGC5aScTHXO9coSQK68BJtjCF8vm2HP0J/5iJjkCR96wv24SNjsGCp5mpxC6cagyRpJVPZj7HGYMFSzdTlPxxpDJKkH5jFQd5Cx4KlmmjII+xrDJKkVVrA4TxrDKFyo9FQNedp9jAGSdJq1KEfHzLOICxYqroNGMJOxiBJWuN7+OFMYrRBWLBUNRszjG2MQZK0FuX0ZTavG4QFS2vXhqG0MwZJUhWUsR/LeckgLFhas00YSltjkCRV2Z5U8qIxWLC0epsylC2NQZJULXvQgCHGYMHSqm3GULYwBklSte1qxbJgadXa8SKbGoMkqYYVqxGDjcGCpZW1ZygbG4MkqcZ60oTnjMGCpf/pwFBaG4MkqSC70MyKZcHS/7cVQ2llDJKkgvWgJYOMwYIl2JoX2MgYJEmJ2JGNGESlQViw8m1bXqSlMUiSEtOVDRloDBasPOvAUDYwBklSonakNU8ZgwUrrzbleZe2S5KKoAvr8rQxWLDyqA3D2MwYJElFsRPNedYYLFh505LnvaWzJKmIulPOMGOwYOXJ+gxla2OQJBVVL5bysjFYsPKiOUPY3hgkSUW3Fwt41RgsWHnQjCF0NQZJUir25mveNAYLVtY1YiA9jEGSlJIyDmAiow3CgpVlDRlIL2OQJKVasQ7kY941CAtWVtXjCfYyBklSyso5mLf50CDSjFzpZX0XfYxBklQCdXiAA43BgpU9ZfyDfsYgSSqRujzoIhULVvb8njMNQZJUQg14gi7GkI4yI0jFefzNECRJJTeN3VyLZcHKihO407lCSVIQPmNXJhuDBSt+fXmE2sYgSQrEu+zOTGOwYMWtB4NpZAySpIC8zt7MN4Zi8sJVcW3HQOuVJCkw3bnPayvF5UajxbQlQ1nfGCRJwWnPFjxmDBasGG3EMNoYgyQpSNvTgCHGYMGKTRMGs7UxSJKC1ZP5vGoMFqy4cr2f3sYgSQpaH75ijDFYsOJxC8cagiQpcGUcyBg+Mojk+S3CYvg1pxuCJCkCtXmA7sZQjO6qpB3Lf8xVkhSNKXTnC2OwYIWtN89QzxgkSRF5n57u7W7BCtk2vEJzY5AkReZF9mWxMSTHRe5JasVQWhqDJCk6m7EljxiDBStETXieDsYgSYrSdsAwY7BghaYOj9HTGCRJ0erF57xlDMlwDVZS/skphiBJitoS9ucFY0iC+2Al42fWK0lS9OryKNsbQxKcwUrC/jzpxVZJUiZMpDsTjMGCVXodeZVmxiBJyojR9GKeMRTGS4SFaskg65UkKUO68G/7QaG8sFWYujzBDsYgScqUrajjYncLVin9i4MNQZKUObvyMe8YQ805BViISznRECRJGVTG7exkDIUEqJo6jIcsqJKkzJpMNyYagwUrXZ14hUbGIEnKsFHszgJjqAnXYNXMhrzAesYgScq0VmzKo8ZgwUpLPZ5mG2OQJGXe9ixkuDFYsNLxDw4xBElSLuzFGD4yhupyDVb1DeAmQ5Ak5cZcduFdY7BgFVd3hlHPGCRJOTKenZhuDNXhNgPVsyEPWa8kSTmzOY9Q1xiqwzVY1VGXgS5ulyTl0KY04VljsGAVx9853BAkSbnUnc942xiqyjVYVdefOw1BkpRb89mZ94zBgpWsnXnR1VeSpFz7mG7MNoaqcJF71bR0cbskKffacZdTM1XjGqyqqMMTbG8MkqTc68ACd3a3YCXlLxxtCJIkAXvwCp8bw9o40bd2B/OYOUmStMLXdGWCMViwCtOWN2lmDJIkfWsEvVhsDGviJcI1q8/TbG4MkiR9x8a0YJAxWLBq7kYOMgRJkr5nJ75grDGsnpcI1+QY7jUESZJWYRE9GW0MFqzq68gbNDIGSZJW6WO6MtcYVs2NRlenEQ9aryRJWq123GYIq+MarNW5jb0NQZKkNdiGrxhjDKviJcJVO5ObDUGSpLVYxM68bQwWrKrZntdpYAySJK3Ve+zEAmP4Pi8R/lBTnqelMUiSVAUbsD5PGYMFa+1uo7chSJJURV35mHeMYWVeIvy+E7nLECRJqoZ5dOUjY7BgrV5bRtPEGIpuFrOYzSyWUo+GQCOas4Gbhkgq0HLGM54JfMlXTGA6s1jMfOayDIDmK97zWtCEdWhDWzrTnfWMLREj2ZUlxmDBWrU6DKebMRTFIkbwFh/zCZ/wBUtX8d8oZwM2oBVtaM9WdGBzahubpCqYwFje413G8T4Lq/nP1mJPzuFQQ0zAX/iJIViwVu1qfm4IiRvNYwzjjWrfd70uW9KJHelKF2cVJf3AfEYxgtcYwaSCf9fu/IeNjbRAlRzsYncL1qrszbNepEpUBfdzNW8V/HvKac+O9KQXWxuqlHtzeImhDOPtFRf+krEhz7Gd4RZoOp2ZYAwWrJWtz1tsZAwJeoszGJnw72zJ7vSiNx09c6XcWcDLDGUoo1helN+/Ma/T2pgL9CJ7UmEMFqzv5vAkBxpDgu5iAIuK9ts3Yj/2pw/NDVrKgfEMZCDDivia8l/78rTvigW7hKsNwYL1P+dznSEk6DouorLof6U2PdiP/els4FImLeUVBjGQ91P8aHiisRdoCTsz1hgsWP+1A69T3xgSczcnpVCv/mdzDudwuruCTsqMRQzmYZ7km5T/7qZ8RF3jL9B77Fj02UYLVhQa8qaLpxM0hl1K8tRqxaEcTm/vTiBFbR5P8zCDmFuiv/8PznIQCvZXfmwIFiy4kbMNITHL2YnRJfz769OP4+jhmS1FZxFPcQ/PVHsnq2S15wNfPwpWwT48b8HKuz48awqZ+9zShsM5ybVZUjRvx69xF/cxJ4hH8wz7OiQFm8j2qV/gtWAFZR3e9mu5CZpAx5JN7P9QZ07geFo6LFLA3uAe7mdKQI/oMB5xWBJwL8dZsPLsHo71WZCg/twd2COqw0Gcyv6uzJKCM5l/868UvyFYVfWY4hYwiTiOey1YeXU4D/sMSNBndEh0Z+XkbER/TqetQyQFYTlDuYXHVnlX0hDcxmkOUgJmsz1fWrDyqBXvsI7PgASdxc1Bn+u7M4Aj/Aq2VFLv8E/+w7SgH+OeLtBOyPPsk9993fNbsMp4igM8+xM0mS0i2PlkA07hLDZzuKTULeYJbmFIBI+0nC9dnZuQH/PXvB56frdmPNN6lbA/RrGx3NdcTVsOY3CqW6FKefcRP6U1/aKoV/+9Ub2S8Qe2zeuh53UGa0vG0tgzP0Hzac3sqB5xe87hVJo4dFJRLeVxbuKFyD7S7Jj4rerzaxTdA12dW2T5nMEq55/Wq4TdF1m9go+4kNZcyBcOnlQks7methzF89HNGL/JeIcvIV35eT4PPJ8F62J295xP2M1RPuq5XMcWHMxwB1BK2IdcSCsuiPZbZE84hIn5Ddvk8bDzeIlwe96gnmd8osbQJfIj6MGPOczdsqQEVPAk1zE08qPoxTCHMjEj6MnyvB10/mawanOH9SpxN0d/BK9xFB24mcUOplSA+fyNdhwafb2CVwLfSiIuO3NR/g46fzNYl/J7z/WELaRlQDfIKcxGXMhZNHVQpWqbxt+5gRmZOR63G032faITH1mwsqwDY6nvmZ6wgRyUqeNpwqn8nFYOrFRl47mOW1mQqWM6kKcc2AS9xm75ukyYr0uE5fzTelUET2fseOZyHW05j68cWqkKRnE07bguY/UKhmRmZj4MPTg3Xwecr4J1Prt4jhfBwAwe00JuoC0n8anDK63BcA6mGw9kcmZiMYMc4ERdma87wuapYG3Gbz2/i+A9Ps/okS3hLra2ZElrKFe78mSG74rwtIOcqIbcmqeFSfkpWGXc5uaiRfFcpo9uKXfRkQFuRyqtZBA92ZUnM36U3vI5ab0ZYMHKntPYy3O7KF7P/BEu4RbaM8A1WRJQyePsyIG8moNjnZC3772l4Bo2sWBlSyv+6HldJCNycZT/LVk/dmcc5dwz7MyhjMrN8TqHlbQm3GLBypYbaO55XRSTc3TxbBF/ZXMuYZbDrlwazp7sn7ObIA912BO3L8dZsLLjGA71nC6SN3J2vPO5mrb8kYUOvXJlBPuwaw7rxgtUOPiJ+wstLFjZ0Jy/ej5bsBI0g5/TlptY5vArF97mYLozOJfHPoMPPQES15IrLVjZcCUbej4XzcicHvckzmY7HvcEUMZ9xSl0zvy3Bf0QmbYz6GHBil83zvRcLqL3cnzsH3AoPRjuSaCMmscVdOCOnF8kG+GJUJTucQt1LFhxq83NOdutPl2zmJTzBF5nN/q5FakyZym3sCWXu9rQglUk23KhBStuF9DZ87iI3jcCKnmQbfgJ3xiFMnNO38dWDOBrowDesWQWyWVsasGKVxsu9xwuqveMAIDF/IW2XM0So1D0RtOLY/nMIFZYyhhDKIpG/MOCFa+/eXOcInMG639mcgmdM37jIGXdVE6nGy8bxEpGGUGR7M/hFqw4HcAhnr9FNs4IvpfHvvRxXk9RWsr1dOB29336gXeNoGj+TjMLVnwaZ33yMQjuEPNDQ+jCT5ltEIrKILbjAs/bVXrHCIpmI67I7sGVZfbI/sRPPHeLbBkN3GxzNdblN5xLLYNQBCbwYx40htVqwuwMv1eW2nJ2YrQFKybbM4ranrlFNp4tDGENOnEtvYyhGhawGICFLFrl//+7//e6NFrp/7fyf65PA+OskkX8kSv9ntxafMbmhlA0b7JzNi9MZ7OElHG99SoFnxvBGo2lN0dyTY5emmcxl7ksZD5LmMNyZlLBbJYyj0UsZAGLmcsy5rMEWMJ8oGLFRanZRXmBbUg9oDF1gGaUAy2AcpoBTahDc+rSiIbUoxl1aEp9GtCYOrSgHg1zMWJPcz6f+FRdq3csWEW0I6dzSzarSBYdw72esyn4F6cawlrV58f8IhPfZ53LDKYznVnMWVGl5jCXWcxZ8e/nZOzDZzOa0Zym3/40//Y/NWc91qVu5Ef4JRfyqE/QKvkDvzCEIppGe2Zl77CyOM/TmD96vqZivBFUwSL+wB1cyYmRfJxZytd8xTRmMIMZTF/xrzOYkbNdvpYxgxlr/G80ZX3WYz3WZV3W+/bft2TdCI5uCX/mdyzw6VlFHxhBUa3P5Vnc1z2LM1hXconnaypO5N+GUGVduZZdg3tUM5nMpJX+5wuWO1gFqce6bMQWtGKjFf+z6ffWi5XaMM51i5Vq2cV7jhb9A02X7H1bM3sFqx3vUM+zNRW7uyFhNZ9tx3EVG5f0MSziUz7h0xX/+yv3nk/JhrRmS9rSjna0Y4MSPpKJ/JgHHJBq2oCphlBkQ+hjwQrdQA7wTE3J5i5zr7ZG/JyfpfoNt2V8wjt8sqJSTaTSQSi5prSjLW1px9Zsk+Ls1lKu4wrmOQA1MCvLG2IG4vCsrQnMWsE6iCc9S1NSSYMVX6pX9WzCNfQr8nNvPqMZydu8w7jVbHmgMJTTlh3YgR3pXuS3cC8MFuJNuhpCkY2no69W4arHx1T6k9LPdE+4AuzKm0UZlQ/5J6ezvduURFm1tuE07uTLIpwXkzjOrTILcq+v+Sn8/MoTLVyXeoKm+OPtIwp9Oz2VyQmNxVJG8BcOK+naHiWnHQO4n6mJnR1/pamhFui3vuan8DOvxGtUtVobM88TNMWfZzzlCtaIy1lY0MvRK1xFX1eHZNQWnMkDzCjoefoy2xtkAk73NT+Vn3s81cJ0jydnqj93eMolYkserXb2E7mf8+nivQ5zoRY7cTHPMr/a58kUTvLCYEL29TU/lZ8KdvNkC8/OVHhypvrzB0+6xOzB2Cpl/il3cSbb+KaZS7XpysUMZlGVzpXl3BXFlqex6Ohrfko/Y/zgGJoyXvHETPnnR552ic5SnM201SS9mOFcQ1/fLgVAQ/bhKkawbA3PztfobFCJauJrfmo/AzzdwnKUJ2XqP/087RLWgr+y5DsJz2Qgl7Ib9Y1Gq9CMg7mWt38wdz+N05zjLIKZvuqn9DPVL2WEpB6felKm/rOXJ14RbMUgvuQ/nMN2lBuHqmAD+nETH624MHgT6xhJUbztq35qP7/NximTjc85P+FPPvtT15mxhiAFow178D4jDaJIBrG/IaRkAe2YFP9hZOEz8rpuTlYSM4xACshX3GW9KqJJRpCahvxfFg4jCwXrcpp7PpaAO7lLyg9v95ymk9nWglV6HfzGQUksZKEhSMqNaUaQolpcZcEqvT9Sx3OxBLxAKClPnMFK14Hxf5Eq9oLVm76ehxYsSSqyr40gZX+KvaHE/fDL/PZgyXxjBJIsWCqaThxtwSqdfnT1HCyRmUYgyYKlIvoD9SxYpVE7G1/kjNRcI5CUI9OpMISUbcY5FqzSOI32nn8lM8cIJOXIcj9WlsCvY74zQbwFq4Hbi1qwJCk1s4wgdS242IKVvvPZ2HOvhPwsJ8mCJd/rM1ewmvNzz7uScgZLkgVLxVafX1qw0nWJd4y3YElSimYbQUmcxhYWrPRsxI8850rMS4SS8mWWEZREnVjnsOIsWJfR0HOuxJzBkmTBUhr6086ClY52nOr5VnILjEBSrjhvXyq1ucyClY4rvL1zABYZgaRcWWgEJXMsHS1Yxbd17Hcn8qVGknzVU7W6yuUWrOK7LPb7a/tSI0kRcmFEKR1JJwtWcXXkKM+zIHiJUJIfK5WWMq6wYBXX5c5fWbAkyYKVOwezswWreLbhCM8xC5YklYCXCEvtcgtW8Vzh/FUglrHMECRZsJSi/ehpwSqOHTjc8ysQTpVLypulRlByv7VgFcfllHl2BWKJEUjKmQojKLk92M2ClbzOHOK5FYzlRiDJ1z2lLqL7EsZTsJy/CokrsCRZsJS+felmwUpWZ/p6XvlCI0l+sMy5Sy1YyfqF81e+0EhSCbkGKwyHsJ0FKzlt/f5gYJzBkuQHS5VCGZdYsJJzKbU8pyxYklRClUYQiKNpZ8FKRhuO93zyk5wklZQf9MMZiYstWMn4GXU9nwLjDJYkC5ZKpT+bWLAKtwGneS4Fx6lySRYslUodfmbBKtyFNPRc8ryRpBKrbQQBOZ1WvlEWphnneB75SU6SfN3Td9TnQgtWYc6jmedRgNyVTJIFS6V0Fs0tWDXXkAs8h3yhkSRf9/Q9TTjDglVzp7G+55DnjSQFoIERBOaCsPcYCPmNspbzV8HyEqGkvGlkBIFpzTEWrJo5nC09fzxvJCkIfqM9PD8L+eN+yG+UP/bcCZZrESRZsFRq27KPBav6dqW7506w3FtfUt54iTBEAW84Gm7B+onnTcDqG4GknHEGK0R70cWCVT1b0NfzxoIlSRYsrVGw0zHlwQbmKp+Q1fN7hJJypqkRBKkfm1qwqm4dTvKcCVoZ9QxBUq6sYwRBqh3qlk5hFqyzXEwYPC8SSsqXFkYQqNPDvKleiAWrHud5vliwJCko6xpBoJpwqgWrao5lI88XC5YkBcUZrHCdG2KbCbFgOX8VAy/iSsoX12CFa0sOsGCt3a509VyJQDMjkJQj5b7qBe1HFqwoQ5IFS1LObeA9WIPWh60tWGvWisM8TyxYkhTcu5NCVhbe8qLQCtbZ1PE8sWBJUmBaG0Hg+of2vhRWwarLGZ4jFixJsmCpmhqHtllDWAWrHy09RyxYkhQcLxGGL7DNGsIqWG7QYMGSJAuWaiKwzRpCKljd2NnzIxrrGYGkHPESYQyC2ocgpILl/FVMNjQCSTmypRFEoA8dLFg/tD79PDci4mo5SflRm80MIQJlnGnB+qHTvbtdVJzBkpQfm7mFUCROCqdLhFKwysK8F7ZWq7mFWFJutDOCSKzLERasle1NW8+LyHiRUJIFS6EZYMFamRuMWrAkyYKlQu1GRwvW/6zHwZ4T0dnECCTlxPZGEJFAFrqHUbBOo55nRHT80rKkfChjB0OIyEk0tGD9/1P3NM8HC5YkBftq570rYtKcIy1Y/7WnV7ctWJIUrC5GEJkgFrqHULBc4B4nv/cpKR86G0FkdqGTBQvW51DPhSht7E5YknKhqxFE53QLFpzkAvdIldPeECRlXl12MYTonECDvBesshBapmpoRyOQlHk70cgQotOMw/JesHYJ6c7XqqZuRiAp8/Y0giidnPeCdZLnQMScwZKUfXsYQZT2KvV22KUtWA3o5zkQse1dPycp4+rT3RCiVM6JeS5Yh7p5W9Tq+uVlSRm3k9+XjtbJlOW3YJ3s+EduHyOQlGm9jCBabemZ14LVmr0c/8gdYASSMm03I4jYKXktWP2p5ehHbidvmCMpw2q7Aitq/Wic14Kl2JVxvCFIyqwuNDGEiDXm8DwWrO5s5dhnwFFGICmzdjCCyJ2cx4LlDljZsC1bG4KkjPL1LXa92SJvBas+RzvuGXGEEUjKqI5GELkSLmQpVcE6iBaOe0YcZASSLFgK1HF5K1jHOuaZ0bn09yyXpCKow8aGEL2t6JKngtWU/R3zzKjrDbslZdK6pd0JXAkp0ZROaQrW4c55ZIp7YUnKooZGkAnHlKbrlKZgHed4Z0pzI5AkBWpjds9LwdqAPRzvTKljBJIyaJ4RZERJpnVKUbD6UdvRzpTZRiApg2aw3BAy4Ujq5qNgHeNYZ8xEI5CUQcv5xBAyoUUpvlqXfsHalF0c64x51wgkZdIYI8iIEnyTsLwEB+nXXrNWr74xBEmZNNQIMuIQmma/YHmBMGueNQJJGTWICkPIhPockvWC1dF7k2fOf4xAUkZN4AVDyIjUp3fSLlhHOcYZM9o1CpIy7CYjyIi9096zMe2CdaRjnDF/MgJJGfYIYw0hE+rSN8sFqx3bOsaZ8ikPGoKkDKvkckPIiCOyXLCcv8qan7PMECRl2uO8YQiZsF+63yRMt2Ad7vhmylAeMQRJOfgoWWkIGVCPA7JasDajq+ObIcu5yBAk5cCL3GoImZDqdbQ0C9YRbjGaKbfwliFIyoWfMcEQMmB/GmWzYHmBMEsm8StDkJQTczjXEDKgYZr3JEyvYLWiu2ObGZWc7g1yJOXIE9xjCBmQ4jcJy1M8qHJHNjNu5mlDkJQr5zDeEKJ3EA2yWLCUFeP5uSFIypnZHM0SY4hcY/ZJ60/VSunvrMf1zmBlxHIO4RNjkJQ7k1hCH2OI3BIeS+cPpVV6DkityqnYruYVQ5CUS3/iOUOIXGp9JK2C1dcxzYiXuMwQJOVUBf2ZagxRW49dslSw6rKvY5oJX3OcN8eRlGNTOcl93SOX0pRPOgWrN00c0Ux8djuRicYgKdee5TpDsGCFUrC8QJgNv3P1gSRxCWMMIWJb0T47BetAxzMDhvF/hiBJLOZo5hlDxFKZ9kmjYG3L5o5m9KZwLMuNQZKAj/mxIViwSl+wDnYso1dBf6YYgyStcCv3G0K0dmXdbBQsLxDG7/cMNgRJ+o5zmGQIkaqVxk2fi1+wNvAmz9F7iSsMQZJW8g1nGkK0UrhIWPyCdaC3yIncNI5z9ZUk/cBA7jWESO1H3fgL1v6OY9Qq6O/eV5K0SuczzRCi1JTdYy9YtdjLcYzaNTxjCJK0StP5kSFEquh3mCkr8u/vwauOYsRGsBtLjUGSVuthDjeECL3D9sX9A8WewfIehDGbw9HWK0lao/OYaQgR2pbWFiyVygV8YQiStEaT+YkhRKiMfWIuWC3o5hhG63HuMARJWqs7eNkQIlTkKaDiFqw+1HIEIzWNAYYgSVVQyQVuZhOhfYrbUYpbsLxAGK+zmGoIklQlY7jVEKLTgh3jLVh9HL9I3c4jhiBJVfZLphtCdPaLtWBtSxtHL0rjvU+8JFXLN/zaEKJT1OtsxSxY+zh2UarkFOYYgyRVyy2MMoTI7ESLOAuWK7DidBsvGoIkVVMFP6LSGKJSi71jLFj12M2xi9AULjYESaqB17jfECJTxKmg4hWsnWngyEXoAvcklqQaupQlhhCVPWIsWHs4bhF6mgcMQZJqaLzbNURmCzazYKn4FnCuIUhSAa5griFEpWhtpVgFqz47O2rR+RXjDUGSCjCNvxiCBQugrEi/d0+ed9QiM4qdvdmDJBWoCZ+wgTFEY0Kx9uws1gyWFwjjc6H1SpIKNpffG0JENqadBUvF9CCvGIIkJeAmPjeEiOwZU8FqSDdHLCpL+IUhSFJCr6hXGUJEijQlVJyCtSt1HbGo/IVPDUGSEvJPvjSEiApWUdajlxfpwSomX/tpS5IStNTvEkZkAzrGU7B6O15R+Q2zDUGSEnQLUw0hGkVZhVWMgtWQro5WRN7lNkOQpEQt5M+GEI2iXHcrRsHamTqOVkR+6fYMkpS4G5luCJHYrRirsIpRsHZ1rCIyhicNQZISN5+/GUIk1qN9HAWrh2MVkcupNARJKoLrvS9hNHrGULDK2cWRiobzV5JULLP4lyFYsJKzHc0cqWg4fyVJxXOta1wjUYTFTeUxPEgVifNXklRM4xloCFFol/wNupMvWD0dp2g4fyVJxXWdEUShLPnlTckXLFdgxeIt568kqche4C1DiELi00NJF6zWbOooRfO5yvkrSSq2640gnwUr6a21juUeRykK02nDImOQpCKrxxe0NIbgLaU5C5L8hUnPYLkHVixusV5JUgoWc4shRKAOOyb7C5MuWDs5RpE09X8YgiSl4nYqDCECCV8kTLZg1aWTIxSFh5lgCJKUii8YbAgR6B5ywepEPUcoCt4hS5LSc7sRRCDha3DJFqwdHZ8ojOJVQ5Ck1DzONEMI3oa0CbdguQLLz1KSpO9bwl2GEIFuFiwV9kR/wBAkKVW3uvOgBavmmtDB0YnAU8wwBElK1YcMN4TgJTpNlGTB2rEIN95R8u42AklK3W1GELyuSfaYJCvRzo5NBL7haUOQpNQ9xHxDCFyzJK/EJVmwujk2EbiXxYYgSambz1OGELwEm0ySBcsl7jHwAqEkleoDrnJUsJK72XNLpjgywfuEdoYgSSVRj8m0MIagvZHccqfkZrC6OC4ReMwIJKlEFvOIIQQuwTvSJFewtndcIuAKAEkqHS8Shq4u24ZXsDo7LsH7xn1YJKmEhjLREALXKbyC1clRCd4glhmCJJVMBQ8aQuB2CK1gNaStoxK8gUYgSSXlrcpC1ympX5TUtwh78KqjErilbMAsY5CkEipnAhsZQ8Dm0DyZ+0YmNYPVyTEJ3kvWK0kqsQq/bBS4pmyeVJdOht8hDJ8XCCWp9J4wgsAltAorqYLldwjDN9QIJKnkBjPXECxYVVWL7RyRwM3mHUOQpJJbzBBDCFqnkApWexo6IoF7ieWGIEkBeNwILFhV5fxVDAVLkhSCgX7gDdomydwxMpmCtY3jEbwXjUCSgjDdjY2CVpbMKqxkClZHxyNwcxljCJIUiEFGELREdkawYOXDcG+SI0nBGGwEQUuk1SRRsOrQztEInCuwJCkcY5huCBastWtPHUcjcCOMQJKCUcELhmDBSumBqIgqGWsIkhQQLxKGbF1aWrBUFV/wjSFIkgVL6TWbJArW1o5E4PwGoSSF9sH3Y0OwYK2Nu2BZsCRJ1fOcEQQsgamjwgtWbb9DGLyxRiBJgfEiYciCmMFqSz1HInCjjECSAvMSFYZgwVqTrRyHwE1jkiFIUmBm8r4hBKsl65a+YHmBMHSuwJKkEA03goAVPIdlwcq+D4xAkixYsmApWR8ZgSQF6BUjCFhbC5YsWJIUo8+YaAjBKrjdFFqwGtLKUQicm9lJUpheNYJglXwGqy1ljkLQFvOVIUhSkFyFFa4tC21IhRYsLxCG7hOWG4IkWbBULfXZ2IKlNfnQCCQpUG+xyBCCtaUFS2viCixJCtVS3jWEYBXYcCxYFixJUqmMNoJgOYOlNfrMCCTJgqVqK/B7hIUVrEa0dAQC530IJSlco4wgWCW9RLipmzQEb4IRSFKw3maJIQRqy8I6TqEFS2GbyXxDkKRgLWGcIQSqwK3ULVjZ5gVCSQqbFwnDtYUFS6vjBUJJCpvL3MNVUMsprGBtZvoWLElSAd4xgmBtUrqC5QyWBUuSVAjXYFmwLFgRmmgEkhS0GXxtCIEq2SXCumxo+hYsSVJB3jcCC9bKNil4H3gV2xQjkKTAeZHQgpXkH1YqZhiBJAXOGaxQNWQ9C5YsWJIUJ2ewwlXAMvfy0vxZpWIJ8wxBkixYqqHNSlOwWpl84KYbgSQFbzIzDSFQJZrB2sjkA/eNEUhSBD4ygkAVsBjKGawscwWWJMVgvBEEqk1pClZrkw/cNCOQJAuWaqyAqaSaF6zarG/ygXMGS5IsWKq5AhZD1bxgbeg2oxYsSZIFK9MFqyz9guUS9/C5yF2SLFiquXo0T79guQIrfHONQJIi8CXLDSFQNZ5OqnnB8juE4XObUUmKwVImGIIFq+A/KQuWJGklXiS0YFmwLFiSJAuWBatYBWtDU7dgSZISMckIAlXjtlPzgrWBqQfPRe6SFIcpRhCoEsxgrWfqwXMGS5LiMNkILFj/37qmHrz5RiBJFiwVIPVLhPVoaurB8xKhJFmwVIga3xawpgXLC4ThW8xSQ5AkC5YK0IJaFiytzBVYkhSLRcwyhCCV1/RmOTUtWK7ACt9CI5CkaLhRQ6hqOKXkDFZ2LTECSYqGGzWEqoZTSjUtWO6CFb7FRiBJ0ZhmBIFyBksWLEmK1kwjCFTKM1iuwQqflwglyYIlC5YsWJJkwVJgUr5E2NzEg+clQkmyYKlQKc9gNTPx4DmDJUkWLFmwlDBnsCTJgqVCpXyJ0IIVPmewJMmCpUI1t2BpZc5gSZIFS4VqkmbBKqexiQfPWz1LUjxmG0GgmqZZsJpSZuLB8xKhJMVjgRFYsNykIQ7LjUCSorGYCkMIUm0apFewXIEVg0ojkKSoKpbCVKM5LAtWdvlZSJJistAILFgWLAuWJMmClQ81+h5heXp/SinzEqEkWbBUuBRnsBqZdgRc5C5JMVlkBBasBqYdAWewJCkmzmCFKsVLhA1NOwKuwZIkC5YKl+IMVn3TjoAzWJIUE7eHDpUzWFqJa7AkSSpcjaaVLFjZ5SVCSYqJ1x0sWC5yt2BJknzVtmBZsCRJCpszWKFK8V6EXiKMQbkRSJIFSwVzBksrqW0EkmTBUkwFyxksC5YkyYKVDyleInQfrBjUMQJJsmAppoLlW3cMnMGSJAuWCpfiJULfumNQywgkKSJOXliwPAksWJKkhNU1AguWb91+FpIkJaueEQTKNViyBkuSBUshvJ+6Biu7HCVJsmDJgiULliRZsBSc8tT+IS8RZrdxS5JKxEXumXo/dQYruxwlSYqJM1gWLN+6o+A8oyTFxBksC5YFKwre0EiSYuIMVqhSXIPl6p4YNDACSYpGLRoZQrBjk1rBKjNtC5YkKUFNfW+1YEGFaVuwJEmJFiyFKsVLhN7x24IlSbJg5YMzWLJgSZIFS/EWLMXAbxFKUjyaGUGwanTdzhms7HIGS5IsWCpcjVqPa7Cyq7b7lUlSNLxEGK7lFiytzDksSYqFM1gWLLxEGIuGRiBJFiwVyEuE+h6XuUtSLFoaQbCcwdL3OIMlSbFY3wgsWM5gxaKxEUhSJDYwgmCleIlwqWlHwe+kSFIsNjSCYKU4g7XYtKPgkklJioUzWBYsYIlpW7AkSYlp7KrZgKV4idAZrDh4iVCS4uD8Vci8RKjvaW4EkmTBUoGWpVewvEQYB2ewJCkO7oIVsoXpFSxnsOLgGixJisNGRhCwRekVLGewLFiSpORsYgQWLAtWPLxEKEkWLBXKS4T6HmewJCkObYwgYM5gyYIlSVFyBsuCBTiDFYvmRiBJESintSFYsADmm3YU1qPMECQpeK2oYwgBS3EN1jzTjkJtWhiCJAXPC4RhcwZLP+DewJJkwVJhUpzBmmvaFixJUkL8DmHYarTy3EuEFixJUmltYQRBS3EGy0uEFixJUlLaG0HQanTdzhksC5YkyYKl1ZtjwdL3rW8EkhS4BrQyhKA5g6UfcAZLkkLXvobvxUqLM1j6AWewJCl07YzAgmXBio0zWJIUOldgWbC+5T5YsWhpBJIUOGewQpfiGqzZVJp3FNahsSFIUtCcwQpdijNYy5zDisbGRiBJQXMGK2xL07wXIcw08Uh4hytJCllLv44UuDk1+8csWFnnHa4kKWTbG4EF67u+MXELliSpYNsaQeBquCjKGays8xKhJIXMGazQzbBgyYIlSRYsWbCUAi8RSlK4arG1IViwLFgx2oQyQ5CkQLWjgSEEbnq6BctF7rGoz3qGIEmB8gJh+JzB0mq4CkuSQuV3CMNXwyklZ7Cyb0sjkKRAOYMVvpQvEU4z8Wh4lytJClU3I7BgrWyqiUejgxFIUpA2ppUhBC/lNVjTqDDzSDiDJUlhcv4qBinPYC2vaaNT6pzBkiQLlmpmGbPTLVheJIxHM1oagiQFaCcjCN43VKZdsL429Wg4hyVJ4SmjqyEEr8ZtxxksC5YkqTSvzc0NIXiTLVhaPZe5S1J4vEBowbJgRf8pSZIUGpe4W7AsWBYsSVLCdjaCCNS47bjIPQ/a0tgQJCkojelkCBGYlH7BcgYrHuVsZwiSFJQe1DGECExJv2BNNPWI+DlJksKyuxFEoSQzWEvMPRqdjUCSgrKbEUShBIvcK2r+R5W6TkYgSQGp5xL3KMxnXvoFCyaYfDS281q/JAWkG/UNIQIFTCVZsPKhvls1SFJAXIFlwVoDl7nHxFVYkhSOXY0gCpNq/o86g5UXnYxAkgJRi10MIQpfWLC0Ns5gSVIoutLMEKLwlQVLa9OFWoYgSUHYxwgi8WVpCpZrsGLSzN3cJSkQfYwgEiW6RDiJ5WYfkZ5GIEkBaEIPQ7Bgrcmymt+hRxYsScqpPdyZMBJzmVWaglVQs1Pq3HVFkkLgBcJYFNRyCitYn5l+RFqzqSFIUsm5xD0WXxbyDxdWsMabflTc2E6SSm1T2htCJEo4g2XBioursCSp1PY1gmh8Vcg/XFjB+tT0o+IMliSVmiuw4uElQlXRNjQ3BEkqobquwIrI56UrWBNZbP4RKaeXIUhSCfWmqSFEo6DrdIUVrIrCps+UOq/9S1IpHWIE0ZjH1NIVLDdqiM1+RiBJJVNGX0OIxidUlrJguQorLpv79WBJKpnOtDGEiApWQSxYeeMcliSVysFGYMGqKjdqiI2rsCSpVLxAGJMCG06hBetjRyAyvalvCJJUAq3pbAgRKfEM1sdUOAZRachuhiBJJXAoZYZgwaqqhW7UEB0vEkpSKbhFQ0wWMqm0BQs+dBQis78RSFLq1mcPQ4jIZ4VeoSu8YH3kKESmI1sZgiSl7EhqG0JEPin0FziDlUdHGIEkpayfEViwLFhZd5QRSFKqNvQLRpF534Kl6tuBDoYgSSnqRy1DsGBVzwTmOQ7ROdwIJClFRxuBBau6Kgu/TqnUHWkEkpSaNvQwhKhMZmbpC5YXCWPUhbaGIEkpOdotRiPzfuG/IomC9YEjESG/SShJafGrRRasGnnPkYiQFwklKR3t6WYIkRkXRsF615GI0I5sbQiSlIKTvUAYnUBmsD5mkWMRoZOMQJKKrpwTDCE6gcxgLXMVVqSfqeoYgiQVWR/aGEJkZjI1jILlRcI4tWQ/Q5CkIvNqQXzGJfFLkilY7zgaUTrFCCSpqJpzqCFYsGrOGaw49WVDQ5CkIjqaBoYQnbfCKVjOYMWpNscbgiQVkRcIc1uwkvrq6EyaOyIReo9tDUGSiqQ9H7hFQ3QqacHswn9NeUIPx4uEcdqGnQ1BkorkVOtVhD5Pol4lV7C8SBirAUYgSUVRz68SRemtZH6NM1h5dywbGIIkFcGRvr5G6e2wCtZoRyRS9TnLECSpCM4xgiiNTebXJHV1uAFzqO2oROlrNmGxMUhSorZP6lKTUrYF45P4NUnNYC3kQ8ckUhvQzxAkKWFnG0GU5vB5Mr+oPLGH5EXCeF1oBJKUqCYcZwhRepvK0ArWGEclWl3YzRAkKUH9aWoIUUrswm5yBWuUoxKxC4xAkhLk14csWIk9pLFJTaqpBA5lU0OQpITs5l0yopXYdFFyBWsOnzgu0arFjw1BkhJyoRFEalFyG6eXJ/iwXOYeszNpZQiSlIDNOcQQIjWWpSEWLJe5x6y+c1iSlIifUMsQIjUyuV/lDJb+v7O8qYMkFWwdTjIEC1bSBctl7jFrxEWGIEkFf1htbAjRSnBHhLJEH9iHtHd0IjaPzZluDJJUY/UYz0bGEKm5NKciqV9WnuhDG+HoRK0xPzIESSrAcdariI1Krl5ZsLSyC2huCJJUwKuo4jUyyV+WbMF63dGJXDPnsCSpxvZhB0OI2JtJ/rJk12DVYRYNHaGozWZLZhiDJNXAUHobQsQ25/PkflmyM1hL3aohes34pSFIUg3sYb2K2vQk61XSBcuLhFlwLlsagiRV22VGELVXk/11SRcsl7nHry5XGIIkVdNe9DIEC5YFS2tyHF0NQZKq5TdGYMH6rrLEH+AEWjtK0RvGHoYgSVW2N4MNIWpLac6CJH9heeIP0TmsLOjNvoYgSVVUxv8ZQuRGJVuvilGwXnWUMuGqIpwbkpRNR9HDECL3WtK/MPk30ZcdpUzoxAmGIElVUJffG0L0Ep8eSn4NVm1meifxTJjCVsw2Bklai/O5zhCi14rJyf7C5GewlrkKKyM2dMtRSVqrJlxqCNH7LOl6RVHW2bzkSGXEhWxtCJK0RhfT0hCi91ryv7IYBesVRyoj6vA3Q5CkNdiEiwwhA4bHUbBeZ4ljlRF7caQhSNJqXUdDQ8iAIuyAUFaUB/oa3R2tjPiKrZlvDJK0Cm4vmg3fsD4VSf/S4ux15FYN2dGGXxiCJK1CXZdRZMSLydcrC5bW7me0NwRJ+oGL2MoQMmFYMX5pcS4RtmC6+4BnyNMcYAiStJLWvE8TY8iEHXg7+V9anBo0k3cdrwzZn2MNQZJW8nfrVUZML05nKdY80zBHLFOuZ31DkKRvHcGhhpARRVmBVbyC9bwjlinr8WdDkKQVmnpznAwZVpxfW6yCNZRljlmmnEhfQ5AkAP5Ia0OwYK1ZWdEe8Ovs7Khlypdsy1xjkJR7uzOsiO+eStc0WlJZjF9cvO/6DXHUMmYTfmcIknKvIbdarzLkxeLUq2IWrBcctcw5j56GICnnrnFvwEwZVqxfXLwWXp9vaODIZcx7dPFOk5JyrA/POn+VKdswrji/uHgzWIuKcW9qlfxE/KUhSMqt5vzTepUpE4pVryjqfuteJMyiS+lmCJJy6gY2NoRMebZ4v7qYBcu9sLKoNndQ3xgk5dBRHGcIGTO4eL+6mFOdtZhGC0cvg/7MTw1BUs60YSzrGEOmVLAh04r1y4s5g7XcG+Zk1EXsbgiScqUO91uvMmd08epVcQtWUa9tqoTKuYOmxiApR35LD0PInOeK+1ZZTIMcvYzanNsMQVJu7MvPDCGDijoNVOyvm45ja0cwo07iLkOQlAMtGcuGxpA5c1mXpcX79eVFfvhPO4KZdQPtDEFS5tXmPutVJg0rZr0qfsF6xhHMrMbcS11jkJRxf6S3IWTSc8X99cUuWC8xzzHMrK5cYwiSMu1YLjQEC1aIBWuxWzVk2gX0MwRJmbWDX+jJrM/4KO6C5UXCrLudjoYgKZNa8DANjSGjniz2Hyh+wXKZe7Y15n4aGYOkzKnNvWxpDJlV9I2kil+wij4JpxLblpsNQVLm/JV9DSGz5vJi/AXLi4TZdzw/MQRJmfIjzjOEDHuOxVkoWAMdycy72k96kjJkf/5qCJmWwp1mylI4jDp8TXNHM+Pm0INxxiApAzoy3HetTKugNVOK/UfSmMFa6k2fc6ApD3kDaEkZsCEDrVcZ92bx61U6BQuecDRzYGseoLYxSIr8w+IgNjOGjHsqjT+STsEayBLHMwf25SZDkBSxujxEZ2OwYMVTsGbzsuOZC6fxM0OQFKly/k0fY8i8SYzNTsHyImF+XMWRhiApSn/nKEPIgaeotGApxk+Ad7GrMUiKzuWcbQi58Hg6f6YstQMayw6Oak7Mpnc6E7CSlJAL3fkqN+9QG6SzLrw8tUNyDis/mvEs7YxBUjTOs17lxlNpfe3OgqVi2ICn2dAYJEXhFK4zhNx4NK0/lN4lwjK+ZGNHNkfGsCezjEFS4PrzrxQnG1RaC1mf+en8qfROqkoecWRzpTNP08QYJAXtWP5pvcqRZ9OqV6R6Wj3kyOZMd56hsTFICtZx3EUtY8iRFKd6ylI8rHK+opWjmzOvsF96nxckqRrO4CZnr3JlKS2ZmV7pSU9FekvLFIxdeZj6xiApOOdzs/UqZ4amV69I+eTyImEe7euFQknB+RnXpXoNRyFIdS14uqdXLSbS0hHOoZc4iLnGICkQ/8evDSF3KmjNlPT+XLozWMu9SJhTu/MszY1BUgBqcZP1KpdeTbNekfr15wcd4ZzqwRDWMwZJJVaPBxhgDLl0f7p/Lu0r0LWYxAaOck59wL58aQySSqYxj9DHGHJpOa2ZmuYfLE/9AB9zlHNrK4bT0RgklciGvGy9yq2h6dYrSvAVVb9JmGcb8wo9jUFSCWzDa3Qyhty6L+0/mP6XVGszifUd6RybzzE8ZQySUrUvD9DUGHJrCRumuQcWlGIGaxkPONK51ojHON8YJKXodJ60XuXaM2nXK0qyi+09jnTO1eI6rvP+X5JSUcbl3Eodg8i1+0tx4pXib37CFo527j3O8d6lUFKRNeU/HGQMObeADdPf7LoUM1iV3Otoi0N4iTbGIKmItmKE9UoMLMW9REpzo8v/ONoCujCaPYxBUpEcwGtsZQxK/xuEpStY7zPW8RawHs9xsTFISlwZF/Okt+gSMIenS/FnS7XQuAn7OOYCytmbDRnMcqOQlJhm3Md5JVllrPDcW5odOEt1+rXiS79Fpm+9ST/GG4OkRHTmAdoag1bYk6Gl+LPlJTrcSbzsmOtbOzKS/Y1BUgL6M9x6pW9N4MXS/OHykh2yu2Hpu9ZlINdR2yAkFaAJ93AnDQxC37qTitL84dJdoW7BZOo58lrJUE5gkjFIqpFOPEA7Y9BKtuaD0vzh0s1gzeQJx13fswfvcbQxSKq2Ms5kuPVK3zOiVPWqlAUL7nDk9QPNuY+7aGQQkqqhJU9xMw0NQt9zdyk7f+nU4ktaOfpahXEcx1vGIKlKjuBm1jUG/cASWjGjVH+8lDNYy0vZLBW0jozkKm/OKmmtGnIdD1mvtEoDS1evKPE2bO35wI3gtFpvcDLvG4Ok1dqN2113pdU6jMdK98fLS3roHzHC8ddq7cRoLnZDWkmr1JCrGGa90mp9U5pb5IRRsOBfngFag/pcxYt0NAhJ37MP47i45O9hCtk9LC7lny/1BbpmTHZLOK3FEq7kytI+USQFpBl/4jQXmGgtujCmlH++1O1/No96Dmgt6nIZ77KnQUgC+vIOp1uvtBZvlrZeEcD0qhcJVRVtGeIXsaXc25yBPEEbg9Ba3VbqB1D6zwDljGcTzwRVyUyu4O8sNwgph2pzLr+jsUGoChbSilmlrjelVuEclqqsBdfyGt0MQsqdXRnDtdYrVdF9pa5XBPENjNudkVA1dON1bqGlQUi50Zr/8BLbGoSq7LbSP4QQCtZXDPJcULXO2jP4lMv9/qmUA3W5gPc5zkXtqoYPeM2C9V+3eDaomhpxGR/R3xddKdP68j7X0sQgVM1WUVn6BxHG21MtPnOhu2rkNX7OK8YgZVBn/uT2LKqBxWzM9NI/jDBmsJZzu2eEaqQHLzOYLgYhZUobbmak9Uo18mgI9YpgLrBsxBfU8axQDVXyEL/kY4OQMqAFF3MB9Q1CNbQ3z1uwVm6ch3pWqABLuZ0r+dIgpIjV5zwupYVBqMY+pkMIK7AI6EaZLnRXYepwFp9wF1sahRTpc/hMPuaP1isV5MYw6lVIM1jlfMpmnhkq2FLu4wo+NQgpqnJ1LL/x45EKtpCN+SaUWhOKihC2BVMmXqhPZBy308EopCjU5mQ+4E7rlRJwTyj1iqB2EdqQL6jr2aHEKvtjXMVIg5ACVpcTuIR2BqGEdGFMKA+lPKBYpvCQ54YSPLcP5w2ep49RSEFqyPl8wu3WKyXmtXDqFYHtg909hM3tlTkfcSO3Md8gpGA04VQuZiODUKKO5x4L1uq8QbccnxpLmMx0vllxD/BaNKUJLWhNI581BZvF7dzIZwYhlVxrfsTZNDUIJexrNmGxBWt1TuSu3J0Sk3iZUYzmYyayfJX/jcZsSTva05nubOxzqMYqGMTfGBzKV3ilHOrKRfRzW2kVxZVcGtLDCa1g1eMLWubmZBjLvTzNO9X87NedHnSnq/sc19AH/J27mGsQUqrKOZiL2N0gVCTL2SKsrabLgovo//h1Dk6EBfyLf/BeAb+hMftxMAeyjs+qGpjDHdzARwYhpaIZJ/Ej2hqEiujx0O4HE17BasXnGZ8+XsBf+SszEvldtdmdgzmUTX1uVVslL/IvHnbxu1RUnTmb41xJqqLrwxAL1trcyzEZPgXu4WImJPw7y9mLMzjEXcRqYC4PcQcvuy5LSlx9juIcuhuEUvAOO4T2Oh5iwdqF4Rk9Ab7mLB4t2m/fgJM4nfY+z2rgU+7iTr4wCCkhW3MqJ7OeQSglp/Kv0B5SWZBBvUnXDA7/85zAlKKPZy8uom+g4xq2CoZxB494yVAqSFOO5hR6GIRSNJVNQ9qgIWQnUZmxn2X8JsVd87fnPpZnLsN0fuZwO7sHdYcDKRZl9OYu5vs64k/qP78J8wkRorqMp1WGXnbmcyTPpPw32/MLjne3mRqaxMM8xCtUGIVUJVtzHMexhUGoBBaxKV9bsKrqEq7MzNDP4EBGlOQvb8ovOZVaPvtqaAqP8BAvrWb7V0kArTmG4+lsECqZ2zgjxIcVasFqwZc0zsTAL6MXr5bw72/PX9jL518BvuYRHmKYNUv6nnU4jOPp5SV1lVQl2xW0q2TuChZcywWZGPp/c2LJH0Nf/uS3Cws0nUd5iBdYZhQSG3AYR9DbRQgKwLPsF+YDC7dgbcbH1M7A0J/P3wJ4FHU4l9/QwmdigWYwiEE8xzdGoZxqzeEcwa4uPVAw9uNZC1Z13cfRGRj664OZiVuP6zjO52IClvMag3iasUahHNmeg+jLzm4Co6C8x3ahbhQd8lOlG29kYPBn0D6g+Y6DuYmNfEYmZCJPM4gh3jhamVaP3vTlIG/IpSCdwW2hPrSwP4sMo1cGhv9Bjg6oX7fgL5zsczJBS3iZpxnE+0ahjNmUPuzPPhn5wpGyaBJbhLvBaNgFqy9PZOIUuIpfBPV49uMW2vjMTNh4nmMow5hqFIpcY/ZgH/rQwSgUuJ/zx3AfXNgFq5z32CoTJ8HZ3BTU42nKTRzrc7MoxjGUYQxjulEoMnXYiT3oQw+/HagozGKTkJdohL5c8QxuycRpUMn5/D2wx3QWf6W+z9Cijfi7DGUoL/mNQwWvHt3oTS92oaFhKCK/51chP7yy4J/4n9I6I6fCpcHtTt+ZB2jrc7SoKniLYQzlJWYbhgLTlJ3oSS+608AwFJ2FbBbiDXLiKVhwEX/JzOlwFZcG9nXSZtzOET5PU7Ccd3mN13mdj0L9SrFyooz29KAHPejoblaK2A2cF/pTLXSN+Jz1MnNC/Iszg9sL/Hz+SF2fq6mZwQhe5zXeYI5hKEWt6EpXdqQH6xiGoreM9oy3YBXq1/xfhk6KIRwe3KK8njyWoRIbj88YziheYQwVhqGi1qqudHUHPGVKCLehy0DBas4XNM3QaTGSg4K7brwVA9nCZ2yJzOJ1RjCK0Uw0DCXyur4lnelMJzqzoXEogyrpxNsWrCRcySWZOjU+YT8+Dewxrc/j9PBZW2JTGM1oRjGaLw1D1VSXbehEZzqxQ6Y+kko/NIgDY/ikE4OWjM/Yt1ymciCjAntMDbiTo3zeBmI6o1aUrfGGoTVoyg4ratU2rqVUbuzOyxaspPwt9G8LVNs8juKZ4M6Gy7jMZ25g5vAOoxjFKN53rZZWaME2K1ZWbUW5cShnhrFHDA8zloLVhk8y9+lsCadwT3CP6sf82WdvoObytlUr11ywLgHswTALVpL+ySmZO0kquYRrgntUZ3FjROdFPs3jLUYxivd4hyXGkWm16UBXutKRzqxrHBKv0jOOBxrPG2l7xmVyU7w/cnFwG0+ew9+tWJGYz1srVmuNC26HNdWcK6uk1dmb5y1YSfs3x2fyZPk3p7I0sMd0Oje7siMyS/l4xQXEN1lkHFFyZZW0Nq+xSywPNaaCldU5LHiGI5kf2GM6lVt9iY/UYt7hGX5tENF5mv0MQVqjfXkuloca01voR/wnoyfMfrzA+oE9pn9ymvfMi1Q9dgxuExBVxU+9zCut0Wvx1CsimxF6h3MyOqvSmiMYxDdBPaaxLKSPz+co3cHVhhChaWxEN2OQVuuM4DbpXoPYljL/i5Mze+JM4QDGBPaY/sqFPqOjM5HtmGkMUVqfj2lmDNIqjaJbTFdWYlvT9BbnZHQdFjTmeEYF1s4H05FtfFZHpZJ+vGsMkVpAJXsbg7RKp/NxTA83tgtun3N3hk+exjzBkUE9ogr686LP6qj8nWcNIWLXenMkaZVG8nRcDzi+3Y425aNM7wuznDP5Z1CPqCkvsYPP7Uh8SBcWGEPU+nG/IUg/sF9sHx7jWzL+BXdk+hSqxW2cE9QjmsNBTPS5HYVlnGS9it6DDDcE6Xteim9uPsbv5P2exZk+jcq4gd8E9YgmcHBw+3RpVa5khCFEr5Ifu0WK9D2/ie8hx7hgfDatMv9V5j0oD+pmlpP5mCO9fU7gxnCiN4HOhIm0ZztjkL71NH+wYKVjNGdl/v5cvVg/qAV944DePssDtpgDmGwMGfEGZ1HHGCQAKjkhxoUqcRaseTRmt8yfUjuxEYMCulTwEu38VB2wX/CYIWTGHBqyuzFIADzMtTE+7Fgv+jTnU9bJwWl1L/0DunlGfYaxs8/1IA2nF8uNIUMa8xEbGYPEcrZnXIwPPNYbz8zimlycWMfyCPWDeTSLOJSvfLYHaD4nW68yZl6Mi3qlIvh3nPWKiJct1+djNs7FyfU0R7AwmEfTmZdp5DM+MGdyqyFkTjkj6WIMyrmlbMVnsT6FY7WI3+Xk9NqfZ2gazKMZQ3+/qRaY57jNEDKogp8agnLv1ljrFVHf1+8tjmHdXJxgm7IHD7MokEfzPsvZ02d9ML5hX+YaQyZ9zo60Nwbl2AKOivf1rTzi4Jfx69ycZN15nhbBPJo/8G+f98E4h0mGkFk/ZakhKMf+GvPrW9xbR5bxWo6+1fY6+zInkMdSn6F097kfgEc4whAy7Xp+ZAjKqWm0DeZdL3cFC/aJ7+5EBXgtoItBGzKCTXz+l9gcOnqfyIxrwcc5WQohfd+53Bjzwy+PPP7neD5HJ1sPBtE4kMcyhUOY5/O/xH5uvcq8mTHeIkRKwEexfzs6/rvLdWJU9DWxOl7igGBuvHwoD+cq+9C8TC9vCpwDdXmPtsag3DmCR+I+gFrRD8EUNqNzjk65TdmZBwLZ3f0DlrKXrwIlspxDmGoMuRjpCRxtDMqZ1/lZ7IdQloFhaMVHOdv68gmOCOYGOrdxmq8EJXEzZxlCbgzxo4xyZleGx34ItTIwDHOpS+9cnXgd2ILHA7k49Ay7s5mvBSU4649wDVyOvM2Zmfg4LFXNg/wl/oPIxgqaq3N3h7wT+Fsgj2QJR8a7z27EfssUQ8iRsdxtCMqNpfwyC4dRKxODsYxZHJKzE7Ab9QL5BuUChnEC9XxNSNHnnOjNnXNmJAOoawzKhRv4jwUrHG9zCBvm7BTcjdm8HsQjmcq79PP7hCm6iFGGkDNzqZOzpRDKq1kcyYIsHEh2rur3ZmjuTsNKTgrmwsEAbvJ1ISUfsU0wX3JQehrwgZv7KhcfIK/NxoHUysyQ5PG2qGUcyIhAVkCNooU3z0nJObxjCDm0jGkcbgzKuA84lYqsvEVnRwfeoU7uTsY59GJsEI+knIc4zFeHonuHTll5+VG1X69fpqcxKNMO4OmsHEqW1s18yD9yeDI25alALhtUcAIjfXUout9Yr3Krkp+6d78ybVB26hUZ21mlBR+yfg5PyXHswuwgHsn6vMaWvkYU0ftsa8HKtX9zvCEoo5ayHR9m53Cy9c2vmdnYO6PaOnJfIKvpptGXmb5KFNEfrFc5d3Ew9yKVknZ9lupVlha5/9dY9qd1Dk/LtjTmuSAeyXRe51hq+0pRFOMZYMHKufzduUJ58TX9WJSlA8ra3kUVnJvTN6AfB3Nnuhc5xXUiRfJHt2cQV/OlISiDfsWsbB1QrcwN0SS2oFMuT859eYXPg3gk74KfsYtgKidbsOR2DcqksZydtY/mWdx9++JAFnynrQ4PsXkgj+UK/u7rReL+ka3pc9XYPQw3BGXMhdm7/VcWC9ZUfpvTE3QdHqR+ME+WJ3zFSNRibjYEAW7XoOy5jxezd1DZvH/cdbyb05O0K7cG8kiWcwyv+KqRoHuZYgha4XXuMQRlxlx+msXDymbBWsaFuT1RT+DsQB7JQg7lfV85EnODEeg73K5B2fEbJlqw4vE8j+b2VL2WHoE8khnszyRfOxLxMm8agr5jIn8yBGXC21lds1uW2SFrwzga5/R0nUAnZgTyWLblZZr7ClKw47jXELSSBnwQyG2ypJqrZI8srr+C7M5gwVdckdsTdmNuD6Y6v8vhLPY1pEAzcjwjq9VZyKWGoOjdkdV6lcV9sP7nDQ5mw5yeslsxgzcCeSyf8w5HZrjKp+EWBhqCVvHxZW/nsBS1mRzCgqweXJbf9pbl+rYif6RLMI/lcU71S+UFuc0ItAqV/MRnlqL2C6Zl9+BqZXroJtKarjk9bWuzJ3ewJJBH8zZz2dfXkhp6lasMQat5jWvH9sagSL3BOVn+iFAr48M3nFNolNNTd102CGizz9eoze6+ntTIbxltCFqNEQygrjEoQhUcwYQsH2DWC9YipnJYbk/fLozhw2AezVA2oJuvKdW2hNNYaAxajbnU9c6fitKNwWyMXSRlORjE59kztyfwNLZjakBn2+2c4qtKNT3BIYagNXC7BsVoMh2Zle1DzMN3u87N8TYB6/OPgB5NJQN4yteVarrPCLRGbtegON+ZZ2X9EGvlYBinUy/Hq3+25nPeCubRVPAo3Wjra0uVzeMMlhqD1uhd9mVjY1BEHs3DTpVluRjKBoylfW5P5Nl0DOqGNQ14kr18famihznSELRW3Xk1J6/m8l0pGvnY/nEhJ+d4R6xm3BLYaBzMUF9hqsgNRlUVr3OPISgal+TjLrX5+cxzI2fn+HQ+mgeCejwNGeg3n6qggtZMMQZVQWs+zO2WNIrt40DPfEx55OcGJpfwVY5P6OtZJ6jHs4CDec3XmbUaZb1SFU3kdkNQBBZzWl6uKOWnYM3J9QxWS/4S2COay/7B3C0xXIOMQFU2zQgUgasYl5dDzdMteAfynxyf1CfRJ7BHNJt9GO6rzRo9bQSqsuVGoOC9z5X5OdjyXA3tBXyd4xP7RuoHWLEG+4qzWtMZaQiyYCkzKjgzT/tS5qtgzeDCHJ/abflpcI9pAQf7PbnVejbH331V9S0zAgXuJl7J0+GW52x47831TuKXsnlwj2kRh/OQrzur9IwRyIKlzBjPxfk64PLcDfGA7G/Pv1oNuDHAR7WEY7jD154fWOxthVQtzncq7PPzVOZZsLJtEpfk+BTfL8gbBy/nNG7w9ed7Bub4o4BqwlsqKWQ3Mixvh1yew2G+hedyfJL/Nbil7v/9bHMev6DS16DvcGduVfeDihSqz/I4tZHHglXJKczM7Wm+ORcF+siuoj9LfB1aYY57YMmCpYyo4FTmW7DyYVKuv034CzYK9JH9mwOZ42vRiiwWGoKqxUXuCtUNvJjHwy7P6XDfxcO5PdWb8IdgH9sQejLBVyMq+bshqJqcwVKYxnNpPg+8PLdDfi7Tc3vs/dkx2Mf2Lj0Zk/sXpMG876uyqskZLIWogpPy9u1BC9ZUzsjtsZdzPWXBProv2YU7c/6SdL2vyqo2Z7AU5qvZy/l9q82vx7g3t8feg8MDfnSLOIWLc/x28Zb3IFQNOIOl8HzEL/N78OW5Hvpzcrze5w/UDvjRVXINB+b2u56/cctI1YBnjcIr/f1ZYMHKp1mcldtjb8/JgT/CZ9kpl6uxRvKkr8uq0ZuZFJbfMSLPh1+e8+EfyO25PfbLaBD4I/yEHvw1d9uPuuGqLFjKghH8Pt8BlOf+FLiAj3J65BtzXvCPcTE/Zh8m52hU7uF5X5dVIy5yV0jm0z/vpd+CNZ/jc3sPr0tZJ4JHOYROudnVfDY/83VZFixlwEW5nbywYH3Hm/w2p0fePJK38685iAG5uPXxBUzyCaka8hKhwvEktxpCmREA5bxAr1we+ULaR/NNyg25hhMzPRq3MMAno2qsO68ZgoIwje2ZYgzOYAFUcDKzc3nkDfhVNI91Cv05jImZHYs3uMCnogrgDJZCcZr1yoL1P59zbm6fCO0jerSPsTW/y+S+Kq+xH4t8IqoArsFSGG51q5n/qmUEK7xDO7bPZcXekAcjerxLGMqdNGf7TH04eJTDmOOTUAVZn7MNQSX3MYezxBjANVjf1YyxbJbD465kJ96M7lFvx5UckIHzdyqDuYvBPv1UsI68Zwgq+UfgnhG+n1iwUtCTF3M5pzeMPaJ83NvxM46hTpSPfRlv8RRPMsYbnCghHfjAEFRiP+EvhmDBWrX/49e5PO59op1D2ZSLOI3GET3iD3iOZ3mR+T7dlKgt+cQQVFKDOMg7UViwVqc2Q9k1h8c9hh0jnklpQj9OoWfgj/IbXuA5nuMLn2Yq0oeNzw1BJTSJTkwzBgvW6rVhDOvm8LhP5N+RH0EHTuFYNgnucY3nFYbzCuP8ZKei2pivDEElU0EfXjAGC9aa7c/AHObyBR1YnIHj2IaD6MsuJR/B5XzIKwznJWcVlJKNvA+ASuh3OV1gY8Gqpj/y0xwedZYWJ25KH3rRizYp/91KxvM2Y3mV15nrE0mpWp+vDUElMpzebnVrwaqKOrxE99wd9Tdsmbn7/W1OL7qzA9vRqIh/ZS7v8DZv8TbvupuVSmYdZhiCSmImnfjSGCxYVbMpY2iRu6O+hoszemTltGMHOrAV7elAk4J/XyUT+JTP+JT3eYvxrq5SAJrm9IZfKr0jeMQQLFhVdyiP5C6dRbTPxTLZlmxMGzahDRuwLuuxPi1oRN1V/neXM5uZfMM3zGQqE5nMBCbzeSbWqylbGjHPEFQC/+AcQ7BgVc+1Obz57t30z/GIN6fOt7NblcyiwhkBRaSed7NUCYymp2eeBau68rgSq5JevOzQSxGqzVJDUMpm0ZXPjGHVyo1gtZZyfO5mMMq41nNCitJyI1DqH8lPtV5ZsGrmM/rnbvlyF05x4KUo3+y8r6XSdTWPGsLqeYlwba7K7DfrVudrOmRuuwYpDxav5qsaUjG8yN7ufbUmzmCtzaU8l7Mj3oDfOOxShLxIqPRM5Tjr1Zo5g7V26/Imm+XqiJfRhXcceCkyc2lsCEqpzO/HEGNYM2ew1m4Gx+Rs16Pa/NVhlyL8aCSl41fWKwtWMkbw45wd8V4c5rBLFixpFZ7iakNYOy8RVtVdnJir4/2Kju4LLUVlCi0NQUU3nq7MNIa1cwarqs5kdK6Otw3/56BLUXGRu4pvIUdZryxYyVrEETm7V/35dHHYpYh4iVDFdyqjDMGClbTPOTVX247W4mZqOeySBUta4U/cZwhVfxNV1X0I9M7R8bZiBiMcdikS57GuIaiIhnBy7u5uUgAXuVc3r/vol6PjnUtHJjjsUhTeZytDUNF8TjemG0PVeYmweio5OVfXn5twrYMuRcJF7iqehRxhvbJgFfskOzJXJ9kRHOygS1FwDZaKpZKTc/ZNegtWSXzOYSzJ0fHexDoOuhQBZ7BULFfxgCFYsNLwSq52dt/IG+dIUXAGS8UxmF8bggUrLTdwa46Otj8HOeSSBUu59DFHOztqwUrTubyYo6O9hRYOuRQ43wSVvDkc5s7tFqx0LeUIxufmaL1MKFmwlMdz6ljeMwYLVtpmcATzc3O0J3GgQy4FzUuEStr5DDIEC1YpjMnVlelbvUwoBc0ZLCXr79xoCBasUhnIxbk51o34mwMuBcwZLCXpOS4yhEJ4L8JCvUZLuuXkWLfnE95xyKVAHU0HQ1BCPmA/FhhDIZzBKtz5DM7Nsd7A5g64FCgvESop33Aws4zBglVqyzgyN/M6zbjbWU8p2NciKQlLOYqPjcGCFYI5HMzUnBxrT37pgEtBcgZLyfgRLxiCBSsUn3MYi3JyrL+mhwMuBcgZLCXhGm42BAtWSF7jZCpzcaS1+TdNHXApOM5gqXD38wtDsGCFd1pelpMj3YK7KHPApcA4g6VCvczJVBhDMlywnOypuQmdc3GkWzGH1xxwKSgH0tUQVIAP2Ie5xpAUZ7CSVMkZPJ6TY72a3R1wKSheIlQhptGXb4zBghXuC9xxOZnZqc0DtHLApYB4iVA1t4CD+cQYLFihn6Qf5eJIW/IQdRxwKaAPeFLNJwdeNwYLVuimcyDTcnGkPbjS4ZaC4QyWauq83CxvsWBF7hMOYF4ujvQnnOVwS4FwBks1cxU3GYIFKxZvcnROPk1ezz4OtxQEZ7BUE/dyqSFYsGIyiFNysfFoHR5iB4dbCoAzWKq+F3LyXmXBypR/c0UujrMJg2jjcEsWLEVnJIew2BgsWPG5gltycZyteIJmDrdUYl4iVPV8kJv1whasDDqb+3NxnJ14xvsTSiXmDJaqYyL7Md0YLFixqqA/z+biSLvzNC0ccKmEnMFS1c1gH74wBgtWzJZwOC/n4kh34RU2ccClknEGS1W1gEMYZwwWrPhP5L6MycWRduRN9nDAJQuWgraUIxluDBasLJjNvnyYiyNdn+e42AGXSsJLhKqKSs7gaWOwYGXFNPrwZS6OtDZX8W8aOuRS6pzBUlX8hDsNwYKVJV+xPzNycqzH8xKbO+RSypzB0tpdzl8NwYKVNePYn7k5OdauvMsFlDnoUoqcwdLaXJuTDbAtWLkzkkNZlJNjbci1DKSVgy6lxhksrdkN/NgQLFhZ9QKH5ui2BPszjjMddCklzmBpTe7kfO86aMHKsmc5lqW5Odpm3MyTtHXYpRQ4g6XVu5/TqDAGC1a2PcqxuXohPIhxXOeNdKSicwZLq/MEJ3p+WLDy4GGOz9WpXofz+YD+LnqXLFgqgSEcnaMrJxasnHuAM3N2LXwj7mQ4ezr0UtF4iVCr8hKH5ObrVRYsAf/kjNwtN+zB87xCXwdfKgpnsPRDYziEBcZgwcqX27koh0fdkycYRi+HX0qcM1j6vtHsxSxjKI1aRlBCI1hAnxwe92aczJ7M4SO/MiwlaBNONgStVK/6MNMYLFj59CoV7JHLI9+Uozmdprzr5LWUkDacagj61lj68I0xWLDy6yWW53bpdxN6cx6b8QVTPRGkgrXmNEPQCqPZ23plwbJizWef3B59HbpyNv1owqfM82SQCtCKMwxBgLNXQXBnojCczQ25H4vlDOVuHma+p4NUI10YZQgCxrI3M4zBgqX/Ooe/OxrAbJ7kCZ5hrlFI1bQ9bxmCGO3slQVLKzuNW9w2Y4VljOBBHmaCUUhVtg3vGkLuOXtlwdIq9Oefror7jkpG8RxDGc5Cw5DWqgMfGELOjXFpuwVLq3Ysd1HbGL5nMSN4gaG8zhLDkFarLR8bQq6NZD/rlQVLq3Mk91DHGFZpAW8ykpGM5DPDkH5gc58ZufYKBzLHGCxYWr2DeYB6xrBG0xnJSEbzLuOpMA4JgDZ8aQi5NYRD/Q62BUtrcwAPU98YqmQhHzCO93if9/gsspvd1qYpzWlG029/rnZAVYBWTDSEnHqKo1hkDBYsrV0fHqOhMVTTUibw+Xd+Jpa0cP2vNjWj+Xf+0/+vVM1WMcI+H1WIDbwnQk49yPEsNQYLlqpmF56ihTEUpIJpTGMqU77937OYy1xmMafA6lVvpar0358WNP3Of27h81GpW5fphpBDd3JaZLP3FiyV2LY8SytjKJL5zGUuc4BZVAIzgQpmf/v/r0ujb/99Q+rRmDo0oTbNKKd50Z43Ph9ViGbMMoTc+QfnuRLVgqXq2pRn6WAMPh+lKmnsHRBy5wZ+RKUxhMmdw0P2BbvwujFIqhIvE+XN1ZxnvbJgqWa+YW+eMwZJVbDMCHKkkp9ziTGEzEsS4avL3fQzBp+P0lo/MDuHlRfLGcDtxhD6E1KhW8Jx3GQMktaiwsXOObGYftYrC5aS+axytlPBktbKi4R5MIs+PGIMFiwl5Wq/iitpLdxsMvumsAcvG4MFS0m6gSNZbAySVssZrKwbz26MNQYLlpL2KAe7z42k1VpiBJk2lh58YgwWLBXDc/TkS2OQtEp+izDLXqK3d5u0YKl43mEXJ4glrZIzWNn1GPt+52ZesmCpCCayG08ag6QfcA1WVt3GUSwyBguWim0eh/F3Y5BkwcqBSq7gDMfWgqV0LOdHXOi2DZJW4jYN2bOY47ncGCxYStN1HMECY5D0LWc5smYm+3CvMViwlLbH6M0UY5C0gjNY2TKeXXjJGCxYKoWR7MhbxiDJgpXB1/cefGAMFiyVykR242ljkISXCLPkOfZy1ysLlkprLgdzkzFIcgYrM27nQO/bYcFSCJ9az+YSv1MoWbCMIAMq+BmnOxtpwVIoruZAZhmDlPMPW4rdPA7nT8ZgwVJInmEn3jcGKcecwYrdRHrxuDFYsBSaj+nuTXSkHHMGK26vsyOjjcGCpRDN4TCuNgYpp5zBitkD7OnOhhYshWs5l3CsO7xLueQMVqwquZpjWGgQFiyF7T525UtjkHLHGaw4LeIELqHSICxYCt8YuvO6MUgWLAVvMrtzjzFYsBTPU7Y3dxiDZMFS0N6kGyONwYKlmCzmFAb4givliGuwYvMfejHRGCxYis8tHMgMY5Bywg9UcdXhCzjBryRZsBSrwXR2NZaUm7dsxWI6+3G9MViwFLOv6O3TWLJgKSBj6cbzxmDBUuwWcwEnMN8gpIzzEmEc7qUnnxuDBUvZ8B92ZJwxSJnmDFYMY3QJx7nyyoKlLPmA7jxoDFKGOYMVuhns5+3MLFjKnrkczU/9jCtZsFQSo+jqyisLlrKpkj+zJ5MNQsokPz6F7G524wtjsGApu15mBz9DSZnkDFaoFnE6/b2ZswVLWTeN/biCCoOQMsYZrDB9xE7cbgwWLOXjZfhyjmS2QUiZ4gxWiB5gR94xBguW8uNRdmC4MUiZ+uik0EbkEo5hrkFYsJQvX9DbS4VShjiDFZYJ9OJqKg3CgqU8frq6nH38VqFkwVLihrIjrxqDBUv59TxdGGwMkgVLiVnO5ezNVIOwYCnfprAvF7LEIKTIuQYrDFPZ3+UXsmAJoJLr2JVPDUKyYKlAg9nBqwKyYOl/RtKFe41BipiXCEtfca9gPy8NyoKllc3hOE5ivkFIFizVwBfszuVeGpQFS6tyFzvznjFIFixV071sz2vGIAuWVuc9unGzMUgRcg1WqcymP8cxxyBkwdKaLOQs9mOSQUgWLFXBq3TlbmOQBUtV8SydeMwYpKh4ibAUmV/B7n4HWxYsVd00DqMfswxCsmBpNd5jZy5nuUHIgqXqeZBOvGgMUiS8RJimSq6nK2MMQhYs1cQX7MUv3OVdioIzWOkZz55cwGKDkAVLNbWcq9iZdw1CsmAJgEpuZHuGGYQsWCrUWLpxtdvnFf1FWyqMlwjT8Dl9OJd5BqE1KzMCVdku3M0WxlDEguUHHhWmkW/7RX+W3spPTFlV4Qu6qu5VOnOLMRTxpVsqjJcIi2s8ezHAeiULlpI3hwEcxdcGYcGSBStnKriebRlqEKoqLxGq+tbjOo4zhsQtp7YhqEDLqGUIRfA+Z/KKMag6nMFS9U3neA5kgkEkzBksJVGwlLSlXE1n65UsWErHILblFiuBBUvBlQEl61U6c4n7XcmCpfTMZgD786VBSAFxBitJ87mE3XnPIGTBUtqeZTuud3+shDiDpcI5g5Wcp+jI1d5nUBYslcYcLqA3HxuEZMHKkCmcRF9n6GXBUmm9TCf3eU+AM1gqnJcIC1fB3WzLXQYhC5ZKbwGXsDsfGoQFSyXmDFahRtOD/swwCFmwFIrhdOEvfn6WLFjRmsk5dOMNg5AFS2FZwE/YkdcNooacwVLh/IhTcw+yNf9wsYMsWArTW/RkAHMMwoKlknAGq2Y+Zh/6MdUgZMFSuCq4hY48bBCSBSsK8/kF2zDYIGTBUvgmciQH8blBVIszWCqclwir6ym24SqLqSxYisdAtuEKlhiEBUsWrEB9yH705QuDkAVLcVnA5ezECIOQUuNHmqqaxQVsy7MGIQuW4vQWPTjJPWWqxLkHeRalo5K72YrrTUsWLMX9UnYX23K3QfjWKM+iIIyiJ/39xqAsWMqCKfRnP3d6XwtvKqvCuVh7ba9Fp7ETrxmELFjKjmfZjgvdIWsNnHuQZ1ExLeF6OvBPtxKVBUvZ+2x9HVtxt9+W861RRXyWadWeYmsu8COeLFjKqsn0Z2e/WWjBkmdRikbTi758ZhCyYCnbRrILJzHNIHxrVOKcwfq+SQxgJ14yCFmwlAcV3EUHrndZtwVLFqwiWsjVbM0tvtLIgqU8mckFdOVlg/iWbwKyYCX5Me5utuISV13JgqU8eovdOZgvDQJwBkueRcl5nm7097VFFizl2ZNsw5UsNAjfGpUAZ7DgXQ5gb0YbhCxYyrt5XEp710lYsORZVLBJDKATT3siyIIl/dcEBrADg3xrlAqS5xms+VzNVn5UkwVL+r73OJC+jMvt8fu2IGt6zYvlP9iSS5jrKSALlrQqT7EDZ+X0NqyLHX4lUDTyp4L76Mg53r5ZFixpzZ/Ab87pJ1E/eyuJ50/eDKEbx/KJQy8LlrR2+VxLMc+BV8HyNYM1gj3p4/cFZcGSqmMSA9iep3J0xM5gqXD5mcF6n370YKhDLguWVH3j6Mu+jMzJ0c53wFWwfMxgfc5JbMuDVDrgsmBJNfUcO9GHMTk4UmewVLjsz2B9zSVszV1UONiyYEmFGkJX+vFRxo/SNVgqXLZnsKZzCZtxNYscaFmwpGRU8iBb049PM3yMzmDJgrV6M7iCLbna22rJgiUlrYIH2ZoBTMro8TmDpcJl8xLhXK5mSy5njgMsC5ZUrM/nt7AFAzK5paAzWEriGZK9Dx5XsymXMNvBlQVLKq7F3EI7LsvcC64zWLJgrWwOv2czLmGmAytJ6VmH3zOLysz8bO2QqmB9MvN8mMkVtHBAJak0mnABkzLyhtLU4VTBemfiuTCbqyxXklRqjbiAr6J/S3GbUSVh1+ifCdO4nOYOpCSFoR4D+DTqtxVvVqsk7Bz1s2AKP6WRgyhJYanNibwX7VuL91RTErpE+wwYz7k0cAAlKUxl9GVElG8vNzl4SsD2UZ7979KfOg6essVtGpQtlTzJzuzGkOge+UcOnhIQ30ajozmJHbgrJ7eplqToded+lkb0Gf4gh0wJaBfVzNUz9HLIJCk+m3ANMyN5q9nQ4VICNovkfF/KvXR2uCQpXo05k3HBv9187EApERtHUK7mcB2bOlSSFL9yDmFo0G85dzpISkTLwMvV5/zYLXUlKVs6cTMLAn3bOcLhUSLWDbhcjaI/tR0iScqiDfktXwf3xjOXhg6NEtE0yGq1jIfZzcGRpGyrxzE8T0VAbz+3OyhKSIMAb31zJZs4MJKUF225iqmBfLrv4HAoIXUCuyh4prOzkpQ/dTmK51he4jehfzoQSkwZo4KoVov5D90dDknKsy34A5NL9kY0gRYOgRJUm58xv6Tl6jN+6b5ukiSAOhzO0yWYy1ro0l8VwZYMKdG81f308RZskqSVbcLPGZvi29ESDjN0FUUZpzAj1XI1jh+zvsFLklanI7/l01T2s97XsFVELbkvpW1G7mBX45YkVUV3rivqyqx32NaQVXR9+bKodxR8iuP8nqAkqXrK2ZXrmJb421IFN/umpJQ05CqWFaFcvcfFtDReSVJN1edw7mNOYm9MUzjAUJWqXXgvwWr1AZfRzlAlScnUrIO4PYHZrH+7EFglUJfLWFTw2fsF19DZMCVJSStnV67i4xq+PU30W4MqoS15tsbVagZ3sTdlhihJKp4yuvIrXq3WypYF/IkmRqcSn7knVvtm5xO4kb2pZXiSpLSsw1HczMQq7Hd1M62NS0FozMVV3CHrU65jV7cNlSSValZga07mH4xh6Sq3X7yMTQxJQWnGb5i0hq9hPMT5bGVMUmFvDZKS0oiObEEbmlMbmMJ4RjLJWBSkWuzB3uzMlqxHA+YxnfF8xChe5gPDkSRJkiRJkiRJkiRJkiRJkiRJkiRJkiRJkiRJkiRJkiRJkiRJkiRJkiRJkiRJkiRJkiRJkiRJkiRJkiRJkiRJkiRJkiRJkiRJkiRJkiRJkiRJkiRJkiRJkiRJkiRJkiRJkiRJkiRJkiRJkiRJkiRJkiRJkiRJkiRJkiRJkiRJkiRJkiRJkiRJkiRJkiRJkiRJmfP/AFYGHjSeg5QeAAAAJXRFWHRkYXRlOmNyZWF0ZQAyMDIzLTA0LTE3VDA4OjM0OjQxKzAwOjAwTuTlPgAAACV0RVh0ZGF0ZTptb2RpZnkAMjAyMy0wNC0xN1QwODozNDo0MSswMDowMD+5XYIAAAAASUVORK5CYII=;" vertex="1" parent="1">
          <mxGeometry x="560" y="810" width="70" height="70" as="geometry" />
        </mxCell>
        <mxCell id="GIJtF38X3H_XDyXdE6d2-44" value="GitHub Repo" style="text;html=1;align=center;verticalAlign=middle;whiteSpace=wrap;rounded=0;fontStyle=1;fontColor=#07040D;" vertex="1" parent="1">
          <mxGeometry x="550" y="890" width="90" height="30" as="geometry" />
        </mxCell>
        <mxCell id="GIJtF38X3H_XDyXdE6d2-48" value="GitHub Action" style="text;html=1;align=center;verticalAlign=middle;whiteSpace=wrap;rounded=0;fontStyle=1;fontColor=#07040D;" vertex="1" parent="1">
          <mxGeometry x="760" y="890" width="90" height="30" as="geometry" />
        </mxCell>
        <mxCell id="GIJtF38X3H_XDyXdE6d2-52" value="Update Code" style="text;html=1;align=center;verticalAlign=middle;whiteSpace=wrap;rounded=0;fontStyle=1;fontColor=#ed7100;" vertex="1" parent="1">
          <mxGeometry x="650" y="810" width="90" height="30" as="geometry" />
        </mxCell>
        <mxCell id="GIJtF38X3H_XDyXdE6d2-56" style="edgeStyle=orthogonalEdgeStyle;rounded=0;orthogonalLoop=1;jettySize=auto;html=1;exitX=1;exitY=0.5;exitDx=0;exitDy=0;entryX=1;entryY=0.5;entryDx=0;entryDy=0;entryPerimeter=0;strokeWidth=2;" edge="1" parent="1" source="GIJtF38X3H_XDyXdE6d2-27" target="GIJtF38X3H_XDyXdE6d2-45">
          <mxGeometry relative="1" as="geometry">
            <Array as="points">
              <mxPoint x="1100" y="845" />
              <mxPoint x="1100" y="677" />
            </Array>
          </mxGeometry>
        </mxCell>
        <mxCell id="GIJtF38X3H_XDyXdE6d2-58" style="edgeStyle=orthogonalEdgeStyle;rounded=0;orthogonalLoop=1;jettySize=auto;html=1;exitX=0.5;exitY=0;exitDx=0;exitDy=0;entryX=0.001;entryY=0.165;entryDx=0;entryDy=0;entryPerimeter=0;strokeWidth=2;" edge="1" parent="1" source="GIJtF38X3H_XDyXdE6d2-27" target="GIJtF38X3H_XDyXdE6d2-35">
          <mxGeometry relative="1" as="geometry">
            <Array as="points">
              <mxPoint x="805" y="681" />
              <mxPoint x="580" y="681" />
              <mxPoint x="580" y="392" />
            </Array>
          </mxGeometry>
        </mxCell>
        <mxCell id="GIJtF38X3H_XDyXdE6d2-60" value="Build and Push Image" style="text;html=1;align=center;verticalAlign=middle;whiteSpace=wrap;rounded=0;fontStyle=1;fontColor=#ed7100;" vertex="1" parent="1">
          <mxGeometry x="893" y="810" width="150" height="30" as="geometry" />
        </mxCell>
        <mxCell id="GIJtF38X3H_XDyXdE6d2-62" value="" style="html=1;verticalLabelPosition=bottom;align=center;labelBackgroundColor=#ffffff;verticalAlign=top;strokeWidth=2;strokeColor=#0080F0;shadow=0;dashed=0;shape=mxgraph.ios7.icons.user;" vertex="1" parent="1">
          <mxGeometry x="950" y="50" width="90" height="90" as="geometry" />
        </mxCell>
        <mxCell id="GIJtF38X3H_XDyXdE6d2-63" value="User" style="text;html=1;align=center;verticalAlign=middle;whiteSpace=wrap;rounded=0;fontStyle=1;fontColor=#0080f0;fontSize=13;" vertex="1" parent="1">
          <mxGeometry x="953" y="20" width="90" height="30" as="geometry" />
        </mxCell>
        <mxCell id="GIJtF38X3H_XDyXdE6d2-65" value="" style="endArrow=classic;html=1;rounded=0;exitX=0.522;exitY=1;exitDx=0;exitDy=0;exitPerimeter=0;strokeWidth=2;" edge="1" parent="1" source="GIJtF38X3H_XDyXdE6d2-62" target="GIJtF38X3H_XDyXdE6d2-28">
          <mxGeometry width="50" height="50" relative="1" as="geometry">
            <mxPoint x="980" y="220" as="sourcePoint" />
            <mxPoint x="1030" y="170" as="targetPoint" />
          </mxGeometry>
        </mxCell>
      </root>
    </mxGraphModel>
  </diagram>
  <diagram name="Trang-2" id="ZYaXzhrXu7H3vEC-kaCQ">
    <mxGraphModel dx="729" dy="376" grid="1" gridSize="10" guides="1" tooltips="1" connect="1" arrows="1" fold="1" page="1" pageScale="1" pageWidth="827" pageHeight="583" math="0" shadow="0">
      <root>
        <mxCell id="l-Tpt4Chwf_FJ7SH6TVP-0" />
        <mxCell id="l-Tpt4Chwf_FJ7SH6TVP-1" parent="l-Tpt4Chwf_FJ7SH6TVP-0" />
        <mxCell id="l-Tpt4Chwf_FJ7SH6TVP-2" value="&lt;b&gt;VPC Default&lt;/b&gt;" style="points=[[0,0],[0.25,0],[0.5,0],[0.75,0],[1,0],[1,0.25],[1,0.5],[1,0.75],[1,1],[0.75,1],[0.5,1],[0.25,1],[0,1],[0,0.75],[0,0.5],[0,0.25]];outlineConnect=0;gradientColor=none;html=1;whiteSpace=wrap;fontSize=12;fontStyle=0;container=1;pointerEvents=0;collapsible=0;recursiveResize=0;shape=mxgraph.aws4.group;grIcon=mxgraph.aws4.group_vpc2;strokeColor=#8C4FFF;fillColor=none;verticalAlign=top;align=left;spacingLeft=30;fontColor=#AAB7B8;dashed=0;strokeWidth=1;" vertex="1" parent="l-Tpt4Chwf_FJ7SH6TVP-1">
          <mxGeometry x="550" y="240" width="890" height="370" as="geometry" />
        </mxCell>
        <mxCell id="l-Tpt4Chwf_FJ7SH6TVP-3" value="&lt;b&gt;Region us-east-1&lt;/b&gt;" style="points=[[0,0],[0.25,0],[0.5,0],[0.75,0],[1,0],[1,0.25],[1,0.5],[1,0.75],[1,1],[0.75,1],[0.5,1],[0.25,1],[0,1],[0,0.75],[0,0.5],[0,0.25]];outlineConnect=0;gradientColor=none;html=1;whiteSpace=wrap;fontSize=12;fontStyle=0;container=1;pointerEvents=0;collapsible=0;recursiveResize=0;shape=mxgraph.aws4.group;grIcon=mxgraph.aws4.group_region;strokeColor=#00A4A6;fillColor=none;verticalAlign=top;align=left;spacingLeft=30;fontColor=#147EBA;strokeWidth=1;" vertex="1" parent="l-Tpt4Chwf_FJ7SH6TVP-1">
          <mxGeometry x="500" y="180" width="980" height="610" as="geometry" />
        </mxCell>
        <mxCell id="l-Tpt4Chwf_FJ7SH6TVP-4" value="Availability Zone" style="fillColor=none;strokeColor=#147EBA;dashed=1;verticalAlign=top;fontStyle=0;fontColor=#147EBA;whiteSpace=wrap;html=1;strokeWidth=1;" vertex="1" parent="l-Tpt4Chwf_FJ7SH6TVP-3">
          <mxGeometry x="110" y="112" width="330" height="288" as="geometry" />
        </mxCell>
        <mxCell id="l-Tpt4Chwf_FJ7SH6TVP-5" value="&lt;b&gt;&amp;nbsp;Subnet Private A&lt;/b&gt;" style="points=[[0,0],[0.25,0],[0.5,0],[0.75,0],[1,0],[1,0.25],[1,0.5],[1,0.75],[1,1],[0.75,1],[0.5,1],[0.25,1],[0,1],[0,0.75],[0,0.5],[0,0.25]];outlineConnect=0;gradientColor=none;html=1;whiteSpace=wrap;fontSize=12;fontStyle=0;container=1;pointerEvents=0;collapsible=0;recursiveResize=0;shape=mxgraph.aws4.group;grIcon=mxgraph.aws4.group_security_group;grStroke=0;strokeColor=#00A4A6;fillColor=#E6F6F7;verticalAlign=top;align=left;spacingLeft=30;fontColor=#147EBA;dashed=0;" vertex="1" parent="l-Tpt4Chwf_FJ7SH6TVP-3">
          <mxGeometry x="130" y="150" width="290" height="230" as="geometry" />
        </mxCell>
        <mxCell id="l-Tpt4Chwf_FJ7SH6TVP-6" value="Availability Zone" style="fillColor=none;strokeColor=#147EBA;dashed=1;verticalAlign=top;fontStyle=0;fontColor=#147EBA;whiteSpace=wrap;html=1;strokeWidth=1;" vertex="1" parent="l-Tpt4Chwf_FJ7SH6TVP-3">
          <mxGeometry x="550" y="111" width="330" height="288" as="geometry" />
        </mxCell>
        <mxCell id="l-Tpt4Chwf_FJ7SH6TVP-7" value="&lt;b&gt;&amp;nbsp;Subnet Private B&amp;nbsp;&lt;/b&gt;" style="points=[[0,0],[0.25,0],[0.5,0],[0.75,0],[1,0],[1,0.25],[1,0.5],[1,0.75],[1,1],[0.75,1],[0.5,1],[0.25,1],[0,1],[0,0.75],[0,0.5],[0,0.25]];outlineConnect=0;gradientColor=none;html=1;whiteSpace=wrap;fontSize=12;fontStyle=0;container=1;pointerEvents=0;collapsible=0;recursiveResize=0;shape=mxgraph.aws4.group;grIcon=mxgraph.aws4.group_security_group;grStroke=0;strokeColor=#00A4A6;fillColor=#E6F6F7;verticalAlign=top;align=left;spacingLeft=30;fontColor=#147EBA;dashed=0;" vertex="1" parent="l-Tpt4Chwf_FJ7SH6TVP-3">
          <mxGeometry x="570" y="150" width="290" height="230" as="geometry" />
        </mxCell>
        <mxCell id="l-Tpt4Chwf_FJ7SH6TVP-8" value="" style="sketch=0;outlineConnect=0;fontColor=#232F3E;gradientColor=none;fillColor=#8C4FFF;strokeColor=none;dashed=0;verticalLabelPosition=bottom;verticalAlign=top;align=center;html=1;fontSize=12;fontStyle=0;aspect=fixed;pointerEvents=1;shape=mxgraph.aws4.application_load_balancer;" vertex="1" parent="l-Tpt4Chwf_FJ7SH6TVP-3">
          <mxGeometry x="458" y="73" width="78" height="78" as="geometry" />
        </mxCell>
        <mxCell id="l-Tpt4Chwf_FJ7SH6TVP-9" value="ALB" style="text;html=1;align=center;verticalAlign=middle;whiteSpace=wrap;rounded=0;fontStyle=1;fontColor=#8c4fff;" vertex="1" parent="l-Tpt4Chwf_FJ7SH6TVP-3">
          <mxGeometry x="450" y="150" width="90" height="30" as="geometry" />
        </mxCell>
        <mxCell id="l-Tpt4Chwf_FJ7SH6TVP-10" value="" style="sketch=0;outlineConnect=0;fontColor=#232F3E;gradientColor=none;fillColor=#ED7100;strokeColor=none;dashed=0;verticalLabelPosition=bottom;verticalAlign=top;align=center;html=1;fontSize=12;fontStyle=0;aspect=fixed;pointerEvents=1;shape=mxgraph.aws4.auto_scaling2;" vertex="1" parent="l-Tpt4Chwf_FJ7SH6TVP-3">
          <mxGeometry x="471" y="260" width="48" height="48" as="geometry" />
        </mxCell>
        <mxCell id="l-Tpt4Chwf_FJ7SH6TVP-11" value="" style="sketch=0;points=[[0,0,0],[0.25,0,0],[0.5,0,0],[0.75,0,0],[1,0,0],[0,1,0],[0.25,1,0],[0.5,1,0],[0.75,1,0],[1,1,0],[0,0.25,0],[0,0.5,0],[0,0.75,0],[1,0.25,0],[1,0.5,0],[1,0.75,0]];outlineConnect=0;fontColor=#232F3E;fillColor=#ED7100;strokeColor=#ffffff;dashed=0;verticalLabelPosition=bottom;verticalAlign=top;align=center;html=1;fontSize=12;fontStyle=0;aspect=fixed;shape=mxgraph.aws4.resourceIcon;resIcon=mxgraph.aws4.ecs;" vertex="1" parent="l-Tpt4Chwf_FJ7SH6TVP-3">
          <mxGeometry x="140" y="181" width="62" height="62" as="geometry" />
        </mxCell>
        <mxCell id="l-Tpt4Chwf_FJ7SH6TVP-12" value="" style="fillColor=none;strokeColor=#e86e00;verticalAlign=top;fontStyle=0;fontColor=#147EBA;whiteSpace=wrap;html=1;strokeWidth=1;" vertex="1" parent="l-Tpt4Chwf_FJ7SH6TVP-3">
          <mxGeometry x="140" y="180" width="710" height="191" as="geometry" />
        </mxCell>
        <mxCell id="l-Tpt4Chwf_FJ7SH6TVP-13" value="AWS Fargate" style="text;html=1;align=center;verticalAlign=middle;whiteSpace=wrap;rounded=0;fontStyle=1;fontColor=#000000;" vertex="1" parent="l-Tpt4Chwf_FJ7SH6TVP-3">
          <mxGeometry x="237" y="310" width="90" height="28" as="geometry" />
        </mxCell>
        <mxCell id="l-Tpt4Chwf_FJ7SH6TVP-14" value="" style="sketch=0;points=[[0,0,0],[0.25,0,0],[0.5,0,0],[0.75,0,0],[1,0,0],[0,1,0],[0.25,1,0],[0.5,1,0],[0.75,1,0],[1,1,0],[0,0.25,0],[0,0.5,0],[0,0.75,0],[1,0.25,0],[1,0.5,0],[1,0.75,0]];outlineConnect=0;fontColor=#232F3E;fillColor=#ED7100;strokeColor=#ffffff;dashed=0;verticalLabelPosition=bottom;verticalAlign=top;align=center;html=1;fontSize=12;fontStyle=0;aspect=fixed;shape=mxgraph.aws4.resourceIcon;resIcon=mxgraph.aws4.fargate;" vertex="1" parent="l-Tpt4Chwf_FJ7SH6TVP-3">
          <mxGeometry x="237" y="250" width="58" height="58" as="geometry" />
        </mxCell>
        <mxCell id="l-Tpt4Chwf_FJ7SH6TVP-15" value="" style="sketch=0;points=[[0,0,0],[0.25,0,0],[0.5,0,0],[0.75,0,0],[1,0,0],[0,1,0],[0.25,1,0],[0.5,1,0],[0.75,1,0],[1,1,0],[0,0.25,0],[0,0.5,0],[0,0.75,0],[1,0.25,0],[1,0.5,0],[1,0.75,0]];outlineConnect=0;fontColor=#232F3E;fillColor=#ED7100;strokeColor=#ffffff;dashed=0;verticalLabelPosition=bottom;verticalAlign=top;align=center;html=1;fontSize=12;fontStyle=0;aspect=fixed;shape=mxgraph.aws4.resourceIcon;resIcon=mxgraph.aws4.fargate;" vertex="1" parent="l-Tpt4Chwf_FJ7SH6TVP-3">
          <mxGeometry x="257" y="230" width="58" height="58" as="geometry" />
        </mxCell>
        <mxCell id="l-Tpt4Chwf_FJ7SH6TVP-16" value="" style="sketch=0;points=[[0,0,0],[0.25,0,0],[0.5,0,0],[0.75,0,0],[1,0,0],[0,1,0],[0.25,1,0],[0.5,1,0],[0.75,1,0],[1,1,0],[0,0.25,0],[0,0.5,0],[0,0.75,0],[1,0.25,0],[1,0.5,0],[1,0.75,0]];outlineConnect=0;fontColor=#232F3E;fillColor=#ED7100;strokeColor=#ffffff;dashed=0;verticalLabelPosition=bottom;verticalAlign=top;align=center;html=1;fontSize=12;fontStyle=0;aspect=fixed;shape=mxgraph.aws4.resourceIcon;resIcon=mxgraph.aws4.fargate;" vertex="1" parent="l-Tpt4Chwf_FJ7SH6TVP-3">
          <mxGeometry x="690" y="230" width="58" height="58" as="geometry" />
        </mxCell>
        <mxCell id="l-Tpt4Chwf_FJ7SH6TVP-17" value="" style="sketch=0;points=[[0,0,0],[0.25,0,0],[0.5,0,0],[0.75,0,0],[1,0,0],[0,1,0],[0.25,1,0],[0.5,1,0],[0.75,1,0],[1,1,0],[0,0.25,0],[0,0.5,0],[0,0.75,0],[1,0.25,0],[1,0.5,0],[1,0.75,0]];outlineConnect=0;fontColor=#232F3E;fillColor=#ED7100;strokeColor=#ffffff;dashed=0;verticalLabelPosition=bottom;verticalAlign=top;align=center;html=1;fontSize=12;fontStyle=0;aspect=fixed;shape=mxgraph.aws4.resourceIcon;resIcon=mxgraph.aws4.fargate;" vertex="1" parent="l-Tpt4Chwf_FJ7SH6TVP-3">
          <mxGeometry x="670" y="250" width="58" height="58" as="geometry" />
        </mxCell>
        <mxCell id="l-Tpt4Chwf_FJ7SH6TVP-18" value="AWS Fargate" style="text;html=1;align=center;verticalAlign=middle;whiteSpace=wrap;rounded=0;fontStyle=1;fontColor=#000000;" vertex="1" parent="l-Tpt4Chwf_FJ7SH6TVP-3">
          <mxGeometry x="670" y="310" width="90" height="28" as="geometry" />
        </mxCell>
        <mxCell id="l-Tpt4Chwf_FJ7SH6TVP-19" value="" style="sketch=0;points=[[0,0,0],[0.25,0,0],[0.5,0,0],[0.75,0,0],[1,0,0],[0,1,0],[0.25,1,0],[0.5,1,0],[0.75,1,0],[1,1,0],[0,0.25,0],[0,0.5,0],[0,0.75,0],[1,0.25,0],[1,0.5,0],[1,0.75,0]];outlineConnect=0;fontColor=#232F3E;fillColor=#ED7100;strokeColor=#ffffff;dashed=0;verticalLabelPosition=bottom;verticalAlign=top;align=center;html=1;fontSize=12;fontStyle=0;aspect=fixed;shape=mxgraph.aws4.resourceIcon;resIcon=mxgraph.aws4.ecr;" vertex="1" parent="l-Tpt4Chwf_FJ7SH6TVP-3">
          <mxGeometry x="458.5" y="460" width="73" height="73" as="geometry" />
        </mxCell>
        <mxCell id="l-Tpt4Chwf_FJ7SH6TVP-20" value="ECS Cluster" style="text;html=1;align=center;verticalAlign=middle;whiteSpace=wrap;rounded=0;fontStyle=1;fontColor=#ed7100;fontSize=13;" vertex="1" parent="l-Tpt4Chwf_FJ7SH6TVP-3">
          <mxGeometry x="205" y="194" width="90" height="30" as="geometry" />
        </mxCell>
        <mxCell id="l-Tpt4Chwf_FJ7SH6TVP-21" value="Deploy on ECS" style="text;html=1;align=center;verticalAlign=middle;whiteSpace=wrap;rounded=0;fontStyle=1;fontColor=#ed7100;" vertex="1" parent="l-Tpt4Chwf_FJ7SH6TVP-3">
          <mxGeometry x="120" y="470" width="150" height="30" as="geometry" />
        </mxCell>
        <mxCell id="l-Tpt4Chwf_FJ7SH6TVP-22" value="ECR" style="text;html=1;align=center;verticalAlign=middle;whiteSpace=wrap;rounded=0;fontStyle=1;fontColor=#ed7100;fontSize=16;" vertex="1" parent="l-Tpt4Chwf_FJ7SH6TVP-3">
          <mxGeometry x="450" y="540" width="90" height="30" as="geometry" />
        </mxCell>
        <mxCell id="l-Tpt4Chwf_FJ7SH6TVP-23" value="" style="shape=image;verticalLabelPosition=bottom;labelBackgroundColor=default;verticalAlign=top;aspect=fixed;imageAspect=0;image=data:image/png,iVBORw0KGgoAAAANSUhEUgAAARgAAAEYCAYAAACHjumMAAAydklEQVR4nOydDYgdV3bnT82IpRIEWwKz8wxGLtUYRmaGdos4WGJadDWuME9kBrUYZ2WPO0hiJm2JJFgGx6omztZ9xLNd9jpIZj1Y7jhYYtuxRBzUghn0ZrdCV6c1SCYe1O51kMKa55IwzAsYpnZXJJVFUMvtvs9qtfrj3Vv31sd75wdNHM2rW7f7X+/Uueeee84W6AFMPzUAYDf7+QYA1Og/s5+1SADgKvvvGwDwzwDQjFztao7TRpCeRyt6AjwYjrcTAB7TLXtQt2z634+wH13ibT4HgE8BIEpa4adJK/wEAD6Og0Yk8R4I0heU3sBQo2I45AQA2Bt4JHmwAACnIlc7W+AcEKRSlM7A6NbwVt2yn9Qt26Y/APAtACjTUi6my6qkFQZJK/xZ0go/Slpzd4qeFIKUkVIZGNNPDwPAJIuhVAXq2bwQuVpY9EQQpGwUamB0a3iLbtlDhkMOAcDTkmMpeXM1Dsg5AJiLg8ZC0ZNBkDJQmIFhOz/vA0C9qDko5EzkakeKngSCFM1Xirip4Xi7AeCzHjUulMOmn84ajldkUBpBCic3D4Yth75vOKTeA8uhbvkCAN5pT9k/SVpznxc9GQTJm9wMjOmn7zPD0o+0AWBf5GoYm0H6CuVLpNr47PdNP/2sj40LsF2xa2zZ9O2iJ4MgeaHUgzH99CQAHFd5jw1YeRxgNTsL3Aqn83omcrWZgu6PILmhxMAYjmcaDnlLcRA3BoBP6E8ckPaKM0VRt2n9huMZzNDQn68bDnmEGZ9B1VnDSSt8M2mFfxIHjUTlfRCkSKQbGJYs967scVewAACNPDwA00+fZx6YKmMTxQHZEweNtqLxEaRQpBoYw/G+YzikKXPMFVDDMhG5mqrx18X000MAQBQZmtORqx1TMC6CFI4UA7NiC/qUxNgGXTo0k1b406QV/m0cNGJJ4wpjON6w4ZBRVhbicYlnpGbigDQwAxjpNaQYGLaUOCVjLAZdOhwo8xfO9NM6y0Q2ZI0ZB2RXmX9nBOHlq1kupp7LQyeiPwaAVwDg32WcC/VYgjggL7anRo4lrblSxyXioPEpALxBjeGWbeZ2GZ4bOz3+i7L/7gjSLZk8GMPxDhrO0gG/rNC39kjkaoUvg0Qx/XQSAFwZY6Eng/QKwh4MC+ieBoCtGe7/OQD85/aU/cdf/M2RyhoXWPZo/g4A5nTLTthWt7BHxzyZv01ac7flzhJB8kXIg5G0FR2zLdobGccpHZJ20+jf51HcwkaqDPdRAXZCOKtxoV+aHb1oXGDZm/k5ABxgcSVRDMMhByVOC0FyR8DALGXoZmGmPWXbVY63dEPkajNJK6yzDGNRXjYcz5Y4LQTJFa4lUsazRX17Bsf002vs+IEoI1iSE6kiXXswtfHZ72cxLkkrHOtH40JpT9nfo55bhiEuGY73mMQpIUgudO3BsJILIqny1HPZg7VQMgfHZyJXOyB5SgiilE09GN0a3mL66QVR48I8l743LrAclzmTtELRXJnvmn76nOQpIYhSujAwNl0ajQqO/0x7auRvBa/tSdpTI68CwBmBS7cAwGnW3RJBKsGmSyTTT6lLf1hgbOkuPTv/89yKei0xywKeiwNypkrtXTMsOd3I1V5VMCUEkc6GHgyr/i9S6rLdnrKlpM0bjvckXaKZfvorALjEvKnOF9NgLWU9wyH/y/TT2dr47CEZ91VN0gp/JJgnc5QVykKQ0rOuB8P6Fn0mcFqYehU7ZOS5mH5KqPEQuHSBncYutUeTIeiLfZeQSrCmB6Nbw1sESxF8HgdkjwzjUhufPSloXCiDhkPmTT89UeaYReRqZwBgWuDSw1g8HKkC6xgYe0iwnu6bMtL/TT89qVt21mLhDwGAbzjkepl3X+KA/JnIdYZDfiR/NggilzUNDOsVzctCe8p+O+uEDMf7joJOBG+afnrJcLxhyeNmhi3jRgXiMXWMxSBlZ80YjOmn/8rZeZF+OR6UFHe5kGFbvBsacUD8slXzF4zHYCwGKTX3eTDsQedt6xpKPLyo+nCfZzhkUvE9uGHxGN6g9CgLxiNIKbnHwOjW8FYA4P7yxcFS4anMmH76tMwatxtw3PTT66afero1/FAO9+uKpBW+w3kJ/VtlPd2OIMpYZWDsJwVqy0Zx0LgoaT55BmN3AgCpjYfzpp8qbbLWLUkr/InAZU+zGj0IUjpWGxje5UkSB0Rmtu5uiWN1C/1yflYbn32r6C8qa81yVODSJxVMB0Eyc0+QV6BuidTjAKafprLGysDTkaudL3ICAscIzkWu9ozCKSGIEF96MCwh7Vs8Fyet8KdKZtUdYdIKxzJWjFuLadNP3zcc75BuDfMGu6WQtMIPOC8ZUjQVBMnECgNDTvB2KkxaYaEnpdtTI+9FrvYoAIywIwoy2LIc1yBnauPhBUljcpG0wp9xXvKQ6acqt/YRRIiVMRje+MtCGdq5wvIWbyh44nsz6nTZaDierHa43SJSP6d0SYQIsmRg2PKIN8A5oWZKYkSudjEOyINJKzyVsZr/agYNh/yD6acndGv4AYnjrgsz3Lw1Yw4XtaRDkPXoeDC89V4XIlfL2vdHOnHQaLenRl4AgEclx2aWzjXlvKXd4Py8oVt2aQ92Iv3JkoHRLZu34j3vw58rkatF7Sl7LwAQALgqcWj6Bb7OzjUpPc1MfwcA+ITzsm8qmg6CCNExMDxvvrgK3QGS1twXkas1IlfbQ70PiUPrywcNyWXTT4nheCqXJR9xfv4RRfNAECE6SySeB5P3rVo4katNxAEZAQDZ2+qe4ZBZw/EOsho6UokDwhXsNRzClWaAIKrpCwMDy/GZMHK17wHAEclB4N2GQ87VxsP/JnHMDh9zfr4056oQhPIVdhq3azc/Dkilm7GzU8sqtrSfZrWDZR7W5P1b572djiAb8hWB8z+Vb1gfudr5OCA74oAcFyiRsBGjAHC9Nj4rJQCctELeuaGBQUqFiIH5Z0VzyZU4aERx0HgjDsgeAJDZ97mmW/abMgZKWnMJ59x000+z9MBGEKlQA/MNzmtKXamflzhotCNXG5F8rmnQ9NO3JAV+eeeEXgxSGr7C+0CWvRWIKCvONZ2SNORR3bIflzDOP3F+voiSFwiyJl/hPCJQqjq2KmhP2X8SB6QOAKcB4HaWsXTL/l0JU8K+3khl4TUwMrNiS0nSmrsTB42fR652LA7I72Q5pc3av+TNwwXcE0HWZNPm9/1MHDSoQd2VIe4k49wSrweD5TOR0oAGZhPYuabfZueaPue8PHPAVWK3BgTJHTQwXdA518SWTDxg+QSkr5F+fqYX0a3hrbplf99wyIucl95RNCUEqQRoYDaBpf5fEGwIx7ukWuv+GFNBKssWtvXcrSvfNwWNDMczdMv+QwB4MUMzOBmJe7wGpud3+pDqsIU9kN2+nfsiS9T00+MA4GXtMhkHRMYRBN45/JuEeyKIFLiDvPTNrmYq5cD0U2pYTkpqYSsjSQ7PFiGV5St41mWZ2vjsftNPr7DtaBk0k1Y4J2Ec3sQ5mQc3ESQTWwROR9d6oWRDB+qRGQ4RDeKuRztytX2SxuL1YPBoAVIaqIFpsnhDt3y9F96SrA/1d9jWs8xatknSCkX6S9+Hbg1v5TQwtzExDykTWyJXu2r63beENhzySByUuqnApph+ehAAzikYmnoPR9pTI1K8CN2yeQ3fFzLuiyCy6AR5efI1KrtVbTjeE6af0uXQtOSh20krfDEOyJ7I1WQuUXhr9fTM0hXpDTqJdp9yFIyu5K6G6aeEcynYLU2J8ZZ7MBzC+7fuyVo9SHXpGBieB7NymaWmn54EgOMKhg7jgDyjYNwOXH/rqhdkR3qPpSVS0go/5bnI9NPnlc1IEro1/JDpp57pp9cVGJerSSscjVxthPWRVgVvdTrcQUJKxZIHk7TCT3SLa5eWfmHfUDarjLDC1xcUeFvUQ9gnOc6yJux34J0/bx8lBFFKJ8j7S87rTNNPDymYTyYMx9tp+um7AHBNsnH5AgBIe8r+7TyMC2OS8/NRr9ZLRqrLkgcTB43PDWepTSlPUJEAwFl1U+PD9NPnWB1d2URxQEby/PKyHJ0652Wl9SiR/mXlWSTeavqm4XjDkufDhW4NG4bjPWf66SUAkNKLaAVR0gr/KA7Io3l7BgLFwpM4ICryehAkE9rK/8f0019zHvI7FbnaC7ImY/pp9xl/ywHNREGbDjrmMdZithCYweTxYK5GrrZH4ZQQRIjVBaducH5hi+zBoyof53DkaucVjd0tuHuE9AT3lGtIWmHAef3jpp/yxgo2orBzNEkrPB0HZEfRxoUFqblKRUiqO4Mg0lltYH7GeT31gN43HE9WcesivigRAOxoT40cK3oXxnA86pUdFrj05wqmgyCZWW1gPhJwtw3dsp+VNJ+3JY3TDVdXbD2XYntXt2yRrX9fcbIfggijrf4H009tAJjlHGchcrVdMiZk+ulnORxH8CNXm1B8Dy5YcfFfcbY6iSJX26FwWgiSiftKZkauFgoUjh40/ZQ3MWxNklaocrt1hp14LpVxMRyvxjKPeYzLHQA4onBaCJKZr67z71t1y+YN3g4BwFzSmsu03NiyzfxH3bJ5+w9tBl1CPBO5WiNpzWVuJSKb2ng4L7Bz9Pf091E0JQSRwnpFv4VqyRoOOZhtOktZxW0Fb+bDkavNSB5TCobj2YJb7rhzhJSeNQ1MHDQWAEAk0WzMcLzvZJ1U5GpnklboZxzmRhyQw3FAHoxc7WLWOanAcDzdcIhIjZokDsh7CqaEIFK5L8i7EtNPZwWLYR+Q4TGYfjoKAO8L9HieiQPyTBw0kqxzUAnLeRHZlm5Eriar+wGCKGO9GEyHOd2yxwDgNznHHdUt+/LtX569mWFu1JO6QY2Fbtn/jxmZBzZY1n0BAP89Dsjx9tTIj5PWXKn7QtfGZ3+4ZZv5nwQu/ShyNVlpAQiilA09GFh+y04CgCsw9o3I1R4Vm9baGI5nGg6hb/zHWLYr9VA+BICFOCDNsnssHVi/6esCnhksL/sapTnFjiAbsamB0a3hh2rj4T8INlxbaE/Z3yvjzk1R1MZnv61b9geCf8+wPWXvS1pzlTCkCLKpgYG71dWuCd5jJnK1A4LX9hwZEgnbkas9qGBKCKKMrnpTsypuotuio6afigQyew4W1BXNUi7lNjuCbMRmQd6VfKpb9g/WKPHQDaO6ZSe3f3n2FwLXVh66LHrg9878fYb2tFF7yj5y59c3/4/kqSGIUrpaInVg28YXMtzvTORqfZXezgK6VwRjLsCykHdgS1ikinS1ROoQudpM0gqzlKY8bPrpZ7Xx2SczjFEZauOzP2S7RaLG5dM4ILvQuCBVhcvAwPJhxD/J2EHQ1C37p70clzEcTzf99F3dst8R2YruEAfkxaJr1CBIFnhiMEuwBLbzumVvBYDHBe+7BQBGDYc8AgDXktZcz7yhDcezDYf8Jf39MgxzGwBeak+NYL4LUmm4YjCrYY3ks3yROoyW9bxQtxiOVzMccklSreDS1atBEBG4l0griQMiq1zAuSovmUw/NQyHvC/JuMRxQLDHEdITcC+RVpK05toAcFG3bJudExKls2Q6rFu2vmWb+Y9VyFY1HG/QcMiJLdvMcwDwiIQhL8cBGWYlKxCk8mRaInVgXzTRTN/1OBq5Wp41ernIcBJ6PWLW5A2NC9IzSDEwcNfI0GXCTlljsu6KH7BuBwtFFrc2HM/ULft3dcv+Lqs+x9VaZANuA8CbdFmExgXpNaQZGLgb6Lwu8cu3mjOsFkpuW7fsHNakQK/objkeuRrGXJCeRKqBgbtG5iAAvJwxLrMRnwDAR3Gw1LD/YwBoJ60wyhK30a3hrbplPwIA3zAcMsjODO1W2OHgU5bnUundMwTZCOkGpgPLB+Ftf5KVkLW//acV/Z0WVmbCstR9k3lZ1JA8zP6vqla0axHHAdmFSXRIr6PMwMDdHkuXsmSz9iDUqJQi/Z/pY68o4LV7Ha2osW6z4l4Ra7Z/o4Ap9x1V10ipgYFlT+YxwyEEAL4reBK7V6Diz7Sn7B/nXYCL9V36tuGQx5mntlPC0i9mS9VP4oBcpQ82K3GKCNCrGik3MB1MP30OAE7ndb+SEUauNpL3Tdly8KSkbOtuoA80waB19/S6RrkZGFi20jsNh+wHgKM5tIctAx/FAXkzaYXn80ocNBxvULfsZ3XLfqrAvzF9iD+IA/JB0grnqpA0mSf9pFGuBqaD4XiG4ZCTkhPVygQV69W8W4soSP6TAXXN95Uh5lQG+k2jQgxMB8Px6JrzRyzHRLRmSlm4AwCX6XIoDsh7cdD4NI+bUmOtW/bzumUfV5h/lBVqcK8mrfD19tTIz4qeTN70s0aFGpgOKzya0RILsBERAByJXC3Xdq6mn9IH1qvY36wSTfFk0e8alcLAdDD9lIrwFgA8XfRcOCiktILpp88DwKm87yuJviidihqVzMB0MBzPBIAnDYc4ADAEAA8VPSdGwvINFuKAUG/l53mfj9Kt4a/XxsNXAOCpim/7X40DcjwOGh8WPRHZoEZ3KaWBWQ0rNj7MgmNFuJp0CfRGHJBzRR5IZB7etR7agaMGew9ri9MToEb3UgkD00G3hnXdsncCwDeZdyMzGn+b9be+QQ1KHJA281Y+LkNKf218dr9u2ad7IBi+GvoAN9tT9jFWX6iyoEb3UykDsxKWQs171ulqJ1oOAP/G/i1cfV6pbLAT3VdyOHIRrVHQvSa5BMd6VLoDKGq0Nn1lYOKA1OOg8XN1s5KLbg1vrY2Hf84SE2U9uJ04UsTSx5dOo2+WQs5S2elD/DXdsgfpD4uPbZU0L2BHKSrlyaBGG9NvBsaNg8ar6mYlF9NPTwCAL2k4+tCeiwPSkLXkY+kFxwHgeYmxsUp5MqjRxvSVgQGA05GrHVM0JamwYGGWpm0rocu/ZyJXa0oY6z7YEZC3MrTGXUllAr+o0eYaZeoqUEGcoifQDbo1nLXdbIerSSs8HAfkQVUPLix5ho0bkauNxAHZkbRCnz2AotBlxhXD8Z6QOEXpoEbdadRvHgxlJO+MW14knFdps7MlhXgB7M1+idUuEeVq5Gp7JE5LKqjREptq1G8eDOWkbg2XtgCW6aeHAGBM8PI7AHCmPWUXusSIXC1uT9nfAwDCtv9F2E2/xIbjlU4r1OhLNtWoHw3MoG7Z3yl6EmtB18mssLlo9ufLkasdSVpzheftJK25LyJXa8QBEf0iUg6zThWlATW6jw016kcDA4ZDynZcfgnDIX8qeOkXAHC8PWX/heQpZSYOGhfjgFA3ekZwiNHa+Ox+ydMSBjVak3U16scYTIddZdqpYJXNPhO5Ng7I4TholL5RfoZe5oVUBFwNarQha2rUlx4M42TRE1jFu4LXUSN5XvJclBAHRDQHaTcLShYNarQ+a2rUzwbGptZat4ZlZjkKYfqpJ5CfcAcAfOraVqW2Shw0rsYBGRUIKurUWy0yOI8abcqaGvWzgYHltWP4wyInwEpTiJTW/GnkahNVeXA7sEZzrwtcOqhb9rCCKW0KatQ192nU7waG4hqOlyUXIBO6ZYsEMOM4IC8rmE4utKfsn7ADp1wYDnlKzYw2BjXqntUaoYEBqBkOuWI4Xp6dHb9Et2yRgNqROGj8o4Lp5ELSmvsCAPYJZJMWZWBQo+65R6N+3kVazQ1WhzS3nSV2PuQa5yncZuRq+xROq2tW1Od5mP3T/05a4UdJa66r9XttfHZSt2yX87bH8+y7hBpl06jK5fxk03mQduVlZAyHnOA94h8HpBTN69iOwewaPb0jADjQTQpA0grfFnh4CQDkaGBQoywa4RJpFYZDRLciRRBxvecUzIMLVnfk2hoPLrBSkbPdLDlZSQLec2EGy6bNC9Qog0ZoYO5n0PTTX5l+6unW8AOqbsJOovLmdhzPu8j4auiDazjkbzapOWsYDnmrm3NEcUCOsVIFPORy0ho1WiaLRmhg1oZaf1IbD+cVJnjxBpXbRfd8Nv100HDIdVYlbTN2Gw7ZtP0Mq9LG9XsZDslr1w81yqgRGpiNoW7er2rjs2/J3mUyHMI7XiDz/rzUxme/z+qf8Bhcr5sPxQE5xZnY9S2OzwqDGt1FVCM0MJuj65Z91HDINdNPL0j0aLjiCHFALku6Lzf0rahb9rRAzdmuWnewJQXP75eLgUGN7iKqERoYPkYB4Nemn16vjc/+V8PxDmYIOPJ+SQppULbirSiSpt918e6kFfLs3Bmmn+YR6EWNViCiEW5Ti7FTt2z680ew7EoDO+r+MTvY1k1AjCuAnGd+TgfWikPkrdjhXLcfpA+vbnEd9amzHlYqQY1WIKJRPxmYBgDsFwjcdcuo4JZmN+T+4LJtztmMrTh4AoP/zDn2SdNPy3QiHjW6H6OfDAy0p+yna+PhOYVGRhVd5yEYjrdbt+z9rCeOzrypG3FAprtNXV+xzSkcb0pa4en21AhP1TbV3ohqUKP7eaKfjgo0IlcjkK2oTlEciFxt02pjpp8+DwCn1vmfu2o1wVzu2Yw9dBZEShSYfppmuGfRoEZr3KMvg7ztKfv3WTpz4XVRu2TTmI7pp3UAeGWDjyy1mmABwTUR3OZczQcZ6p9U2YtBje5nsC8NTNKaux25GvVodmSoQ5obm7VZYdmYl7poEarrlj3N3oD3kGGbcyX0rfj7GeqfVKZl7GpQo7XpSwOzkvaU/UwcLBUB/6TouWTg2xyfXXpLmn56slPNL+M2J7AErONVqtxWAH2pUV8Fedciac0lSWvuLACcNxwySUUoek4CPMT5efqQHq+NL710z2bc5gTWiqPQFPkK0Jca9b0H04Fa9cjVXsjYrU8JCs9DHZWwzUld7rclzqmSoEZrgwZmFZGrnY0Dso0VPn5H4BSpCjbbVv9UcFy9wGDhWnSVtl5SUKM1QAOzBnHQiOOgcTFytT+IXG0b82qKNDSbifrLAuaXNVi4FlU2MKjR/YRoYLqAejXU0MQBGYwDQl1WHwB+yra57+QwhQ3rn9AHKA7Ivhx3YWS/FSHnIlIqQI3uJ+77IC8PcdD4GAA+joPGl/9mOJ7Oal8MMlf2sS5dWp5DHfUu5naVrtcNh6jedlfxVgRWg4eHKIc8JtToXng1+hgNTEaW30yNkLesoOmn/7eLnIgvP244Xi0OGhu+/Vg/m1HDWaoJy/swbMZtAHg5DsjbirY5H+P8/JHNck+yghrdB69GIRqY4vics94IdcEvbvYh9gCDgrek0m1O3ip1qo0LAzVagYhGGIMpDt61eNfBNfYAn+Gf0rrksc3JEzzM64gHanQv3BqhgSkIzuI99O3BVYgjcrUjbKs9a1BRerBwNaw1K88J91zOLKFGdxHVCA1MQfA+vN0EEVdD35Js10sUVcHCezAc4nEmkuVSewU1uouoRmhgioO3vKJu+ulbvDdhD7DIW1L5WxHunjDetLL9SuKAfKRuRveAGmXUCA1MQbBWELyxhKPMVeW9F+9b8kzkar+n/q24dML4fYE0+F8omtI9oEbZNUIDUyy8LTlBt+wfityoy7dkm34mcrUjIvfgRbfsgwJp8DObbQVLBjXKoBEamAKJXO08r1vcKTQuAnuAR9Z5K8dxQA50tlDzQLdskdjDCwqmsi6oUTaN0MAUz1XOzxumnxLRm1G3nxXaOgAAp1nBrWPLRyEavHMRhhVU4u3QGEWuVkQVQtSoe+7RCBPtCiZphTO6ZfPWB/Zq47Pz7amRvxO9L6sfW0g1P90aNll1Ny6SVviBmhltel/UqEtWa4QeTMEkrfC8yHW6Zb8ufzb5UBsPPZE0+aQVvqdmRpveFzXqktUaoYEpGLYLcJhVlOdh0PTTC6w3TiXQreEtpp+eAIAxgcvPFNHYDFAjHu7TCA1MCYhc7SwAvCpw6ajhkOtVeYBr4+EfslIXvEvzOK9dk/VAjTZlTY3QwJSEOCC+YOFxw3DI35T5AV4uaeEdEtnyhWW3e70+QrmCGq3PehphkLckMDf8dcMhIgfghuhbEgAezTlHZFNYvZwrGbppxkkrLEVBcdRoXdbVCD2YcnExQ1lF+pbkTlNXDTvDkqVVbyMOGmWoi9wBNbqfdTVCA1MilmsBL5VVFH2AR00/vVYbn31S8tS4MRzvm6xF74uCQ9wBgOORq5ViedQBNbqHTTVCA1MyWCJVli/VoG7ZQZZEr6yYfjpqOOQy6/8tugz/oKy9llCjL9lUIzQwJaQ9Zf+FhAQrz/TTX9fGZ/9c5PAdL4bjGYbj7Tf99BIAXMjYaiNqT9kvS5yedFCj7jTSMtygUEw/tVlDqm5pRK5W2BtDBOpKZ1wbr+R05GrHJI11D6afPp/xjb6SNgA8GrlameIu64IabQwamBKjW8PfqI2HocTi0AkANOOAhOww3YciOxqG49Ev1BOGQ4YAwJE5v6QVPt2eGsntMF9WUKONQQNTclhL0lmJb8nV0Ie4yYor0f9eWPlmMv10N3s4h1kbD1XzoF+sPZGrFZKtmwXUaH3QwFQA9gBfV9DmokycYr3BKwlqtDYY5K0A9G3VnrLtvGrR5gx1/0l7yv6zoieSBdRobdDAVISkNfdPkavtKur4viJusGBhI2nN3S56MllBje4HDUzFaE/Zv0/fJgU348/KHQA4056y91Vlt4gH1OguaGAqBn2L0LdJxmzSovlR5GpHktZcEdXplIMa3QUPO1YUlk26AwD2Gw55EQC+VfScumA6DsiPWbX+ngc1QgNTadgBs7MAcN5wiAsAJwTaS+RByJrV96THshH9rhFuU/cQpp8ektzvWAaELheKnkRZ6DeNMAbTQ0SudjYOyG8krfAw28koou5IAgBXk1b4YhyQHWhc7qXfNEIPpscx/fQgK4Go+jBdvNxwi7zaLzEWWfSyRhiD6XFY47DzhuPtBIAndMsepD8s4/QhANgqMOwXrHTkjTggC8sN2Bu8fZwRRi9rhB5Mn8Oaa+1kP/9+jXMsEQDcZP83ilwtLGiqfUuVNUIPps9hB9d6Mb29Z6iyRhjkRRBEGWhgEARRBhoYBEGUgQYGQRBloIFBEEQZaGAQBFEGGhgEQZSBBgZBEGWggUEQRBloYBAEUQYeFehzqnzOpV+YaPJpNFkvj0ZoYPoEWSd1TT+FspzU7TWGxpY12j5gDz48IK7RRPNejeanlzW6PI2nqbsGT1N3Ry/XGukVJpr5ajQ/TV69PJ2PRv1kYJQ1Fi8ThuPpumUf1C17FAB2F9BpsFMtbSZphRfjoNF3dXg3Y2jM07cP2AcfHihWo5uL4cytxfDi5Wl1GlXZwBgA8GuOS8LI1UYUTqlw+q3eaxWZaJZTo8m6Go0qa2Bg+QuVcnw8jlxtm8LpFAb1WvqxYn2VoF7L3rHyazRZl6vRV2UOljeGQ45yBMCoqD9JWnP/onhauWE4nkGXQ4ZD6BvxP5Y4aG8CwHHDIY8AwPWkNfdF0RPKi6Exz6DLob1j1dBo79iyRrcW5WhUdQ/m2hpbdusSB2QPa4ZVeQzH22045BL9z6LnIsDhyNXOFj0J1QyNebv3jlVXo8l6do2qnmjH6849pmgeuaFbw1tNP/UqbFwo75h++q5uDaveNSmE7QPDWyeaqVdh40J5Z6KZvrt9IJtGVfdgJgHA5bik8jtJpp9eAIDRouchiRsAsKfXGuBPNHtPo8m6mEaV9mDigPDu5e9WNBXl6NbwN9iSsFceXGCZqddNPz1BPbOiJ5OV7QPD35ho9qZGE830BPXMeC+utAdjON6g4ZBrnJftqNpuBtuSv15AvkSenIpc7YWiJyHKRLM/NJqs82lUaQ9GIAYDVXu7MOMyq/DBpX/D0wBwBABGAGBb5Gpa54f92wH6cClunXGUnYuqHMy45KrRZF3TOj95asTORXVNpT0YWP4CXgKAOsclcXvK3pG05kq/7qfLotp4GEp8cBMAaMYBCdlD+2EcNLh7I1PPEQCeMBwyBACOzPklrfDp9tTIRUnjKYcui559Tb5G89N3Nbo8za/R0NiyRnvH5Gt0czF8+q9f6k6jXjAw1CO5wHNNHJDDcdAo/TYp7zb8JigLcJt++jx7e8qAfpkerUrgl8VcpGk0WVej0URTvkbdBH6rvkSCyNVmAIArt8VwSKmXSWwr+oKEBzdOWuErcUB2qNw9i1ztjTgg2+Jg6e/azDgcfdNe063hr0uanhLYVrQUjW4uhq/MT5MdqowLZbKuvTE/TbbNT8vTaPvA5hpV3oOBuzVNeIO9u1hLztJh+qkHAFlPfhd2epx5le9mzAE5F7naMxKnJZWJphyNJuvFaDTRlKPRZH1jjSrvwcDd3r2fcF52wXC80iV6GY63GwCOZxhiIWmFTpGlKahXGQdLa3/qXd4RHOYptvQqHUNj2TW6uRg6RRkXWPZoZuans2vEll7r0hMeDIi/9aM4II/GQSNRNC0uDMczDId8luGtMhO52gHJ08qEQDLkal6IXE1W7CAzQ2OesXcsm0aT9XJpNNHMrtFkfW2NesKDgeXArchyh3owwwqmI8r+DA9uHAekdFnKcUAaGbdOPWp4JU4pK5k0mp8un0bz09k1ooZ3rf+h0qepV3Fz628d/i7vdpxu2Y8AwHtJa07UTZQCK7lwBgD+g8Dll+OADItsOauG/V3PJq3wU92yqUv+m5xD6HSY2788O6doil3DSi4IazQ/TYZFtpxVc2txWaNbi+GnDw+Ia/Q//8f9GvXMEgmW3XHqkXwmcGnhSwvTT+nyzhO4NGbLvNI9uKvJsJ1dilo+E01xjeanyaNlNC6rybCdHU/W79eoZ5ZIsBxcjFjQipfR2vhsYQFFVonuhMClM1UxLpT2lP0Tttbn9RYN00/fVTStrmCV6IQ0qopxobz3krhGE837NeopDwaWlxq24RCeWr0dEnayN9eta7Y0+leBSxciV9ulYErKYcbiMO91cUB2xUEj99QCtjQS0miyXk2NmLHg1mh+muy6PH1Xo57yYGBpzR9eZuc2eKHryCu18dnvK5jW+je17IMi1yWt8EX5s8mH9pTdYNmgXOiW/ayaGW3M9gExjW4uVlej914S02j7wL0a9aCBmbvDslZF2jLoumVP53nojlX/56XRnhr5OwXTyYWkNUeXsvt4r9Mt+yk1M9oYVv2fl8Zfv1RdjW4timn08MC9GvWcgVnBOcHrqCczm6OR4a1RE/dCfye2FOUtX2qyQH7ecGtUZBKdLCbrYhpNNO9q1LMGhgUURdfrBgBcq43P/qnkad0Da4rGta2etMI31c0oX5JWKLKUPalgKuvCmqJxaXRzsXc0urmYTaOeNTCscv1IlgQi3bJfMf10VmGil897QdIK/0rNVPInaYXnWbdBHkYNx8uzqBO3RrcWe0ejW4tiGg2NLWvUswYGlt3wOA7IvoxZiku7UobjHdStYWn9bFivaF53/3QvdUpkRzSeYTt4PHxb0ZTugfWK5tZIZafEvLk8nU2jnjYwsPwQtyWk0A8aDjlXGw+56s5swhOcn0+qXrB8LSJXa/LGywyHPK5uRvfArZHKkgtFMVnn12jv2LJGPW9gYNnIXGW1SrImO9VNP/216acXDMfbn2Ug3bJ5g8hZa3iUFnZeiecNmUsAfvsAatSBnVfi1qgvDAwsG5mLcUBkRPaN5TgAmTH99DNW+4QbXgPDylz2JGzZx7OM3alwOl/yMKeBYWUuexK27OPWqG8MDOOs5KLIdH1+gXo0pp/ybmXyBip7Zl2/Djy/X15b1ajRvXBr1FcGJg4aSRyQPYLboxtBvZgrpp9eN/30Um18dtJwvEOG4z2+QVGrhzjv8aGEeZaWOCBc+Ramn9rqZvMlqNEK5qf5NJpopnZZG3ErY3nnonHM9FNd5KzFJlC3cKdu2XXduvv8G87Syixa9QbgaWIViR5onGimdQB4ji3tYgB4mwXtMjM05g3uHSPPr/Ao5uanyWnBg30fc36e/oGFlyTsfNFuptlqT+Vr7N+5NKrKgcYMcGvUdwamQ+RqRwzHe8NwyF8CQB67EmYG157LIGwfGN6yfcD+4d4xcniNLNTRiWZ6dX6anLm1GP4VqwXCxfaB4a8/+1r4CvPcVm7d29Tg7B0jp997yf7xrcW52xzD8n45hfqMM6NIDe5TAPCAyBjr0LMB3hVwa9RXS6TVxEFjIQ7I7yhuViUDLtd7+4D9LP2Sb5Divpv+76sPpnXLs6+FrwPA06uMSwfqKbnPvhZyZUHHQYP37Bh38iMzLtcA4Khk4wK9vjyC5UAvt0Z9bWBg+cGOI1fblbTC4wIZi3nBFTzcO0a6Kkjd7edWwlLnv9vFR492sjk54Pk9uWMwe8fIf+G9hoNeD/B24NKo7w1Mh/bUyBsAsEPgcFcedO1hsdae3W6vDvK2AmWp890srY29Y+Qo59jKvqTsAJ6javwKeMGy4NIIDcwK2NGCA1mChyrg7HLI+2bn/TxPHKlMBdWVJud10+WwH0EDs4o4aLQjVxuJA7ILAN4ROINRNLyxia4/PzTmSTuLVQCVbKxfddDArEMcNBYiV/sDAHiwYjsEvN5X159nB9943tRlikv0yxKmVKCB2QS6PIlcbR/1aJJW6LMHNVevhiepjCVDfd7lxz/nTZ7iKF+QzE+TNzjHVlaGgaXxK1vGTDRzSfwrA1waoYHpEurRtKdGJlih7QdF6oRkoOtlDPMy3uny4++wz3fNZF17tctypDMriz93Cc8ZI66xL0834gxVDruhTM3hVMKlERoYAZhXMxEH5DfigAzFwdJ27xn20KvI5uQKlr73kv0XrLfNem9s+u+n2Oe4ubkY/mgDI3OHGpf3XrJf5hlToIgU99+ZFbIWaWvTDWUKaCtBIO2g3beZvDJgBZN+QX/ioPHlv9Mvi+EspaE/wZLdjIxBRi73+9bi3O3JuvYCALww0UzfYollHU5nrVny1y+N0N/50YlmeoL10Om8vSP6/0/WtfMCw/KekOZObLu1ONeerGsH2Nb8+5JPZffDEolbIzQwClguctWY2ehtafppyjGksHFixkRJESS2XHpV0nBf4/y8cDxlsq4tDI15u9hZJH2tmNpkXQsnmvloVCG4NUIDUxxf8KSrG443WETTsbzIuwDX5elGcnm6sdkOGpdGQ2PeoEDcqTKIFODCGExxfML5ed7yjZWC08DEkauJ9L3iBTVaAWcBrniyrt1AA1McXF8QwyFD6qZSLKxrA8/vx/vFF4VLo71jvavR0JiYRmhgCiIOCK8rrfIcTaEYztIuHE/tlVwMzPw0atSBHYzl1ggNTHHwPrw100+fVzSXwmDtW7h+L97qdxng1mii2XsasfYtXL9XJ4ETDUxBxEHjQ4GdkFMKm8AVguGQtwSS1HKpvXJ5WkwjtpzoGfaOiWuEBqZYRJK+eiahi9Ur5s0fiQWKU2WhrzUaGhPTqFOcCg1MgcQBeZX3XJPhcNdYKS26ZT8ncFmuTeXnp/k1EqiDU1q2D2TTSJM7HYQX00+vbFDacj0ORK6mKuU9F0w/pS73r9Ypu7keceRq2xROa00mmmIaTdarrdFEU0yjyfpdjdCDKZikFYocwHvXcLxvKphOLujW8AMAcInzwaV8oGhKG3JzUUyjobHqarR9QI5GaGAKJmmFFwUuMwyHvKJgOrlQGw//UMAjoEvKQgzMrUUxjfaOVVejZ18T02h+mqCBKROsbapIXOG7pp9OGk61qsyxnt4vCly6kLTCOQVT2hTWNlVIo4lmOlm1SoBDY+Ia3Vq8VyOMwZQE009nBU/kLsQB2cNOdpcaw/F2Gw65InAp/d0e5KxNLJ2JprhG89NkD2/tnSIYGvN27x0T12h1bWL0YMrDEcHrBgHgoOS5KMFwyAnBS68WbVwYPa/R3jFxjdYqfI4GpiRErkbd8GmRaw2HvG766fO6NVzK0/HUczH99ALrBMlN0gpPyZ8VP5N1cY32jpHXJ5rp89sHyqkR9VwmmuIa3VxcW6OvZp4ZIpPrumX/kcB1vwkA9a2/dfhf4qDxCwXzEsZwvP2GQ4IMxZ1mPn91R0PytLJw/eEBcY0Gfufwv1yeLpdGQ2Pe/r1j2TR669DaGqEHUyJYhuphVnZShFdMP31Xt4ZFe2BLQ7eGHzD91DMcIvTGZ5yJA/KMxGllhmWoZtJoopm+u32geI22Dww/MNFMvb1j2TSan15fIwzylhBqJNhDLEobAPZFrlZI8SOWRHdJZJtzBVcjV9sjcVpSoUZChkaT9WI0Ykl0mTWarG+sEXowJaQ9tVScOst5mxoAXDP99EptfPZQXlvZhuOZtfHZSZb9meXBTVgh9dLCCohn1miimV75wWuzh/Layh4a88wfvCZHo/npzTVCD6akMC/guqReQTEAPBO5mpIGcobj7WSnomUUvk4AYE9R3hcPzAuQqtFkXY1GQ2PeTnYqWppG3Xhf6MGUFLYtK2v3hH4RLtClFzvBLGdQxzNMPyUst0VWVf1mFYwL3O1HLVUjuvRiJ5ilMDTmGRPNlLDcFmkadbu0Qw+mxOjW8NbaePjnrO2ILBc6YYWUIla46WO6KtusBALrW7QTAL6mW/Ygq6E7xFnlbDNm2lP2saQ1p6K3lBK2DwxvffY1dRqxwk1LGnVKIKwH61u0pNH2AXuQ1dCVrtF7L9nHbi12pxEamApg+kt9fK5IfIDXI1qjn3RNcv+g9ZiJXO1ADvdRAuu11PMaTdb5NEIDUxFq47P7dcs+rbJ/c0HQt3Wzap7LWvzgtdn9Dw/0rkY8nksHNDAVggV+r9H/LHoukqhMQLdbWOC35zQS3U7HIG+FiFwtbk/ZDmviLproVRauxgGxe8m4AAv8vvdS72g0P03sLLk66MFUFNZhoBRndAQ4E7ma6MHBysA6DFRWo8l6do3Qg6kokau9AQAvZOnRXBAzcUCU9MouG5P16mo0Py1HIzzsWGHioHEVAN6m6+Qt28zBHHYwRKHr+MtJKzz++as7GklrrupLh665PH1XI+Nr5dfo5mJ4/K1DOxq3FuVohEukHkLCGSYV0PX7SEnquRSOhDNMKljSaK16LllBA9NjGI43qFv2s7plP1XgTgZ9UD+IA/JB0grnktZc6Su55cnQmDe4fcB+9uGB4jWanyYf3FoM524tqtEIDUwPY/opfXhPihYREoA+tITFh5AumGgWoxGLDykHDUwfwNL8v2045HFWvnGnhDdnzBqcf8KOHHyYc8fFnoKl+X9775gajdiRgw83O24gGzQwfYzppzY7APcYO2y33mG4BVa/pNOruRm5GhqTHJhoims0WS9eo/8fAAD//7BDnqfZ2hPbAAAAAElFTkSuQmCC;" vertex="1" parent="l-Tpt4Chwf_FJ7SH6TVP-1">
          <mxGeometry x="770" y="810" width="70" height="70" as="geometry" />
        </mxCell>
        <mxCell id="l-Tpt4Chwf_FJ7SH6TVP-24" value="AutoScaling" style="text;html=1;align=center;verticalAlign=middle;whiteSpace=wrap;rounded=0;fontStyle=1;fontColor=#8c4fff;" vertex="1" parent="l-Tpt4Chwf_FJ7SH6TVP-1">
          <mxGeometry x="953" y="490" width="90" height="30" as="geometry" />
        </mxCell>
        <mxCell id="l-Tpt4Chwf_FJ7SH6TVP-25" style="edgeStyle=orthogonalEdgeStyle;rounded=0;orthogonalLoop=1;jettySize=auto;html=1;exitX=1;exitY=0.5;exitDx=0;exitDy=0;strokeWidth=2;" edge="1" parent="l-Tpt4Chwf_FJ7SH6TVP-1" source="l-Tpt4Chwf_FJ7SH6TVP-26" target="l-Tpt4Chwf_FJ7SH6TVP-23">
          <mxGeometry relative="1" as="geometry" />
        </mxCell>
        <mxCell id="l-Tpt4Chwf_FJ7SH6TVP-26" value="" style="shape=image;verticalLabelPosition=bottom;labelBackgroundColor=default;verticalAlign=top;aspect=fixed;imageAspect=0;image=data:image/png,iVBORw0KGgoAAAANSUhEUgAABLAAAASwCAQAAABBKHtEAAAABGdBTUEAALGPC/xhBQAAACBjSFJNAAB6JgAAgIQAAPoAAACA6AAAdTAAAOpgAAA6mAAAF3CculE8AAAAAmJLR0QA/4ePzL8AAHJJSURBVHja7d13nFXVofbx3wy9gw0FsVIUG0UURAULduxixy62WNI0pqg3xZKmJhprYknsXcECChZURIoNu1ioAtI7zLx/hNeIUmbm7LPPWnv/vvO5N8m9cebsZ+1zznPWXmdtkCRJkiRJkiRJkiRJkiRJkiRJkiRJkiRJkiRJkiRJkiRJkiRJkiRJkiRJkiRJkiRJkiRJkiRJkiRJkiRJkiRJkiRJkiRJkiRJkiRJkiRJkiRJkiRJkiRJkiRJkiRJkiRJkiRJkiRJkiRJkiRJkiRJkiRJkiRJkiRJkiRJkiRJkiRJkiRJkiRJkiRJkqTClBmBpBSV0wyoR0OgMXWA5lV+HVrEQgBmArCQRUAlswxVkgVLUrZeQZrTiEY0XvGvTWhGIxrSjCY0ohHNqUNjoAH1gabUKtojWcBiKpjNYhYwl6XMYjELmMdSZrKE+cxnCTNZyjxmMpvZLHPwJFmwJJVSI9ZlXdZn3e/8rM+6rEejaI9pHrOZzSxmr/jXmd/+u9nMYjqLHXZJFixJSb0itKQ1rWlDKzam1YoaVT+HScxlKtOYznS+5uvv/OsCTxJJFixJa1KL1rShNa3YhFZszMZsRF1jWaMFTGMq05nGV0xmApOYyFQqDEaSBUvKsxZsQ0e2YAu2YGsaGkgiZvIZk5nEZCbxGZOZwGxDkSxYkrJsQ9rTbsVPWxoYSEqVaxLjGc94PmM845lrJJIFS1Ls6tKOrnRkG3ZiA+MIonB9tuJnMpMYt2LDCUkWLEnBa0hnutGNrrQt4oYIKtwyJjCeT/mAcXzAF67hkixYksLTnp70YCe2obZhRGgBH/Ah7/EB7/MxSw1EsmBJKp3adKEnu9HTi4AZspTPeI8PGcf7fMB8A5EsWJLS0YjO9GRXdqOZYWTcZEYxilG8xnTDkCxYkophI3ajJ7uxveurcqeSzxjNaMYwmmnGIVmwJBVuHXqzJ3uytVEI+IoxjGY0I5liGJIFS1J1NWQX9mZvOlNuGFqFybzCcEbxBksMQ7JgSVqz+vRgT/ZkJ78TqCqZxwheZhgjWGQYkgVL0vefjZ3Yj73Yxd3WVSOLeJ1hFi3JgiXpv9ZlT/bmADY2CiVStF5hCEMYZRSSBUvKo3I6szd704s6hqHEjWcwQ3jOG09LFiwpL9anN3vTl42MQkW2jBE8yRBGU2kYkgVLyuozriuHcACdfe4pZRN4hmcZwiyjkCxYUnbUYw8OoS+tjUIltIxXeJzH+NwoJAuWFLcW7E1fDvbGNgrIOJ7kKYZ72VCyYEnx2ZR96cs+1DUKBekLnuUpnmGpUUgWLCkGnTmcg9neIBSB6TzFYwxmgVFIFiwpVF04kqNoaxCKzAKe5XEedxG8ZMGSwrINR3EMHQxCEVvMYB7kUeYahWTBkkKoVsfS3iCUEYsYwoM8zHyjkCxYktVKStICBnI3z7LEKCQLlpSWDhzP8WxhEMq4GTzMfbzEcqOQLFhSMbXkGI6nm0EoRybzIP/hDYOQLFhS8hpwEP3Z11szK6c+4H7+xRcGIVmwpGTUogcncixNjEI5V8EL3M1D7polWbCkwnTjBI6mpUFI35rJvdzpJUPJgiXVRAuO4mw6GYS0Sl4ylCxYUrWUsydncoh3EZTWwkuGkgVLqpI2HMfZbGoQUpXN5n7+xrsGIVmwpB+qT1/OZC+fF1KNjOJ67mWpQUgWLOn/60p/TmAdg5AKMpU7uJnxBiELlpR39enHRS5llxJTwQvcwqMsMwpZsKR8as+pnOG8lVQEk7ibG/nSIGTBkvKkLodyDr0MQiqiZTzBTQyh0ihkwZKyrxUnci5tDEJKxcfcwK1u5CALlpTlM34vzuQwahuFlKrZ3Mmf+MogZMGSsqYpp3IubQ1CKpGlPMi1jDQIWbCkrNicAZxJC4OQSm4U13OP3zCUBUuKXVcu4FgvCkoBmcwtXM83BiELlhSjuvTjQroahBSgedzJdXxsELJgSTFpxsn8xG8KSkGrYBC/Y4RByIIlxaAd53E6DQ1CisJwruZJY5AFSwrZrlzMgZ7ZUmTGcC3/YblByIIlhViuLmNvY5Ai9Sl/42YWGYQsWFIoyjmQy1zOLkVvCjfzF+YYhCxYUqnV42h+RTuDkDJiOjfwN2YYhCxYUqm04BzOZwODkDJmHjfxR742CFmwpLS14iIG0MQgpIyaz438kWkGIQuWlJaWXMT5NDAIKfMl63auZIpByIIlFVsbfsqZ1DcIKUcl6w9MNQhZsCTLlaQkzeOflixZsCTLlaTkS9YNXOMtomXBkpKzCT+xXEliHjdwNTMNQhYsqVCbciknU9cgJAEwiz9yLQsMQhYsqaY24tecZrmS9D2TuYLbWWYQsmBJ1dWEc/il+1xJWo3PuYy7qTQIWbCkqmrIj7iYFgYhaY1G8gueNwZZsKS1q8MpXEYrg5BUJUO4mNHGIAuWtKYz8kj+QFuDkFQNlTzEpXxiELJgSauyN9fQ2Rgk1cBS/sVl3lRHFixpZbtyFT2NQVIB5nENf3YDB1mwpP/ahN9xgmejpARM5FK/WygLltSCi7mQegYhKTEjuYjhxiALlvKqDqfwO9Y3CEkJq+QhfsYXBiELlvJnb65lG2OQVCQL+Bu/Y55ByIKl/OjKn+llDJKKzBVZsmApN1rzG06n3CAkpcIVWbJgKfMa8gt+QgODkJSiSv7NL5hoEEpPLSNQivryFAdTxyAkpaqMHTiLurzKcsNQWiedlI72XMd+xiCphD7iPAYbgyxYyopG/IxfUNcgJJXcU5zNBGNQsXmJUMUv8f15koM81yQFoT2nsZA3/Wahiv3mJxVTZ/7mHQYlBectzuFVY1Dx+FV5FU8LrmOk9UpSgHbgFe7yPhIqHi/bqFjV/Uwep7cVXlKgytiBU5nJWC8WqjgnmJS87biJXYxBUgRGcA6jjUFJcwZLSWvAr7ibzQxCUhQ25jTW4xWWGIWS5AyWkrUH/6CDMUiKzHgGuEOWkuQKGSWnJXfxgvVKUoQ25zkeYF2DUFK8RKhklNGfJ+huEJKitQ0n8TVvGYSSeVuUCueidklZ8RTn8JUxqFBeIlShGnAlo6xXkjLiIN7hTKcfVChPIRVmF25nK2OQlDGvcAYfGINqzjVYqrkG/I5b2cAgJGXOJpxOHV5luVGoZpzBUk315na2MAZJGTaak3jXGFQTzmCpJhryW25mHYOQlGkbcQa1eNmb6aj6nMFS9e3O7bQ1Bkk58Ton86ExqHqcwVL1NOV6/uZmfJJyZGNOYxmvOY+l6nAGS9WxL7fSxhgk5dBwTuYTY1BVuQ+WqqoZ/+IZ65WknOrJKE4zBlWVM1iqml24iy2NQVLOPctpTDQGrZ0zWFq7OlzOS9YrSWJf3uVMY9DaOYOltdmef7OdMUjStx7kbGYYg9bEGSytuYBfwBvWK0layVG8x37GoDVxmwat3qY8ylnUNghJ+p7GHM86vOCtdLQ6XiLU6j+h3UwLY5Ck1XqT4/jYGLQqXiLUqqzPIzxgvZKkNdqRt7jAGLQqXiLUD+3Ls3QzBklaqzrsx1YMYbFRaGXOYGlltbmcQWxoEJJURcfwNrsbg1bmDJa+a1Oe4kRX5klStTSjPw15kQqj0P/nW6n+5whudd2VJNXQCI7nU2PQf3mJUP/VkNt4yHolSTW2M6PoZwz6Ly8RCqAjz7hpniQVqD5H0YrB7o4lLxEKoD//oKExSFIiRnMUnxlD3nmJMO+acR93Wq8kKTFdGMORxpB3XiLMtx4MoacxSFKi6nEUjRnqtwrzzEuEeXYmf6OuMUhSUYykH58bgwVL+dKYWznGGCSpiKZzIs8YQz55iTCfOjCYPY1BkoqqIcfTgKFUGkX+OIOVR8dxM42NQZJS8SLHMtkY8sZvEeZNXf7Of6xXkpSaXoyilzHkjZcI82VjBnK4MUhSqppwIosZbhAWLGXTHjzHVsYgSakrZ2868DRLjSI/Q658KONihtDSICSpRI5lOJsbQ37edpUHTbibQ4xBkkpsBscwxBjywEuEedCO59nVGCSp5BpyvKuxLFjKhv15hjbGIElBcDVWbgZaWVbGxTxFc4OQpIC4GisXb8DKrvrcwonGIEkBcjVWxnmJMLs25ln2NwZJCpKrsSxYilJvhtDOGCQpWOXszRY8zXKjyCIvEWbTmfydOsYgScF7jUP52hgsWApfXW7kNGOQpEh8Rl/GGYMFS2Fbh4fYwxgkKSJzOY6njCFbXIOVLVvyPN2MQZKiUo+jmcUIg7BgKUw9GcymxiBJ0Slnf1rxLBVGkRVeIsyOY/gX9Y1BkqI1mH7MMoasdGZloyhfzr3WK0mKWh9G0N4YsvLGrPjV458cZwySlAEzOIIXjSF+rsGK33oM4kBjkKRMaMixfMlbBmHBUmltyzC2NwZJyozaHEoZwwzCgqXS2ZdnaGkMkpQpZfSmDYP8TmHcg6h49ec2b4gjSRk1mCOYawyx8luE8bqAO6xXkpRZfXjBaxTxcgYrTrW4jnONQZIybjz786ExWLCUjnrcRT9jkKQc+IaDGW4MFiwVXwseY3djkKScWMDR3go6Pn6LMDatGMzOxiBJuVGHo/maNw3CgqXi2YZh3kZBknKmnINowPMGYcFScfTgOTY0BknKoV3ZjIHujBUP12DF40ju9nbOkpRjAzmKhcZgwVKS+nM7tY1BknLtZfoy2xhi4EajcfgRd1ivJCn3duMF1jcGC5aScTHXO9coSQK68BJtjCF8vm2HP0J/5iJjkCR96wv24SNjsGCp5mpxC6cagyRpJVPZj7HGYMFSzdTlPxxpDJKkH5jFQd5Cx4KlmmjII+xrDJKkVVrA4TxrDKFyo9FQNedp9jAGSdJq1KEfHzLOICxYqroNGMJOxiBJWuN7+OFMYrRBWLBUNRszjG2MQZK0FuX0ZTavG4QFS2vXhqG0MwZJUhWUsR/LeckgLFhas00YSltjkCRV2Z5U8qIxWLC0epsylC2NQZJULXvQgCHGYMHSqm3GULYwBklSte1qxbJgadXa8SKbGoMkqYYVqxGDjcGCpZW1ZygbG4MkqcZ60oTnjMGCpf/pwFBaG4MkqSC70MyKZcHS/7cVQ2llDJKkgvWgJYOMwYIl2JoX2MgYJEmJ2JGNGESlQViw8m1bXqSlMUiSEtOVDRloDBasPOvAUDYwBklSonakNU8ZgwUrrzbleZe2S5KKoAvr8rQxWLDyqA3D2MwYJElFsRPNedYYLFh505LnvaWzJKmIulPOMGOwYOXJ+gxla2OQJBVVL5bysjFYsPKiOUPY3hgkSUW3Fwt41RgsWHnQjCF0NQZJUir25mveNAYLVtY1YiA9jEGSlJIyDmAiow3CgpVlDRlIL2OQJKVasQ7kY941CAtWVtXjCfYyBklSyso5mLf50CDSjFzpZX0XfYxBklQCdXiAA43BgpU9ZfyDfsYgSSqRujzoIhULVvb8njMNQZJUQg14gi7GkI4yI0jFefzNECRJJTeN3VyLZcHKihO407lCSVIQPmNXJhuDBSt+fXmE2sYgSQrEu+zOTGOwYMWtB4NpZAySpIC8zt7MN4Zi8sJVcW3HQOuVJCkw3bnPayvF5UajxbQlQ1nfGCRJwWnPFjxmDBasGG3EMNoYgyQpSNvTgCHGYMGKTRMGs7UxSJKC1ZP5vGoMFqy4cr2f3sYgSQpaH75ijDFYsOJxC8cagiQpcGUcyBg+Mojk+S3CYvg1pxuCJCkCtXmA7sZQjO6qpB3Lf8xVkhSNKXTnC2OwYIWtN89QzxgkSRF5n57u7W7BCtk2vEJzY5AkReZF9mWxMSTHRe5JasVQWhqDJCk6m7EljxiDBStETXieDsYgSYrSdsAwY7BghaYOj9HTGCRJ0erF57xlDMlwDVZS/skphiBJitoS9ucFY0iC+2Al42fWK0lS9OryKNsbQxKcwUrC/jzpxVZJUiZMpDsTjMGCVXodeZVmxiBJyojR9GKeMRTGS4SFaskg65UkKUO68G/7QaG8sFWYujzBDsYgScqUrajjYncLVin9i4MNQZKUObvyMe8YQ805BViISznRECRJGVTG7exkDIUEqJo6jIcsqJKkzJpMNyYagwUrXZ14hUbGIEnKsFHszgJjqAnXYNXMhrzAesYgScq0VmzKo8ZgwUpLPZ5mG2OQJGXe9ixkuDFYsNLxDw4xBElSLuzFGD4yhupyDVb1DeAmQ5Ak5cZcduFdY7BgFVd3hlHPGCRJOTKenZhuDNXhNgPVsyEPWa8kSTmzOY9Q1xiqwzVY1VGXgS5ulyTl0KY04VljsGAVx9853BAkSbnUnc942xiqyjVYVdefOw1BkpRb89mZ94zBgpWsnXnR1VeSpFz7mG7MNoaqcJF71bR0cbskKffacZdTM1XjGqyqqMMTbG8MkqTc68ACd3a3YCXlLxxtCJIkAXvwCp8bw9o40bd2B/OYOUmStMLXdGWCMViwCtOWN2lmDJIkfWsEvVhsDGviJcI1q8/TbG4MkiR9x8a0YJAxWLBq7kYOMgRJkr5nJ75grDGsnpcI1+QY7jUESZJWYRE9GW0MFqzq68gbNDIGSZJW6WO6MtcYVs2NRlenEQ9aryRJWq123GYIq+MarNW5jb0NQZKkNdiGrxhjDKviJcJVO5ObDUGSpLVYxM68bQwWrKrZntdpYAySJK3Ve+zEAmP4Pi8R/lBTnqelMUiSVAUbsD5PGYMFa+1uo7chSJJURV35mHeMYWVeIvy+E7nLECRJqoZ5dOUjY7BgrV5bRtPEGIpuFrOYzSyWUo+GQCOas4Gbhkgq0HLGM54JfMlXTGA6s1jMfOayDIDmK97zWtCEdWhDWzrTnfWMLREj2ZUlxmDBWrU6DKebMRTFIkbwFh/zCZ/wBUtX8d8oZwM2oBVtaM9WdGBzahubpCqYwFje413G8T4Lq/nP1mJPzuFQQ0zAX/iJIViwVu1qfm4IiRvNYwzjjWrfd70uW9KJHelKF2cVJf3AfEYxgtcYwaSCf9fu/IeNjbRAlRzsYncL1qrszbNepEpUBfdzNW8V/HvKac+O9KQXWxuqlHtzeImhDOPtFRf+krEhz7Gd4RZoOp2ZYAwWrJWtz1tsZAwJeoszGJnw72zJ7vSiNx09c6XcWcDLDGUoo1helN+/Ma/T2pgL9CJ7UmEMFqzv5vAkBxpDgu5iAIuK9ts3Yj/2pw/NDVrKgfEMZCDDivia8l/78rTvigW7hKsNwYL1P+dznSEk6DouorLof6U2PdiP/els4FImLeUVBjGQ91P8aHiisRdoCTsz1hgsWP+1A69T3xgSczcnpVCv/mdzDudwuruCTsqMRQzmYZ7km5T/7qZ8RF3jL9B77Fj02UYLVhQa8qaLpxM0hl1K8tRqxaEcTm/vTiBFbR5P8zCDmFuiv/8PznIQCvZXfmwIFiy4kbMNITHL2YnRJfz769OP4+jhmS1FZxFPcQ/PVHsnq2S15wNfPwpWwT48b8HKuz48awqZ+9zShsM5ybVZUjRvx69xF/cxJ4hH8wz7OiQFm8j2qV/gtWAFZR3e9mu5CZpAx5JN7P9QZ07geFo6LFLA3uAe7mdKQI/oMB5xWBJwL8dZsPLsHo71WZCg/twd2COqw0Gcyv6uzJKCM5l/868UvyFYVfWY4hYwiTiOey1YeXU4D/sMSNBndEh0Z+XkbER/TqetQyQFYTlDuYXHVnlX0hDcxmkOUgJmsz1fWrDyqBXvsI7PgASdxc1Bn+u7M4Aj/Aq2VFLv8E/+w7SgH+OeLtBOyPPsk9993fNbsMp4igM8+xM0mS0i2PlkA07hLDZzuKTULeYJbmFIBI+0nC9dnZuQH/PXvB56frdmPNN6lbA/RrGx3NdcTVsOY3CqW6FKefcRP6U1/aKoV/+9Ub2S8Qe2zeuh53UGa0vG0tgzP0Hzac3sqB5xe87hVJo4dFJRLeVxbuKFyD7S7Jj4rerzaxTdA12dW2T5nMEq55/Wq4TdF1m9go+4kNZcyBcOnlQks7methzF89HNGL/JeIcvIV35eT4PPJ8F62J295xP2M1RPuq5XMcWHMxwB1BK2IdcSCsuiPZbZE84hIn5Ddvk8bDzeIlwe96gnmd8osbQJfIj6MGPOczdsqQEVPAk1zE08qPoxTCHMjEj6MnyvB10/mawanOH9SpxN0d/BK9xFB24mcUOplSA+fyNdhwafb2CVwLfSiIuO3NR/g46fzNYl/J7z/WELaRlQDfIKcxGXMhZNHVQpWqbxt+5gRmZOR63G032faITH1mwsqwDY6nvmZ6wgRyUqeNpwqn8nFYOrFRl47mOW1mQqWM6kKcc2AS9xm75ukyYr0uE5fzTelUET2fseOZyHW05j68cWqkKRnE07bguY/UKhmRmZj4MPTg3Xwecr4J1Prt4jhfBwAwe00JuoC0n8anDK63BcA6mGw9kcmZiMYMc4ERdma87wuapYG3Gbz2/i+A9Ps/okS3hLra2ZElrKFe78mSG74rwtIOcqIbcmqeFSfkpWGXc5uaiRfFcpo9uKXfRkQFuRyqtZBA92ZUnM36U3vI5ab0ZYMHKntPYy3O7KF7P/BEu4RbaM8A1WRJQyePsyIG8moNjnZC3772l4Bo2sWBlSyv+6HldJCNycZT/LVk/dmcc5dwz7MyhjMrN8TqHlbQm3GLBypYbaO55XRSTc3TxbBF/ZXMuYZbDrlwazp7sn7ObIA912BO3L8dZsLLjGA71nC6SN3J2vPO5mrb8kYUOvXJlBPuwaw7rxgtUOPiJ+wstLFjZ0Jy/ej5bsBI0g5/TlptY5vArF97mYLozOJfHPoMPPQES15IrLVjZcCUbej4XzcicHvckzmY7HvcEUMZ9xSl0zvy3Bf0QmbYz6GHBil83zvRcLqL3cnzsH3AoPRjuSaCMmscVdOCOnF8kG+GJUJTucQt1LFhxq83NOdutPl2zmJTzBF5nN/q5FakyZym3sCWXu9rQglUk23KhBStuF9DZ87iI3jcCKnmQbfgJ3xiFMnNO38dWDOBrowDesWQWyWVsasGKVxsu9xwuqveMAIDF/IW2XM0So1D0RtOLY/nMIFZYyhhDKIpG/MOCFa+/eXOcInMG639mcgmdM37jIGXdVE6nGy8bxEpGGUGR7M/hFqw4HcAhnr9FNs4IvpfHvvRxXk9RWsr1dOB29336gXeNoGj+TjMLVnwaZ33yMQjuEPNDQ+jCT5ltEIrKILbjAs/bVXrHCIpmI67I7sGVZfbI/sRPPHeLbBkN3GxzNdblN5xLLYNQBCbwYx40htVqwuwMv1eW2nJ2YrQFKybbM4ranrlFNp4tDGENOnEtvYyhGhawGICFLFrl//+7//e6NFrp/7fyf65PA+OskkX8kSv9ntxafMbmhlA0b7JzNi9MZ7OElHG99SoFnxvBGo2lN0dyTY5emmcxl7ksZD5LmMNyZlLBbJYyj0UsZAGLmcsy5rMEWMJ8oGLFRanZRXmBbUg9oDF1gGaUAy2AcpoBTahDc+rSiIbUoxl1aEp9GtCYOrSgHg1zMWJPcz6f+FRdq3csWEW0I6dzSzarSBYdw72esyn4F6cawlrV58f8IhPfZ53LDKYznVnMWVGl5jCXWcxZ8e/nZOzDZzOa0Zym3/40//Y/NWc91qVu5Ef4JRfyqE/QKvkDvzCEIppGe2Zl77CyOM/TmD96vqZivBFUwSL+wB1cyYmRfJxZytd8xTRmMIMZTF/xrzOYkbNdvpYxgxlr/G80ZX3WYz3WZV3W+/bft2TdCI5uCX/mdyzw6VlFHxhBUa3P5Vnc1z2LM1hXconnaypO5N+GUGVduZZdg3tUM5nMpJX+5wuWO1gFqce6bMQWtGKjFf+z6ffWi5XaMM51i5Vq2cV7jhb9A02X7H1bM3sFqx3vUM+zNRW7uyFhNZ9tx3EVG5f0MSziUz7h0xX/+yv3nk/JhrRmS9rSjna0Y4MSPpKJ/JgHHJBq2oCphlBkQ+hjwQrdQA7wTE3J5i5zr7ZG/JyfpfoNt2V8wjt8sqJSTaTSQSi5prSjLW1px9Zsk+Ls1lKu4wrmOQA1MCvLG2IG4vCsrQnMWsE6iCc9S1NSSYMVX6pX9WzCNfQr8nNvPqMZydu8w7jVbHmgMJTTlh3YgR3pXuS3cC8MFuJNuhpCkY2no69W4arHx1T6k9LPdE+4AuzKm0UZlQ/5J6ezvduURFm1tuE07uTLIpwXkzjOrTILcq+v+Sn8/MoTLVyXeoKm+OPtIwp9Oz2VyQmNxVJG8BcOK+naHiWnHQO4n6mJnR1/pamhFui3vuan8DOvxGtUtVobM88TNMWfZzzlCtaIy1lY0MvRK1xFX1eHZNQWnMkDzCjoefoy2xtkAk73NT+Vn3s81cJ0jydnqj93eMolYkserXb2E7mf8+nivQ5zoRY7cTHPMr/a58kUTvLCYEL29TU/lZ8KdvNkC8/OVHhypvrzB0+6xOzB2Cpl/il3cSbb+KaZS7XpysUMZlGVzpXl3BXFlqex6Ohrfko/Y/zgGJoyXvHETPnnR552ic5SnM201SS9mOFcQ1/fLgVAQ/bhKkawbA3PztfobFCJauJrfmo/AzzdwnKUJ2XqP/087RLWgr+y5DsJz2Qgl7Ib9Y1Gq9CMg7mWt38wdz+N05zjLIKZvuqn9DPVL2WEpB6felKm/rOXJ14RbMUgvuQ/nMN2lBuHqmAD+nETH624MHgT6xhJUbztq35qP7/NximTjc85P+FPPvtT15mxhiAFow178D4jDaJIBrG/IaRkAe2YFP9hZOEz8rpuTlYSM4xACshX3GW9KqJJRpCahvxfFg4jCwXrcpp7PpaAO7lLyg9v95ymk9nWglV6HfzGQUksZKEhSMqNaUaQolpcZcEqvT9Sx3OxBLxAKClPnMFK14Hxf5Eq9oLVm76ehxYsSSqyr40gZX+KvaHE/fDL/PZgyXxjBJIsWCqaThxtwSqdfnT1HCyRmUYgyYKlIvoD9SxYpVE7G1/kjNRcI5CUI9OpMISUbcY5FqzSOI32nn8lM8cIJOXIcj9WlsCvY74zQbwFq4Hbi1qwJCk1s4wgdS242IKVvvPZ2HOvhPwsJ8mCJd/rM1ewmvNzz7uScgZLkgVLxVafX1qw0nWJd4y3YElSimYbQUmcxhYWrPRsxI8850rMS4SS8mWWEZREnVjnsOIsWJfR0HOuxJzBkmTBUhr6086ClY52nOr5VnILjEBSrjhvXyq1ucyClY4rvL1zABYZgaRcWWgEJXMsHS1Yxbd17Hcn8qVGknzVU7W6yuUWrOK7LPb7a/tSI0kRcmFEKR1JJwtWcXXkKM+zIHiJUJIfK5WWMq6wYBXX5c5fWbAkyYKVOwezswWreLbhCM8xC5YklYCXCEvtcgtW8Vzh/FUglrHMECRZsJSi/ehpwSqOHTjc8ysQTpVLypulRlByv7VgFcfllHl2BWKJEUjKmQojKLk92M2ClbzOHOK5FYzlRiDJ1z2lLqL7EsZTsJy/CokrsCRZsJS+felmwUpWZ/p6XvlCI0l+sMy5Sy1YyfqF81e+0EhSCbkGKwyHsJ0FKzlt/f5gYJzBkuQHS5VCGZdYsJJzKbU8pyxYklRClUYQiKNpZ8FKRhuO93zyk5wklZQf9MMZiYstWMn4GXU9nwLjDJYkC5ZKpT+bWLAKtwGneS4Fx6lySRYslUodfmbBKtyFNPRc8ryRpBKrbQQBOZ1WvlEWphnneB75SU6SfN3Td9TnQgtWYc6jmedRgNyVTJIFS6V0Fs0tWDXXkAs8h3yhkSRf9/Q9TTjDglVzp7G+55DnjSQFoIERBOaCsPcYCPmNspbzV8HyEqGkvGlkBIFpzTEWrJo5nC09fzxvJCkIfqM9PD8L+eN+yG+UP/bcCZZrESRZsFRq27KPBav6dqW7506w3FtfUt54iTBEAW84Gm7B+onnTcDqG4GknHEGK0R70cWCVT1b0NfzxoIlSRYsrVGw0zHlwQbmKp+Q1fN7hJJypqkRBKkfm1qwqm4dTvKcCVoZ9QxBUq6sYwRBqh3qlk5hFqyzXEwYPC8SSsqXFkYQqNPDvKleiAWrHud5vliwJCko6xpBoJpwqgWrao5lI88XC5YkBcUZrHCdG2KbCbFgOX8VAy/iSsoX12CFa0sOsGCt3a509VyJQDMjkJQj5b7qBe1HFqwoQ5IFS1LObeA9WIPWh60tWGvWisM8TyxYkhTcu5NCVhbe8qLQCtbZ1PE8sWBJUmBaG0Hg+of2vhRWwarLGZ4jFixJsmCpmhqHtllDWAWrHy09RyxYkhQcLxGGL7DNGsIqWG7QYMGSJAuWaiKwzRpCKljd2NnzIxrrGYGkHPESYQyC2ocgpILl/FVMNjQCSTmypRFEoA8dLFg/tD79PDci4mo5SflRm80MIQJlnGnB+qHTvbtdVJzBkpQfm7mFUCROCqdLhFKwysK8F7ZWq7mFWFJutDOCSKzLERasle1NW8+LyHiRUJIFS6EZYMFamRuMWrAkyYKlQu1GRwvW/6zHwZ4T0dnECCTlxPZGEJFAFrqHUbBOo55nRHT80rKkfChjB0OIyEk0tGD9/1P3NM8HC5YkBftq570rYtKcIy1Y/7WnV7ctWJIUrC5GEJkgFrqHULBc4B4nv/cpKR86G0FkdqGTBQvW51DPhSht7E5YknKhqxFE53QLFpzkAvdIldPeECRlXl12MYTonECDvBesshBapmpoRyOQlHk70cgQotOMw/JesHYJ6c7XqqZuRiAp8/Y0giidnPeCdZLnQMScwZKUfXsYQZT2KvV22KUtWA3o5zkQse1dPycp4+rT3RCiVM6JeS5Yh7p5W9Tq+uVlSRm3k9+XjtbJlOW3YJ3s+EduHyOQlGm9jCBabemZ14LVmr0c/8gdYASSMm03I4jYKXktWP2p5ehHbidvmCMpw2q7Aitq/Wic14Kl2JVxvCFIyqwuNDGEiDXm8DwWrO5s5dhnwFFGICmzdjCCyJ2cx4LlDljZsC1bG4KkjPL1LXa92SJvBas+RzvuGXGEEUjKqI5GELkSLmQpVcE6iBaOe0YcZASSLFgK1HF5K1jHOuaZ0bn09yyXpCKow8aGEL2t6JKngtWU/R3zzKjrDbslZdK6pd0JXAkp0ZROaQrW4c55ZIp7YUnKooZGkAnHlKbrlKZgHed4Z0pzI5AkBWpjds9LwdqAPRzvTKljBJIyaJ4RZERJpnVKUbD6UdvRzpTZRiApg2aw3BAy4Ujq5qNgHeNYZ8xEI5CUQcv5xBAyoUUpvlqXfsHalF0c64x51wgkZdIYI8iIEnyTsLwEB+nXXrNWr74xBEmZNNQIMuIQmma/YHmBMGueNQJJGTWICkPIhPockvWC1dF7k2fOf4xAUkZN4AVDyIjUp3fSLlhHOcYZM9o1CpIy7CYjyIi9096zMe2CdaRjnDF/MgJJGfYIYw0hE+rSN8sFqx3bOsaZ8ikPGoKkDKvkckPIiCOyXLCcv8qan7PMECRl2uO8YQiZsF+63yRMt2Ad7vhmylAeMQRJOfgoWWkIGVCPA7JasDajq+ObIcu5yBAk5cCL3GoImZDqdbQ0C9YRbjGaKbfwliFIyoWfMcEQMmB/GmWzYHmBMEsm8StDkJQTczjXEDKgYZr3JEyvYLWiu2ObGZWc7g1yJOXIE9xjCBmQ4jcJy1M8qHJHNjNu5mlDkJQr5zDeEKJ3EA2yWLCUFeP5uSFIypnZHM0SY4hcY/ZJ60/VSunvrMf1zmBlxHIO4RNjkJQ7k1hCH2OI3BIeS+cPpVV6DkityqnYruYVQ5CUS3/iOUOIXGp9JK2C1dcxzYiXuMwQJOVUBf2ZagxRW49dslSw6rKvY5oJX3OcN8eRlGNTOcl93SOX0pRPOgWrN00c0Ux8djuRicYgKdee5TpDsGCFUrC8QJgNv3P1gSRxCWMMIWJb0T47BetAxzMDhvF/hiBJLOZo5hlDxFKZ9kmjYG3L5o5m9KZwLMuNQZKAj/mxIViwSl+wDnYso1dBf6YYgyStcCv3G0K0dmXdbBQsLxDG7/cMNgRJ+o5zmGQIkaqVxk2fi1+wNvAmz9F7iSsMQZJW8g1nGkK0UrhIWPyCdaC3yIncNI5z9ZUk/cBA7jWESO1H3fgL1v6OY9Qq6O/eV5K0SuczzRCi1JTdYy9YtdjLcYzaNTxjCJK0StP5kSFEquh3mCkr8u/vwauOYsRGsBtLjUGSVuthDjeECL3D9sX9A8WewfIehDGbw9HWK0lao/OYaQgR2pbWFiyVygV8YQiStEaT+YkhRKiMfWIuWC3o5hhG63HuMARJWqs7eNkQIlTkKaDiFqw+1HIEIzWNAYYgSVVQyQVuZhOhfYrbUYpbsLxAGK+zmGoIklQlY7jVEKLTgh3jLVh9HL9I3c4jhiBJVfZLphtCdPaLtWBtSxtHL0rjvU+8JFXLN/zaEKJT1OtsxSxY+zh2UarkFOYYgyRVyy2MMoTI7ESLOAuWK7DidBsvGoIkVVMFP6LSGKJSi71jLFj12M2xi9AULjYESaqB17jfECJTxKmg4hWsnWngyEXoAvcklqQaupQlhhCVPWIsWHs4bhF6mgcMQZJqaLzbNURmCzazYKn4FnCuIUhSAa5griFEpWhtpVgFqz47O2rR+RXjDUGSCjCNvxiCBQugrEi/d0+ed9QiM4qdvdmDJBWoCZ+wgTFEY0Kx9uws1gyWFwjjc6H1SpIKNpffG0JENqadBUvF9CCvGIIkJeAmPjeEiOwZU8FqSDdHLCpL+IUhSFJCr6hXGUJEijQlVJyCtSt1HbGo/IVPDUGSEvJPvjSEiApWUdajlxfpwSomX/tpS5IStNTvEkZkAzrGU7B6O15R+Q2zDUGSEnQLUw0hGkVZhVWMgtWQro5WRN7lNkOQpEQt5M+GEI2iXHcrRsHamTqOVkR+6fYMkpS4G5luCJHYrRirsIpRsHZ1rCIyhicNQZISN5+/GUIk1qN9HAWrh2MVkcupNARJKoLrvS9hNHrGULDK2cWRiobzV5JULLP4lyFYsJKzHc0cqWg4fyVJxXOta1wjUYTFTeUxPEgVifNXklRM4xloCFFol/wNupMvWD0dp2g4fyVJxXWdEUShLPnlTckXLFdgxeIt568kqche4C1DiELi00NJF6zWbOooRfO5yvkrSSq2640gnwUr6a21juUeRykK02nDImOQpCKrxxe0NIbgLaU5C5L8hUnPYLkHVixusV5JUgoWc4shRKAOOyb7C5MuWDs5RpE09X8YgiSl4nYqDCECCV8kTLZg1aWTIxSFh5lgCJKUii8YbAgR6B5ywepEPUcoCt4hS5LSc7sRRCDha3DJFqwdHZ8ojOJVQ5Ck1DzONEMI3oa0CbdguQLLz1KSpO9bwl2GEIFuFiwV9kR/wBAkKVW3uvOgBavmmtDB0YnAU8wwBElK1YcMN4TgJTpNlGTB2rEIN95R8u42AklK3W1GELyuSfaYJCvRzo5NBL7haUOQpNQ9xHxDCFyzJK/EJVmwujk2EbiXxYYgSambz1OGELwEm0ySBcsl7jHwAqEkleoDrnJUsJK72XNLpjgywfuEdoYgSSVRj8m0MIagvZHccqfkZrC6OC4ReMwIJKlEFvOIIQQuwTvSJFewtndcIuAKAEkqHS8Shq4u24ZXsDo7LsH7xn1YJKmEhjLREALXKbyC1clRCd4glhmCJJVMBQ8aQuB2CK1gNaStoxK8gUYgSSXlrcpC1ympX5TUtwh78KqjErilbMAsY5CkEipnAhsZQ8Dm0DyZ+0YmNYPVyTEJ3kvWK0kqsQq/bBS4pmyeVJdOht8hDJ8XCCWp9J4wgsAltAorqYLldwjDN9QIJKnkBjPXECxYVVWL7RyRwM3mHUOQpJJbzBBDCFqnkApWexo6IoF7ieWGIEkBeNwILFhV5fxVDAVLkhSCgX7gDdomydwxMpmCtY3jEbwXjUCSgjDdjY2CVpbMKqxkClZHxyNwcxljCJIUiEFGELREdkawYOXDcG+SI0nBGGwEQUuk1SRRsOrQztEInCuwJCkcY5huCBastWtPHUcjcCOMQJKCUcELhmDBSumBqIgqGWsIkhQQLxKGbF1aWrBUFV/wjSFIkgVL6TWbJArW1o5E4PwGoSSF9sH3Y0OwYK2Nu2BZsCRJ1fOcEQQsgamjwgtWbb9DGLyxRiBJgfEiYciCmMFqSz1HInCjjECSAvMSFYZgwVqTrRyHwE1jkiFIUmBm8r4hBKsl65a+YHmBMHSuwJKkEA03goAVPIdlwcq+D4xAkixYsmApWR8ZgSQF6BUjCFhbC5YsWJIUo8+YaAjBKrjdFFqwGtLKUQicm9lJUpheNYJglXwGqy1ljkLQFvOVIUhSkFyFFa4tC21IhRYsLxCG7hOWG4IkWbBULfXZ2IKlNfnQCCQpUG+xyBCCtaUFS2viCixJCtVS3jWEYBXYcCxYFixJUqmMNoJgOYOlNfrMCCTJgqVqK/B7hIUVrEa0dAQC530IJSlco4wgWCW9RLipmzQEb4IRSFKw3maJIQRqy8I6TqEFS2GbyXxDkKRgLWGcIQSqwK3ULVjZ5gVCSQqbFwnDtYUFS6vjBUJJCpvL3MNVUMsprGBtZvoWLElSAd4xgmBtUrqC5QyWBUuSVAjXYFmwLFgRmmgEkhS0GXxtCIEq2SXCumxo+hYsSVJB3jcCC9bKNil4H3gV2xQjkKTAeZHQgpXkH1YqZhiBJAXOGaxQNWQ9C5YsWJIUJ2ewwlXAMvfy0vxZpWIJ8wxBkixYqqHNSlOwWpl84KYbgSQFbzIzDSFQJZrB2sjkA/eNEUhSBD4ygkAVsBjKGawscwWWJMVgvBEEqk1pClZrkw/cNCOQJAuWaqyAqaSaF6zarG/ygXMGS5IsWKq5AhZD1bxgbeg2oxYsSZIFK9MFqyz9guUS9/C5yF2SLFiquXo0T79guQIrfHONQJIi8CXLDSFQNZ5OqnnB8juE4XObUUmKwVImGIIFq+A/KQuWJGklXiS0YFmwLFiSJAuWBatYBWtDU7dgSZISMckIAlXjtlPzgrWBqQfPRe6SFIcpRhCoEsxgrWfqwXMGS5LiMNkILFj/37qmHrz5RiBJFiwVIPVLhPVoaurB8xKhJFmwVIga3xawpgXLC4ThW8xSQ5AkC5YK0IJaFiytzBVYkhSLRcwyhCCV1/RmOTUtWK7ACt9CI5CkaLhRQ6hqOKXkDFZ2LTECSYqGGzWEqoZTSjUtWO6CFb7FRiBJ0ZhmBIFyBksWLEmK1kwjCFTKM1iuwQqflwglyYIlC5YsWJJkwVJgUr5E2NzEg+clQkmyYKlQKc9gNTPx4DmDJUkWLFmwlDBnsCTJgqVCpXyJ0IIVPmewJMmCpUI1t2BpZc5gSZIFS4VqkmbBKqexiQfPWz1LUjxmG0GgmqZZsJpSZuLB8xKhJMVjgRFYsNykIQ7LjUCSorGYCkMIUm0apFewXIEVg0ojkKSoKpbCVKM5LAtWdvlZSJJistAILFgWLAuWJMmClQ81+h5heXp/SinzEqEkWbBUuBRnsBqZdgRc5C5JMVlkBBasBqYdAWewJCkmzmCFKsVLhA1NOwKuwZIkC5YKl+IMVn3TjoAzWJIUE7eHDpUzWFqJa7AkSSpcjaaVLFjZ5SVCSYqJ1x0sWC5yt2BJknzVtmBZsCRJCpszWKFK8V6EXiKMQbkRSJIFSwVzBksrqW0EkmTBUkwFyxksC5YkyYKVDyleInQfrBjUMQJJsmAppoLlW3cMnMGSJAuWCpfiJULfumNQywgkKSJOXliwPAksWJKkhNU1AguWb91+FpIkJaueEQTKNViyBkuSBUshvJ+6Biu7HCVJsmDJgiULliRZsBSc8tT+IS8RZrdxS5JKxEXumXo/dQYruxwlSYqJM1gWLN+6o+A8oyTFxBksC5YFKwre0EiSYuIMVqhSXIPl6p4YNDACSYpGLRoZQrBjk1rBKjNtC5YkKUFNfW+1YEGFaVuwJEmJFiyFKsVLhN7x24IlSbJg5YMzWLJgSZIFS/EWLMXAbxFKUjyaGUGwanTdzhms7HIGS5IsWCpcjVqPa7Cyq7b7lUlSNLxEGK7lFiytzDksSYqFM1gWLLxEGIuGRiBJFiwVyEuE+h6XuUtSLFoaQbCcwdL3OIMlSbFY3wgsWM5gxaKxEUhSJDYwgmCleIlwqWlHwe+kSFIsNjSCYKU4g7XYtKPgkklJioUzWBYsYIlpW7AkSYlp7KrZgKV4idAZrDh4iVCS4uD8Vci8RKjvaW4EkmTBUoGWpVewvEQYB2ewJCkO7oIVsoXpFSxnsOLgGixJisNGRhCwRekVLGewLFiSpORsYgQWLAtWPLxEKEkWLBXKS4T6HmewJCkObYwgYM5gyYIlSVFyBsuCBTiDFYvmRiBJESintSFYsADmm3YU1qPMECQpeK2oYwgBS3EN1jzTjkJtWhiCJAXPC4RhcwZLP+DewJJkwVJhUpzBmmvaFixJUkL8DmHYarTy3EuEFixJUmltYQRBS3EGy0uEFixJUlLaG0HQanTdzhksC5YkyYKl1ZtjwdL3rW8EkhS4BrQyhKA5g6UfcAZLkkLXvobvxUqLM1j6AWewJCl07YzAgmXBio0zWJIUOldgWbC+5T5YsWhpBJIUOGewQpfiGqzZVJp3FNahsSFIUtCcwQpdijNYy5zDisbGRiBJQXMGK2xL07wXIcw08Uh4hytJCllLv44UuDk1+8csWFnnHa4kKWTbG4EF67u+MXELliSpYNsaQeBquCjKGays8xKhJIXMGazQzbBgyYIlSRYsWbCUAi8RSlK4arG1IViwLFgx2oQyQ5CkQLWjgSEEbnq6BctF7rGoz3qGIEmB8gJh+JzB0mq4CkuSQuV3CMNXwyklZ7Cyb0sjkKRAOYMVvpQvEU4z8Wh4lytJClU3I7BgrWyqiUejgxFIUpA2ppUhBC/lNVjTqDDzSDiDJUlhcv4qBinPYC2vaaNT6pzBkiQLlmpmGbPTLVheJIxHM1oagiQFaCcjCN43VKZdsL429Wg4hyVJ4SmjqyEEr8ZtxxksC5YkqTSvzc0NIXiTLVhaPZe5S1J4vEBowbJgRf8pSZIUGpe4W7AsWBYsSVLCdjaCCNS47bjIPQ/a0tgQJCkojelkCBGYlH7BcgYrHuVsZwiSFJQe1DGECExJv2BNNPWI+DlJksKyuxFEoSQzWEvMPRqdjUCSgrKbEUShBIvcK2r+R5W6TkYgSQGp5xL3KMxnXvoFCyaYfDS281q/JAWkG/UNIQIFTCVZsPKhvls1SFJAXIFlwVoDl7nHxFVYkhSOXY0gCpNq/o86g5UXnYxAkgJRi10MIQpfWLC0Ns5gSVIoutLMEKLwlQVLa9OFWoYgSUHYxwgi8WVpCpZrsGLSzN3cJSkQfYwgEiW6RDiJ5WYfkZ5GIEkBaEIPQ7Bgrcmymt+hRxYsScqpPdyZMBJzmVWaglVQs1Pq3HVFkkLgBcJYFNRyCitYn5l+RFqzqSFIUsm5xD0WXxbyDxdWsMabflTc2E6SSm1T2htCJEo4g2XBioursCSp1PY1gmh8Vcg/XFjB+tT0o+IMliSVmiuw4uElQlXRNjQ3BEkqobquwIrI56UrWBNZbP4RKaeXIUhSCfWmqSFEo6DrdIUVrIrCps+UOq/9S1IpHWIE0ZjH1NIVLDdqiM1+RiBJJVNGX0OIxidUlrJguQorLpv79WBJKpnOtDGEiApWQSxYeeMcliSVysFGYMGqKjdqiI2rsCSpVLxAGJMCG06hBetjRyAyvalvCJJUAq3pbAgRKfEM1sdUOAZRachuhiBJJXAoZYZgwaqqhW7UEB0vEkpSKbhFQ0wWMqm0BQs+dBQis78RSFLq1mcPQ4jIZ4VeoSu8YH3kKESmI1sZgiSl7EhqG0JEPin0FziDlUdHGIEkpayfEViwLFhZd5QRSFKqNvQLRpF534Kl6tuBDoYgSSnqRy1DsGBVzwTmOQ7ROdwIJClFRxuBBau6Kgu/TqnUHWkEkpSaNvQwhKhMZmbpC5YXCWPUhbaGIEkpOdotRiPzfuG/IomC9YEjESG/SShJafGrRRasGnnPkYiQFwklKR3t6WYIkRkXRsF615GI0I5sbQiSlIKTvUAYnUBmsD5mkWMRoZOMQJKKrpwTDCE6gcxgLXMVVqSfqeoYgiQVWR/aGEJkZjI1jILlRcI4tWQ/Q5CkIvNqQXzGJfFLkilY7zgaUTrFCCSpqJpzqCFYsGrOGaw49WVDQ5CkIjqaBoYQnbfCKVjOYMWpNscbgiQVkRcIc1uwkvrq6EyaOyIReo9tDUGSiqQ9H7hFQ3QqacHswn9NeUIPx4uEcdqGnQ1BkorkVOtVhD5Pol4lV7C8SBirAUYgSUVRz68SRemtZH6NM1h5dywbGIIkFcGRvr5G6e2wCtZoRyRS9TnLECSpCM4xgiiNTebXJHV1uAFzqO2oROlrNmGxMUhSorZP6lKTUrYF45P4NUnNYC3kQ8ckUhvQzxAkKWFnG0GU5vB5Mr+oPLGH5EXCeF1oBJKUqCYcZwhRepvK0ArWGEclWl3YzRAkKUH9aWoIUUrswm5yBWuUoxKxC4xAkhLk14csWIk9pLFJTaqpBA5lU0OQpITs5l0yopXYdFFyBWsOnzgu0arFjw1BkhJyoRFEalFyG6eXJ/iwXOYeszNpZQiSlIDNOcQQIjWWpSEWLJe5x6y+c1iSlIifUMsQIjUyuV/lDJb+v7O8qYMkFWwdTjIEC1bSBctl7jFrxEWGIEkFf1htbAjRSnBHhLJEH9iHtHd0IjaPzZluDJJUY/UYz0bGEKm5NKciqV9WnuhDG+HoRK0xPzIESSrAcdariI1Krl5ZsLSyC2huCJJUwKuo4jUyyV+WbMF63dGJXDPnsCSpxvZhB0OI2JtJ/rJk12DVYRYNHaGozWZLZhiDJNXAUHobQsQ25/PkflmyM1hL3aohes34pSFIUg3sYb2K2vQk61XSBcuLhFlwLlsagiRV22VGELVXk/11SRcsl7nHry5XGIIkVdNe9DIEC5YFS2tyHF0NQZKq5TdGYMH6rrLEH+AEWjtK0RvGHoYgSVW2N4MNIWpLac6CJH9heeIP0TmsLOjNvoYgSVVUxv8ZQuRGJVuvilGwXnWUMuGqIpwbkpRNR9HDECL3WtK/MPk30ZcdpUzoxAmGIElVUJffG0L0Ep8eSn4NVm1meifxTJjCVsw2Bklai/O5zhCi14rJyf7C5GewlrkKKyM2dMtRSVqrJlxqCNH7LOl6RVHW2bzkSGXEhWxtCJK0RhfT0hCi91ryv7IYBesVRyoj6vA3Q5CkNdiEiwwhA4bHUbBeZ4ljlRF7caQhSNJqXUdDQ8iAIuyAUFaUB/oa3R2tjPiKrZlvDJK0Cm4vmg3fsD4VSf/S4ux15FYN2dGGXxiCJK1CXZdRZMSLydcrC5bW7me0NwRJ+oGL2MoQMmFYMX5pcS4RtmC6+4BnyNMcYAiStJLWvE8TY8iEHXg7+V9anBo0k3cdrwzZn2MNQZJW8nfrVUZML05nKdY80zBHLFOuZ31DkKRvHcGhhpARRVmBVbyC9bwjlinr8WdDkKQVmnpznAwZVpxfW6yCNZRljlmmnEhfQ5AkAP5Ia0OwYK1ZWdEe8Ovs7Khlypdsy1xjkJR7uzOsiO+eStc0WlJZjF9cvO/6DXHUMmYTfmcIknKvIbdarzLkxeLUq2IWrBcctcw5j56GICnnrnFvwEwZVqxfXLwWXp9vaODIZcx7dPFOk5JyrA/POn+VKdswrji/uHgzWIuKcW9qlfxE/KUhSMqt5vzTepUpE4pVryjqfuteJMyiS+lmCJJy6gY2NoRMebZ4v7qYBcu9sLKoNndQ3xgk5dBRHGcIGTO4eL+6mFOdtZhGC0cvg/7MTw1BUs60YSzrGEOmVLAh04r1y4s5g7XcG+Zk1EXsbgiScqUO91uvMmd08epVcQtWUa9tqoTKuYOmxiApR35LD0PInOeK+1ZZTIMcvYzanNsMQVJu7MvPDCGDijoNVOyvm45ja0cwo07iLkOQlAMtGcuGxpA5c1mXpcX79eVFfvhPO4KZdQPtDEFS5tXmPutVJg0rZr0qfsF6xhHMrMbcS11jkJRxf6S3IWTSc8X99cUuWC8xzzHMrK5cYwiSMu1YLjQEC1aIBWuxWzVk2gX0MwRJmbWDX+jJrM/4KO6C5UXCrLudjoYgKZNa8DANjSGjniz2Hyh+wXKZe7Y15n4aGYOkzKnNvWxpDJlV9I2kil+wij4JpxLblpsNQVLm/JV9DSGz5vJi/AXLi4TZdzw/MQRJmfIjzjOEDHuOxVkoWAMdycy72k96kjJkf/5qCJmWwp1mylI4jDp8TXNHM+Pm0INxxiApAzoy3HetTKugNVOK/UfSmMFa6k2fc6ApD3kDaEkZsCEDrVcZ92bx61U6BQuecDRzYGseoLYxSIr8w+IgNjOGjHsqjT+STsEayBLHMwf25SZDkBSxujxEZ2OwYMVTsGbzsuOZC6fxM0OQFKly/k0fY8i8SYzNTsHyImF+XMWRhiApSn/nKEPIgaeotGApxk+Ad7GrMUiKzuWcbQi58Hg6f6YstQMayw6Oak7Mpnc6E7CSlJAL3fkqN+9QG6SzLrw8tUNyDis/mvEs7YxBUjTOs17lxlNpfe3OgqVi2ICn2dAYJEXhFK4zhNx4NK0/lN4lwjK+ZGNHNkfGsCezjEFS4PrzrxQnG1RaC1mf+en8qfROqkoecWRzpTNP08QYJAXtWP5pvcqRZ9OqV6R6Wj3kyOZMd56hsTFICtZx3EUtY8iRFKd6ylI8rHK+opWjmzOvsF96nxckqRrO4CZnr3JlKS2ZmV7pSU9FekvLFIxdeZj6xiApOOdzs/UqZ4amV69I+eTyImEe7euFQknB+RnXpXoNRyFIdS14uqdXLSbS0hHOoZc4iLnGICkQ/8evDSF3KmjNlPT+XLozWMu9SJhTu/MszY1BUgBqcZP1KpdeTbNekfr15wcd4ZzqwRDWMwZJJVaPBxhgDLl0f7p/Lu0r0LWYxAaOck59wL58aQySSqYxj9DHGHJpOa2ZmuYfLE/9AB9zlHNrK4bT0RgklciGvGy9yq2h6dYrSvAVVb9JmGcb8wo9jUFSCWzDa3Qyhty6L+0/mP6XVGszifUd6RybzzE8ZQySUrUvD9DUGHJrCRumuQcWlGIGaxkPONK51ojHON8YJKXodJ60XuXaM2nXK0qyi+09jnTO1eI6rvP+X5JSUcbl3Eodg8i1+0tx4pXib37CFo527j3O8d6lUFKRNeU/HGQMObeADdPf7LoUM1iV3Otoi0N4iTbGIKmItmKE9UoMLMW9REpzo8v/ONoCujCaPYxBUpEcwGtsZQxK/xuEpStY7zPW8RawHs9xsTFISlwZF/Okt+gSMIenS/FnS7XQuAn7OOYCytmbDRnMcqOQlJhm3Md5JVllrPDcW5odOEt1+rXiS79Fpm+9ST/GG4OkRHTmAdoag1bYk6Gl+LPlJTrcSbzsmOtbOzKS/Y1BUgL6M9x6pW9N4MXS/OHykh2yu2Hpu9ZlINdR2yAkFaAJ93AnDQxC37qTitL84dJdoW7BZOo58lrJUE5gkjFIqpFOPEA7Y9BKtuaD0vzh0s1gzeQJx13fswfvcbQxSKq2Ms5kuPVK3zOiVPWqlAUL7nDk9QPNuY+7aGQQkqqhJU9xMw0NQt9zdyk7f+nU4ktaOfpahXEcx1vGIKlKjuBm1jUG/cASWjGjVH+8lDNYy0vZLBW0jozkKm/OKmmtGnIdD1mvtEoDS1evKPE2bO35wI3gtFpvcDLvG4Ok1dqN2113pdU6jMdK98fLS3roHzHC8ddq7cRoLnZDWkmr1JCrGGa90mp9U5pb5IRRsOBfngFag/pcxYt0NAhJ37MP47i45O9hCtk9LC7lny/1BbpmTHZLOK3FEq7kytI+USQFpBl/4jQXmGgtujCmlH++1O1/No96Dmgt6nIZ77KnQUgC+vIOp1uvtBZvlrZeEcD0qhcJVRVtGeIXsaXc25yBPEEbg9Ba3VbqB1D6zwDljGcTzwRVyUyu4O8sNwgph2pzLr+jsUGoChbSilmlrjelVuEclqqsBdfyGt0MQsqdXRnDtdYrVdF9pa5XBPENjNudkVA1dON1bqGlQUi50Zr/8BLbGoSq7LbSP4QQCtZXDPJcULXO2jP4lMv9/qmUA3W5gPc5zkXtqoYPeM2C9V+3eDaomhpxGR/R3xddKdP68j7X0sQgVM1WUVn6BxHG21MtPnOhu2rkNX7OK8YgZVBn/uT2LKqBxWzM9NI/jDBmsJZzu2eEaqQHLzOYLgYhZUobbmak9Uo18mgI9YpgLrBsxBfU8axQDVXyEL/kY4OQMqAFF3MB9Q1CNbQ3z1uwVm6ch3pWqABLuZ0r+dIgpIjV5zwupYVBqMY+pkMIK7AI6EaZLnRXYepwFp9wF1sahRTpc/hMPuaP1isV5MYw6lVIM1jlfMpmnhkq2FLu4wo+NQgpqnJ1LL/x45EKtpCN+SaUWhOKihC2BVMmXqhPZBy308EopCjU5mQ+4E7rlRJwTyj1iqB2EdqQL6jr2aHEKvtjXMVIg5ACVpcTuIR2BqGEdGFMKA+lPKBYpvCQ54YSPLcP5w2ep49RSEFqyPl8wu3WKyXmtXDqFYHtg909hM3tlTkfcSO3Md8gpGA04VQuZiODUKKO5x4L1uq8QbccnxpLmMx0vllxD/BaNKUJLWhNI581BZvF7dzIZwYhlVxrfsTZNDUIJexrNmGxBWt1TuSu3J0Sk3iZUYzmYyayfJX/jcZsSTva05nubOxzqMYqGMTfGBzKV3ilHOrKRfRzW2kVxZVcGtLDCa1g1eMLWubmZBjLvTzNO9X87NedHnSnq/sc19AH/J27mGsQUqrKOZiL2N0gVCTL2SKsrabLgovo//h1Dk6EBfyLf/BeAb+hMftxMAeyjs+qGpjDHdzARwYhpaIZJ/Ej2hqEiujx0O4HE17BasXnGZ8+XsBf+SszEvldtdmdgzmUTX1uVVslL/IvHnbxu1RUnTmb41xJqqLrwxAL1trcyzEZPgXu4WImJPw7y9mLMzjEXcRqYC4PcQcvuy5LSlx9juIcuhuEUvAOO4T2Oh5iwdqF4Rk9Ab7mLB4t2m/fgJM4nfY+z2rgU+7iTr4wCCkhW3MqJ7OeQSglp/Kv0B5SWZBBvUnXDA7/85zAlKKPZy8uom+g4xq2CoZxB494yVAqSFOO5hR6GIRSNJVNQ9qgIWQnUZmxn2X8JsVd87fnPpZnLsN0fuZwO7sHdYcDKRZl9OYu5vs64k/qP78J8wkRorqMp1WGXnbmcyTPpPw32/MLjne3mRqaxMM8xCtUGIVUJVtzHMexhUGoBBaxKV9bsKrqEq7MzNDP4EBGlOQvb8ovOZVaPvtqaAqP8BAvrWb7V0kArTmG4+lsECqZ2zgjxIcVasFqwZc0zsTAL6MXr5bw72/PX9jL518BvuYRHmKYNUv6nnU4jOPp5SV1lVQl2xW0q2TuChZcywWZGPp/c2LJH0Nf/uS3Cws0nUd5iBdYZhQSG3AYR9DbRQgKwLPsF+YDC7dgbcbH1M7A0J/P3wJ4FHU4l9/QwmdigWYwiEE8xzdGoZxqzeEcwa4uPVAw9uNZC1Z13cfRGRj664OZiVuP6zjO52IClvMag3iasUahHNmeg+jLzm4Co6C8x3ahbhQd8lOlG29kYPBn0D6g+Y6DuYmNfEYmZCJPM4gh3jhamVaP3vTlIG/IpSCdwW2hPrSwP4sMo1cGhv9Bjg6oX7fgL5zsczJBS3iZpxnE+0ahjNmUPuzPPhn5wpGyaBJbhLvBaNgFqy9PZOIUuIpfBPV49uMW2vjMTNh4nmMow5hqFIpcY/ZgH/rQwSgUuJ/zx3AfXNgFq5z32CoTJ8HZ3BTU42nKTRzrc7MoxjGUYQxjulEoMnXYiT3oQw+/HagozGKTkJdohL5c8QxuycRpUMn5/D2wx3QWf6W+z9Cijfi7DGUoL/mNQwWvHt3oTS92oaFhKCK/51chP7yy4J/4n9I6I6fCpcHtTt+ZB2jrc7SoKniLYQzlJWYbhgLTlJ3oSS+608AwFJ2FbBbiDXLiKVhwEX/JzOlwFZcG9nXSZtzOET5PU7Ccd3mN13mdj0L9SrFyooz29KAHPejoblaK2A2cF/pTLXSN+Jz1MnNC/Iszg9sL/Hz+SF2fq6mZwQhe5zXeYI5hKEWt6EpXdqQH6xiGoreM9oy3YBXq1/xfhk6KIRwe3KK8njyWoRIbj88YziheYQwVhqGi1qqudHUHPGVKCLehy0DBas4XNM3QaTGSg4K7brwVA9nCZ2yJzOJ1RjCK0Uw0DCXyur4lnelMJzqzoXEogyrpxNsWrCRcySWZOjU+YT8+Dewxrc/j9PBZW2JTGM1oRjGaLw1D1VSXbehEZzqxQ6Y+kko/NIgDY/ikE4OWjM/Yt1ymciCjAntMDbiTo3zeBmI6o1aUrfGGoTVoyg4ratU2rqVUbuzOyxaspPwt9G8LVNs8juKZ4M6Gy7jMZ25g5vAOoxjFKN53rZZWaME2K1ZWbUW5cShnhrFHDA8zloLVhk8y9+lsCadwT3CP6sf82WdvoObytlUr11ywLgHswTALVpL+ySmZO0kquYRrgntUZ3FjROdFPs3jLUYxivd4hyXGkWm16UBXutKRzqxrHBKv0jOOBxrPG2l7xmVyU7w/cnFwG0+ew9+tWJGYz1srVmuNC26HNdWcK6uk1dmb5y1YSfs3x2fyZPk3p7I0sMd0Oje7siMyS/l4xQXEN1lkHFFyZZW0Nq+xSywPNaaCldU5LHiGI5kf2GM6lVt9iY/UYt7hGX5tENF5mv0MQVqjfXkuloca01voR/wnoyfMfrzA+oE9pn9ymvfMi1Q9dgxuExBVxU+9zCut0Wvx1CsimxF6h3MyOqvSmiMYxDdBPaaxLKSPz+co3cHVhhChaWxEN2OQVuuM4DbpXoPYljL/i5Mze+JM4QDGBPaY/sqFPqOjM5HtmGkMUVqfj2lmDNIqjaJbTFdWYlvT9BbnZHQdFjTmeEYF1s4H05FtfFZHpZJ+vGsMkVpAJXsbg7RKp/NxTA83tgtun3N3hk+exjzBkUE9ogr686LP6qj8nWcNIWLXenMkaZVG8nRcDzi+3Y425aNM7wuznDP5Z1CPqCkvsYPP7Uh8SBcWGEPU+nG/IUg/sF9sHx7jWzL+BXdk+hSqxW2cE9QjmsNBTPS5HYVlnGS9it6DDDcE6Xteim9uPsbv5P2exZk+jcq4gd8E9YgmcHBw+3RpVa5khCFEr5Ifu0WK9D2/ie8hx7hgfDatMv9V5j0oD+pmlpP5mCO9fU7gxnCiN4HOhIm0ZztjkL71NH+wYKVjNGdl/v5cvVg/qAV944DePssDtpgDmGwMGfEGZ1HHGCQAKjkhxoUqcRaseTRmt8yfUjuxEYMCulTwEu38VB2wX/CYIWTGHBqyuzFIADzMtTE+7Fgv+jTnU9bJwWl1L/0DunlGfYaxs8/1IA2nF8uNIUMa8xEbGYPEcrZnXIwPPNYbz8zimlycWMfyCPWDeTSLOJSvfLYHaD4nW68yZl6Mi3qlIvh3nPWKiJct1+djNs7FyfU0R7AwmEfTmZdp5DM+MGdyqyFkTjkj6WIMyrmlbMVnsT6FY7WI3+Xk9NqfZ2gazKMZQ3+/qRaY57jNEDKogp8agnLv1ljrFVHf1+8tjmHdXJxgm7IHD7MokEfzPsvZ02d9ML5hX+YaQyZ9zo60Nwbl2AKOivf1rTzi4Jfx69ycZN15nhbBPJo/8G+f98E4h0mGkFk/ZakhKMf+GvPrW9xbR5bxWo6+1fY6+zInkMdSn6F097kfgEc4whAy7Xp+ZAjKqWm0DeZdL3cFC/aJ7+5EBXgtoItBGzKCTXz+l9gcOnqfyIxrwcc5WQohfd+53Bjzwy+PPP7neD5HJ1sPBtE4kMcyhUOY5/O/xH5uvcq8mTHeIkRKwEexfzs6/rvLdWJU9DWxOl7igGBuvHwoD+cq+9C8TC9vCpwDdXmPtsag3DmCR+I+gFrRD8EUNqNzjk65TdmZBwLZ3f0DlrKXrwIlspxDmGoMuRjpCRxtDMqZ1/lZ7IdQloFhaMVHOdv68gmOCOYGOrdxmq8EJXEzZxlCbgzxo4xyZleGx34ItTIwDHOpS+9cnXgd2ILHA7k49Ay7s5mvBSU4649wDVyOvM2Zmfg4LFXNg/wl/oPIxgqaq3N3h7wT+Fsgj2QJR8a7z27EfssUQ8iRsdxtCMqNpfwyC4dRKxODsYxZHJKzE7Ab9QL5BuUChnEC9XxNSNHnnOjNnXNmJAOoawzKhRv4jwUrHG9zCBvm7BTcjdm8HsQjmcq79PP7hCm6iFGGkDNzqZOzpRDKq1kcyYIsHEh2rur3ZmjuTsNKTgrmwsEAbvJ1ISUfsU0wX3JQehrwgZv7KhcfIK/NxoHUysyQ5PG2qGUcyIhAVkCNooU3z0nJObxjCDm0jGkcbgzKuA84lYqsvEVnRwfeoU7uTsY59GJsEI+knIc4zFeHonuHTll5+VG1X69fpqcxKNMO4OmsHEqW1s18yD9yeDI25alALhtUcAIjfXUout9Yr3Krkp+6d78ybVB26hUZ21mlBR+yfg5PyXHswuwgHsn6vMaWvkYU0ftsa8HKtX9zvCEoo5ayHR9m53Cy9c2vmdnYO6PaOnJfIKvpptGXmb5KFNEfrFc5d3Ew9yKVknZ9lupVlha5/9dY9qd1Dk/LtjTmuSAeyXRe51hq+0pRFOMZYMHKufzduUJ58TX9WJSlA8ra3kUVnJvTN6AfB3Nnuhc5xXUiRfJHt2cQV/OlISiDfsWsbB1QrcwN0SS2oFMuT859eYXPg3gk74KfsYtgKidbsOR2DcqksZydtY/mWdx9++JAFnynrQ4PsXkgj+UK/u7rReL+ka3pc9XYPQw3BGXMhdm7/VcWC9ZUfpvTE3QdHqR+ME+WJ3zFSNRibjYEAW7XoOy5jxezd1DZvH/cdbyb05O0K7cG8kiWcwyv+KqRoHuZYgha4XXuMQRlxlx+msXDymbBWsaFuT1RT+DsQB7JQg7lfV85EnODEeg73K5B2fEbJlqw4vE8j+b2VL2WHoE8khnszyRfOxLxMm8agr5jIn8yBGXC21lds1uW2SFrwzga5/R0nUAnZgTyWLblZZr7ClKw47jXELSSBnwQyG2ypJqrZI8srr+C7M5gwVdckdsTdmNuD6Y6v8vhLPY1pEAzcjwjq9VZyKWGoOjdkdV6lcV9sP7nDQ5mw5yeslsxgzcCeSyf8w5HZrjKp+EWBhqCVvHxZW/nsBS1mRzCgqweXJbf9pbl+rYif6RLMI/lcU71S+UFuc0ItAqV/MRnlqL2C6Zl9+BqZXroJtKarjk9bWuzJ3ewJJBH8zZz2dfXkhp6lasMQat5jWvH9sagSL3BOVn+iFAr48M3nFNolNNTd102CGizz9eoze6+ntTIbxltCFqNEQygrjEoQhUcwYQsH2DWC9YipnJYbk/fLozhw2AezVA2oJuvKdW2hNNYaAxajbnU9c6fitKNwWyMXSRlORjE59kztyfwNLZjakBn2+2c4qtKNT3BIYagNXC7BsVoMh2Zle1DzMN3u87N8TYB6/OPgB5NJQN4yteVarrPCLRGbtegON+ZZ2X9EGvlYBinUy/Hq3+25nPeCubRVPAo3Wjra0uVzeMMlhqD1uhd9mVjY1BEHs3DTpVluRjKBoylfW5P5Nl0DOqGNQ14kr18famihznSELRW3Xk1J6/m8l0pGvnY/nEhJ+d4R6xm3BLYaBzMUF9hqsgNRlUVr3OPISgal+TjLrX5+cxzI2fn+HQ+mgeCejwNGeg3n6qggtZMMQZVQWs+zO2WNIrt40DPfEx55OcGJpfwVY5P6OtZJ6jHs4CDec3XmbUaZb1SFU3kdkNQBBZzWl6uKOWnYM3J9QxWS/4S2COay/7B3C0xXIOMQFU2zQgUgasYl5dDzdMteAfynxyf1CfRJ7BHNJt9GO6rzRo9bQSqsuVGoOC9z5X5OdjyXA3tBXyd4xP7RuoHWLEG+4qzWtMZaQiyYCkzKjgzT/tS5qtgzeDCHJ/abflpcI9pAQf7PbnVejbH331V9S0zAgXuJl7J0+GW52x47831TuKXsnlwj2kRh/OQrzur9IwRyIKlzBjPxfk64PLcDfGA7G/Pv1oNuDHAR7WEY7jD154fWOxthVQtzncq7PPzVOZZsLJtEpfk+BTfL8gbBy/nNG7w9ed7Bub4o4BqwlsqKWQ3Mixvh1yew2G+hedyfJL/Nbil7v/9bHMev6DS16DvcGduVfeDihSqz/I4tZHHglXJKczM7Wm+ORcF+siuoj9LfB1aYY57YMmCpYyo4FTmW7DyYVKuv034CzYK9JH9mwOZ42vRiiwWGoKqxUXuCtUNvJjHwy7P6XDfxcO5PdWb8IdgH9sQejLBVyMq+bshqJqcwVKYxnNpPg+8PLdDfi7Tc3vs/dkx2Mf2Lj0Zk/sXpMG876uyqskZLIWogpPy9u1BC9ZUzsjtsZdzPWXBProv2YU7c/6SdL2vyqo2Z7AU5qvZy/l9q82vx7g3t8feg8MDfnSLOIWLc/x28Zb3IFQNOIOl8HzEL/N78OW5Hvpzcrze5w/UDvjRVXINB+b2u56/cctI1YBnjcIr/f1ZYMHKp1mcldtjb8/JgT/CZ9kpl6uxRvKkr8uq0ZuZFJbfMSLPh1+e8+EfyO25PfbLaBD4I/yEHvw1d9uPuuGqLFjKghH8Pt8BlOf+FLiAj3J65BtzXvCPcTE/Zh8m52hU7uF5X5dVIy5yV0jm0z/vpd+CNZ/jc3sPr0tZJ4JHOYROudnVfDY/83VZFixlwEW5nbywYH3Hm/w2p0fePJK38685iAG5uPXxBUzyCaka8hKhwvEktxpCmREA5bxAr1we+ULaR/NNyg25hhMzPRq3MMAno2qsO68ZgoIwje2ZYgzOYAFUcDKzc3nkDfhVNI91Cv05jImZHYs3uMCnogrgDJZCcZr1yoL1P59zbm6fCO0jerSPsTW/y+S+Kq+xH4t8IqoArsFSGG51q5n/qmUEK7xDO7bPZcXekAcjerxLGMqdNGf7TH04eJTDmOOTUAVZn7MNQSX3MYezxBjANVjf1YyxbJbD465kJ96M7lFvx5UckIHzdyqDuYvBPv1UsI68Zwgq+UfgnhG+n1iwUtCTF3M5pzeMPaJ83NvxM46hTpSPfRlv8RRPMsYbnCghHfjAEFRiP+EvhmDBWrX/49e5PO59op1D2ZSLOI3GET3iD3iOZ3mR+T7dlKgt+cQQVFKDOMg7UViwVqc2Q9k1h8c9hh0jnklpQj9OoWfgj/IbXuA5nuMLn2Yq0oeNzw1BJTSJTkwzBgvW6rVhDOvm8LhP5N+RH0EHTuFYNgnucY3nFYbzCuP8ZKei2pivDEElU0EfXjAGC9aa7c/AHObyBR1YnIHj2IaD6MsuJR/B5XzIKwznJWcVlJKNvA+ASuh3OV1gY8Gqpj/y0xwedZYWJ25KH3rRizYp/91KxvM2Y3mV15nrE0mpWp+vDUElMpzebnVrwaqKOrxE99wd9Tdsmbn7/W1OL7qzA9vRqIh/ZS7v8DZv8TbvupuVSmYdZhiCSmImnfjSGCxYVbMpY2iRu6O+hoszemTltGMHOrAV7elAk4J/XyUT+JTP+JT3eYvxrq5SAJrm9IZfKr0jeMQQLFhVdyiP5C6dRbTPxTLZlmxMGzahDRuwLuuxPi1oRN1V/neXM5uZfMM3zGQqE5nMBCbzeSbWqylbGjHPEFQC/+AcQ7BgVc+1Obz57t30z/GIN6fOt7NblcyiwhkBRaSed7NUCYymp2eeBau68rgSq5JevOzQSxGqzVJDUMpm0ZXPjGHVyo1gtZZyfO5mMMq41nNCitJyI1DqH8lPtV5ZsGrmM/rnbvlyF05x4KUo3+y8r6XSdTWPGsLqeYlwba7K7DfrVudrOmRuuwYpDxav5qsaUjG8yN7ufbUmzmCtzaU8l7Mj3oDfOOxShLxIqPRM5Tjr1Zo5g7V26/Imm+XqiJfRhXcceCkyc2lsCEqpzO/HEGNYM2ew1m4Gx+Rs16Pa/NVhlyL8aCSl41fWKwtWMkbw45wd8V4c5rBLFixpFZ7iakNYOy8RVtVdnJir4/2Kju4LLUVlCi0NQUU3nq7MNIa1cwarqs5kdK6Otw3/56BLUXGRu4pvIUdZryxYyVrEETm7V/35dHHYpYh4iVDFdyqjDMGClbTPOTVX247W4mZqOeySBUta4U/cZwhVfxNV1X0I9M7R8bZiBiMcdikS57GuIaiIhnBy7u5uUgAXuVc3r/vol6PjnUtHJjjsUhTeZytDUNF8TjemG0PVeYmweio5OVfXn5twrYMuRcJF7iqehRxhvbJgFfskOzJXJ9kRHOygS1FwDZaKpZKTc/ZNegtWSXzOYSzJ0fHexDoOuhQBZ7BULFfxgCFYsNLwSq52dt/IG+dIUXAGS8UxmF8bggUrLTdwa46Otj8HOeSSBUu59DFHOztqwUrTubyYo6O9hRYOuRQ43wSVvDkc5s7tFqx0LeUIxufmaL1MKFmwlMdz6ljeMwYLVtpmcATzc3O0J3GgQy4FzUuEStr5DDIEC1YpjMnVlelbvUwoBc0ZLCXr79xoCBasUhnIxbk51o34mwMuBcwZLCXpOS4yhEJ4L8JCvUZLuuXkWLfnE95xyKVAHU0HQ1BCPmA/FhhDIZzBKtz5DM7Nsd7A5g64FCgvESop33Aws4zBglVqyzgyN/M6zbjbWU8p2NciKQlLOYqPjcGCFYI5HMzUnBxrT37pgEtBcgZLyfgRLxiCBSsUn3MYi3JyrL+mhwMuBcgZLCXhGm42BAtWSF7jZCpzcaS1+TdNHXApOM5gqXD38wtDsGCFd1pelpMj3YK7KHPApcA4g6VCvczJVBhDMlywnOypuQmdc3GkWzGH1xxwKSgH0tUQVIAP2Ie5xpAUZ7CSVMkZPJ6TY72a3R1wKSheIlQhptGXb4zBghXuC9xxOZnZqc0DtHLApYB4iVA1t4CD+cQYLFihn6Qf5eJIW/IQdRxwKaAPeFLNJwdeNwYLVuimcyDTcnGkPbjS4ZaC4QyWauq83CxvsWBF7hMOYF4ujvQnnOVwS4FwBks1cxU3GYIFKxZvcnROPk1ezz4OtxQEZ7BUE/dyqSFYsGIyiFNysfFoHR5iB4dbCoAzWKq+F3LyXmXBypR/c0UujrMJg2jjcEsWLEVnJIew2BgsWPG5gltycZyteIJmDrdUYl4iVPV8kJv1whasDDqb+3NxnJ14xvsTSiXmDJaqYyL7Md0YLFixqqA/z+biSLvzNC0ccKmEnMFS1c1gH74wBgtWzJZwOC/n4kh34RU2ccClknEGS1W1gEMYZwwWrPhP5L6MycWRduRN9nDAJQuWgraUIxluDBasLJjNvnyYiyNdn+e42AGXSsJLhKqKSs7gaWOwYGXFNPrwZS6OtDZX8W8aOuRS6pzBUlX8hDsNwYKVJV+xPzNycqzH8xKbO+RSypzB0tpdzl8NwYKVNePYn7k5OdauvMsFlDnoUoqcwdLaXJuTDbAtWLkzkkNZlJNjbci1DKSVgy6lxhksrdkN/NgQLFhZ9QKH5ui2BPszjjMddCklzmBpTe7kfO86aMHKsmc5lqW5Odpm3MyTtHXYpRQ4g6XVu5/TqDAGC1a2PcqxuXohPIhxXOeNdKSicwZLq/MEJ3p+WLDy4GGOz9WpXofz+YD+LnqXLFgqgSEcnaMrJxasnHuAM3N2LXwj7mQ4ezr0UtF4iVCr8hKH5ObrVRYsAf/kjNwtN+zB87xCXwdfKgpnsPRDYziEBcZgwcqX27koh0fdkycYRi+HX0qcM1j6vtHsxSxjKI1aRlBCI1hAnxwe92aczJ7M4SO/MiwlaBNONgStVK/6MNMYLFj59CoV7JHLI9+Uozmdprzr5LWUkDacagj61lj68I0xWLDy6yWW53bpdxN6cx6b8QVTPRGkgrXmNEPQCqPZ23plwbJizWef3B59HbpyNv1owqfM82SQCtCKMwxBgLNXQXBnojCczQ25H4vlDOVuHma+p4NUI10YZQgCxrI3M4zBgqX/Ooe/OxrAbJ7kCZ5hrlFI1bQ9bxmCGO3slQVLKzuNW9w2Y4VljOBBHmaCUUhVtg3vGkLuOXtlwdIq9Oefror7jkpG8RxDGc5Cw5DWqgMfGELOjXFpuwVLq3Ysd1HbGL5nMSN4gaG8zhLDkFarLR8bQq6NZD/rlQVLq3Mk91DHGFZpAW8ykpGM5DPDkH5gc58ZufYKBzLHGCxYWr2DeYB6xrBG0xnJSEbzLuOpMA4JgDZ8aQi5NYRD/Q62BUtrcwAPU98YqmQhHzCO93if9/gsspvd1qYpzWlG029/rnZAVYBWTDSEnHqKo1hkDBYsrV0fHqOhMVTTUibw+Xd+Jpa0cP2vNjWj+Xf+0/+vVM1WMcI+H1WIDbwnQk49yPEsNQYLlqpmF56ihTEUpIJpTGMqU77937OYy1xmMafA6lVvpar0358WNP3Of27h81GpW5fphpBDd3JaZLP3FiyV2LY8SytjKJL5zGUuc4BZVAIzgQpmf/v/r0ujb/99Q+rRmDo0oTbNKKd50Z43Ph9ViGbMMoTc+QfnuRLVgqXq2pRn6WAMPh+lKmnsHRBy5wZ+RKUxhMmdw0P2BbvwujFIqhIvE+XN1ZxnvbJgqWa+YW+eMwZJVbDMCHKkkp9ziTGEzEsS4avL3fQzBp+P0lo/MDuHlRfLGcDtxhD6E1KhW8Jx3GQMktaiwsXOObGYftYrC5aS+axytlPBktbKi4R5MIs+PGIMFiwl5Wq/iitpLdxsMvumsAcvG4MFS0m6gSNZbAySVssZrKwbz26MNQYLlpL2KAe7z42k1VpiBJk2lh58YgwWLBXDc/TkS2OQtEp+izDLXqK3d5u0YKl43mEXJ4glrZIzWNn1GPt+52ZesmCpCCayG08ag6QfcA1WVt3GUSwyBguWim0eh/F3Y5BkwcqBSq7gDMfWgqV0LOdHXOi2DZJW4jYN2bOY47ncGCxYStN1HMECY5D0LWc5smYm+3CvMViwlLbH6M0UY5C0gjNY2TKeXXjJGCxYKoWR7MhbxiDJgpXB1/cefGAMFiyVykR242ljkISXCLPkOfZy1ysLlkprLgdzkzFIcgYrM27nQO/bYcFSCJ9az+YSv1MoWbCMIAMq+BmnOxtpwVIoruZAZhmDlPMPW4rdPA7nT8ZgwVJInmEn3jcGKcecwYrdRHrxuDFYsBSaj+nuTXSkHHMGK26vsyOjjcGCpRDN4TCuNgYpp5zBitkD7OnOhhYshWs5l3CsO7xLueQMVqwquZpjWGgQFiyF7T525UtjkHLHGaw4LeIELqHSICxYCt8YuvO6MUgWLAVvMrtzjzFYsBTPU7Y3dxiDZMFS0N6kGyONwYKlmCzmFAb4givliGuwYvMfejHRGCxYis8tHMgMY5Bywg9UcdXhCzjBryRZsBSrwXR2NZaUm7dsxWI6+3G9MViwFLOv6O3TWLJgKSBj6cbzxmDBUuwWcwEnMN8gpIzzEmEc7qUnnxuDBUvZ8B92ZJwxSJnmDFYMY3QJx7nyyoKlLPmA7jxoDFKGOYMVuhns5+3MLFjKnrkczU/9jCtZsFQSo+jqyisLlrKpkj+zJ5MNQsokPz6F7G524wtjsGApu15mBz9DSZnkDFaoFnE6/b2ZswVLWTeN/biCCoOQMsYZrDB9xE7cbgwWLOXjZfhyjmS2QUiZ4gxWiB5gR94xBguW8uNRdmC4MUiZ+uik0EbkEo5hrkFYsJQvX9DbS4VShjiDFZYJ9OJqKg3CgqU8frq6nH38VqFkwVLihrIjrxqDBUv59TxdGGwMkgVLiVnO5ezNVIOwYCnfprAvF7LEIKTIuQYrDFPZ3+UXsmAJoJLr2JVPDUKyYKlAg9nBqwKyYOl/RtKFe41BipiXCEtfca9gPy8NyoKllc3hOE5ivkFIFizVwBfszuVeGpQFS6tyFzvznjFIFixV071sz2vGIAuWVuc9unGzMUgRcg1WqcymP8cxxyBkwdKaLOQs9mOSQUgWLFXBq3TlbmOQBUtV8SydeMwYpKh4ibAUmV/B7n4HWxYsVd00DqMfswxCsmBpNd5jZy5nuUHIgqXqeZBOvGgMUiS8RJimSq6nK2MMQhYs1cQX7MUv3OVdioIzWOkZz55cwGKDkAVLNbWcq9iZdw1CsmAJgEpuZHuGGYQsWCrUWLpxtdvnFf1FWyqMlwjT8Dl9OJd5BqE1KzMCVdku3M0WxlDEguUHHhWmkW/7RX+W3spPTFlV4Qu6qu5VOnOLMRTxpVsqjJcIi2s8ezHAeiULlpI3hwEcxdcGYcGSBStnKriebRlqEKoqLxGq+tbjOo4zhsQtp7YhqEDLqGUIRfA+Z/KKMag6nMFS9U3neA5kgkEkzBksJVGwlLSlXE1n65UsWErHILblFiuBBUvBlQEl61U6c4n7XcmCpfTMZgD786VBSAFxBitJ87mE3XnPIGTBUtqeZTuud3+shDiDpcI5g5Wcp+jI1d5nUBYslcYcLqA3HxuEZMHKkCmcRF9n6GXBUmm9TCf3eU+AM1gqnJcIC1fB3WzLXQYhC5ZKbwGXsDsfGoQFSyXmDFahRtOD/swwCFmwFIrhdOEvfn6WLFjRmsk5dOMNg5AFS2FZwE/YkdcNooacwVLh/IhTcw+yNf9wsYMsWArTW/RkAHMMwoKlknAGq2Y+Zh/6MdUgZMFSuCq4hY48bBCSBSsK8/kF2zDYIGTBUvgmciQH8blBVIszWCqclwir6ym24SqLqSxYisdAtuEKlhiEBUsWrEB9yH705QuDkAVLcVnA5ezECIOQUuNHmqqaxQVsy7MGIQuW4vQWPTjJPWWqxLkHeRalo5K72YrrTUsWLMX9UnYX23K3QfjWKM+iIIyiJ/39xqAsWMqCKfRnP3d6XwtvKqvCuVh7ba9Fp7ETrxmELFjKjmfZjgvdIWsNnHuQZ1ExLeF6OvBPtxKVBUvZ+2x9HVtxt9+W861RRXyWadWeYmsu8COeLFjKqsn0Z2e/WWjBkmdRikbTi758ZhCyYCnbRrILJzHNIHxrVOKcwfq+SQxgJ14yCFmwlAcV3EUHrndZtwVLFqwiWsjVbM0tvtLIgqU8mckFdOVlg/iWbwKyYCX5Me5utuISV13JgqU8eovdOZgvDQJwBkueRcl5nm7097VFFizl2ZNsw5UsNAjfGpUAZ7DgXQ5gb0YbhCxYyrt5XEp710lYsORZVLBJDKATT3siyIIl/dcEBrADg3xrlAqS5xms+VzNVn5UkwVL+r73OJC+jMvt8fu2IGt6zYvlP9iSS5jrKSALlrQqT7EDZ+X0NqyLHX4lUDTyp4L76Mg53r5ZFixpzZ/Ab87pJ1E/eyuJ50/eDKEbx/KJQy8LlrR2+VxLMc+BV8HyNYM1gj3p4/cFZcGSqmMSA9iep3J0xM5gqXD5mcF6n370YKhDLguWVH3j6Mu+jMzJ0c53wFWwfMxgfc5JbMuDVDrgsmBJNfUcO9GHMTk4UmewVLjsz2B9zSVszV1UONiyYEmFGkJX+vFRxo/SNVgqXLZnsKZzCZtxNYscaFmwpGRU8iBb049PM3yMzmDJgrV6M7iCLbna22rJgiUlrYIH2ZoBTMro8TmDpcJl8xLhXK5mSy5njgMsC5ZUrM/nt7AFAzK5paAzWEriGZK9Dx5XsymXMNvBlQVLKq7F3EI7LsvcC64zWLJgrWwOv2czLmGmAytJ6VmH3zOLysz8bO2QqmB9MvN8mMkVtHBAJak0mnABkzLyhtLU4VTBemfiuTCbqyxXklRqjbiAr6J/S3GbUSVh1+ifCdO4nOYOpCSFoR4D+DTqtxVvVqsk7Bz1s2AKP6WRgyhJYanNibwX7VuL91RTErpE+wwYz7k0cAAlKUxl9GVElG8vNzl4SsD2UZ7979KfOg6essVtGpQtlTzJzuzGkOge+UcOnhIQ30ajozmJHbgrJ7eplqToded+lkb0Gf4gh0wJaBfVzNUz9HLIJCk+m3ANMyN5q9nQ4VICNovkfF/KvXR2uCQpXo05k3HBv9187EApERtHUK7mcB2bOlSSFL9yDmFo0G85dzpISkTLwMvV5/zYLXUlKVs6cTMLAn3bOcLhUSLWDbhcjaI/tR0iScqiDfktXwf3xjOXhg6NEtE0yGq1jIfZzcGRpGyrxzE8T0VAbz+3OyhKSIMAb31zJZs4MJKUF225iqmBfLrv4HAoIXUCuyh4prOzkpQ/dTmK51he4jehfzoQSkwZo4KoVov5D90dDknKsy34A5NL9kY0gRYOgRJUm58xv6Tl6jN+6b5ukiSAOhzO0yWYy1ro0l8VwZYMKdG81f308RZskqSVbcLPGZvi29ESDjN0FUUZpzAj1XI1jh+zvsFLklanI7/l01T2s97XsFVELbkvpW1G7mBX45YkVUV3rivqyqx32NaQVXR9+bKodxR8iuP8nqAkqXrK2ZXrmJb421IFN/umpJQ05CqWFaFcvcfFtDReSVJN1edw7mNOYm9MUzjAUJWqXXgvwWr1AZfRzlAlScnUrIO4PYHZrH+7EFglUJfLWFTw2fsF19DZMCVJSStnV67i4xq+PU30W4MqoS15tsbVagZ3sTdlhihJKp4yuvIrXq3WypYF/IkmRqcSn7knVvtm5xO4kb2pZXiSpLSsw1HczMQq7Hd1M62NS0FozMVV3CHrU65jV7cNlSSValZga07mH4xh6Sq3X7yMTQxJQWnGb5i0hq9hPMT5bGVMUmFvDZKS0oiObEEbmlMbmMJ4RjLJWBSkWuzB3uzMlqxHA+YxnfF8xChe5gPDkSRJkiRJkiRJkiRJkiRJkiRJkiRJkiRJkiRJkiRJkiRJkiRJkiRJkiRJkiRJkiRJkiRJkiRJkiRJkiRJkiRJkiRJkiRJkiRJkiRJkiRJkiRJkiRJkiRJkiRJkiRJkiRJkiRJkiRJkiRJkiRJkiRJkiRJkiRJkiRJkiRJkiRJkiRJkiRJkiRJkiRJkiRJkiRJmfP/AFYGHjSeg5QeAAAAJXRFWHRkYXRlOmNyZWF0ZQAyMDIzLTA0LTE3VDA4OjM0OjQxKzAwOjAwTuTlPgAAACV0RVh0ZGF0ZTptb2RpZnkAMjAyMy0wNC0xN1QwODozNDo0MSswMDowMD+5XYIAAAAASUVORK5CYII=;" vertex="1" parent="l-Tpt4Chwf_FJ7SH6TVP-1">
          <mxGeometry x="560" y="810" width="70" height="70" as="geometry" />
        </mxCell>
        <mxCell id="l-Tpt4Chwf_FJ7SH6TVP-27" value="GitHub Repo" style="text;html=1;align=center;verticalAlign=middle;whiteSpace=wrap;rounded=0;fontStyle=1;fontColor=#07040D;" vertex="1" parent="l-Tpt4Chwf_FJ7SH6TVP-1">
          <mxGeometry x="550" y="890" width="90" height="30" as="geometry" />
        </mxCell>
        <mxCell id="l-Tpt4Chwf_FJ7SH6TVP-28" value="GitHub Action" style="text;html=1;align=center;verticalAlign=middle;whiteSpace=wrap;rounded=0;fontStyle=1;fontColor=#07040D;" vertex="1" parent="l-Tpt4Chwf_FJ7SH6TVP-1">
          <mxGeometry x="760" y="890" width="90" height="30" as="geometry" />
        </mxCell>
        <mxCell id="l-Tpt4Chwf_FJ7SH6TVP-29" value="Update Code" style="text;html=1;align=center;verticalAlign=middle;whiteSpace=wrap;rounded=0;fontStyle=1;fontColor=#ed7100;" vertex="1" parent="l-Tpt4Chwf_FJ7SH6TVP-1">
          <mxGeometry x="650" y="810" width="90" height="30" as="geometry" />
        </mxCell>
        <mxCell id="l-Tpt4Chwf_FJ7SH6TVP-30" style="edgeStyle=orthogonalEdgeStyle;rounded=0;orthogonalLoop=1;jettySize=auto;html=1;exitX=1;exitY=0.5;exitDx=0;exitDy=0;entryX=1;entryY=0.5;entryDx=0;entryDy=0;entryPerimeter=0;strokeWidth=2;" edge="1" parent="l-Tpt4Chwf_FJ7SH6TVP-1" source="l-Tpt4Chwf_FJ7SH6TVP-23" target="l-Tpt4Chwf_FJ7SH6TVP-19">
          <mxGeometry relative="1" as="geometry">
            <Array as="points">
              <mxPoint x="1100" y="845" />
              <mxPoint x="1100" y="677" />
            </Array>
          </mxGeometry>
        </mxCell>
        <mxCell id="l-Tpt4Chwf_FJ7SH6TVP-31" style="edgeStyle=orthogonalEdgeStyle;rounded=0;orthogonalLoop=1;jettySize=auto;html=1;exitX=0.5;exitY=0;exitDx=0;exitDy=0;entryX=0.001;entryY=0.165;entryDx=0;entryDy=0;entryPerimeter=0;strokeWidth=2;" edge="1" parent="l-Tpt4Chwf_FJ7SH6TVP-1" source="l-Tpt4Chwf_FJ7SH6TVP-23" target="l-Tpt4Chwf_FJ7SH6TVP-12">
          <mxGeometry relative="1" as="geometry">
            <Array as="points">
              <mxPoint x="805" y="681" />
              <mxPoint x="580" y="681" />
              <mxPoint x="580" y="392" />
            </Array>
          </mxGeometry>
        </mxCell>
        <mxCell id="l-Tpt4Chwf_FJ7SH6TVP-32" value="Build and Push Image" style="text;html=1;align=center;verticalAlign=middle;whiteSpace=wrap;rounded=0;fontStyle=1;fontColor=#ed7100;" vertex="1" parent="l-Tpt4Chwf_FJ7SH6TVP-1">
          <mxGeometry x="893" y="810" width="150" height="30" as="geometry" />
        </mxCell>
        <mxCell id="l-Tpt4Chwf_FJ7SH6TVP-33" value="" style="html=1;verticalLabelPosition=bottom;align=center;labelBackgroundColor=#ffffff;verticalAlign=top;strokeWidth=2;strokeColor=#0080F0;shadow=0;dashed=0;shape=mxgraph.ios7.icons.user;" vertex="1" parent="l-Tpt4Chwf_FJ7SH6TVP-1">
          <mxGeometry x="950" y="50" width="90" height="90" as="geometry" />
        </mxCell>
        <mxCell id="l-Tpt4Chwf_FJ7SH6TVP-34" value="User" style="text;html=1;align=center;verticalAlign=middle;whiteSpace=wrap;rounded=0;fontStyle=1;fontColor=#0080f0;fontSize=13;" vertex="1" parent="l-Tpt4Chwf_FJ7SH6TVP-1">
          <mxGeometry x="953" y="20" width="90" height="30" as="geometry" />
        </mxCell>
        <mxCell id="l-Tpt4Chwf_FJ7SH6TVP-35" value="" style="endArrow=classic;html=1;rounded=0;exitX=0.522;exitY=1;exitDx=0;exitDy=0;exitPerimeter=0;strokeWidth=2;" edge="1" parent="l-Tpt4Chwf_FJ7SH6TVP-1" source="l-Tpt4Chwf_FJ7SH6TVP-33" target="l-Tpt4Chwf_FJ7SH6TVP-8">
          <mxGeometry width="50" height="50" relative="1" as="geometry">
            <mxPoint x="980" y="220" as="sourcePoint" />
            <mxPoint x="1030" y="170" as="targetPoint" />
          </mxGeometry>
        </mxCell>
      </root>
    </mxGraphModel>
  </diagram>
</mxfile>
